<svg width="16" height="18" viewBox="0 0 16 18" fill="none" xmlns="http://www.w3.org/2000/svg">
<g id="Orders">
<path id="A" fill-rule="evenodd" clip-rule="evenodd" d="M3.74912 0C2.40369 0 1.23632 0.884732 0.933789 2.1337L0.109876 5.53513C0.0766905 5.63919 0.0506292 5.74621 0.032233 5.85567L0.0217947 5.89876L0.025292 5.89953C0.00862197 6.01182 0 6.12657 0 6.24324V15.5676C0 16.911 1.1431 18 2.55319 18H13.4468C14.8569 18 16 16.911 16 15.5676V6.24324C16 6.12657 15.9914 6.01182 15.9747 5.89953L15.9782 5.89876L15.9678 5.85567C15.9494 5.74621 15.9233 5.63919 15.8901 5.53513L15.0662 2.13371C14.7637 0.884734 13.5963 0 12.2509 0H3.74912ZM13.7291 3.82551L13.4077 2.49834C13.2834 1.98515 12.8037 1.62162 12.2509 1.62162H3.74912C3.1963 1.62162 2.71664 1.98515 2.59233 2.49834L2.27085 3.82551C2.36356 3.8158 2.45776 3.81081 2.55319 3.81081H13.4468C13.5422 3.81081 13.6364 3.8158 13.7291 3.82551ZM1.70759 6.15087L1.75092 5.97199C1.86804 5.65759 2.18302 5.43243 2.55319 5.43243H4.59574V11.0986C4.59574 11.966 5.76375 12.323 6.29338 11.6174L8.04255 9.28735L9.79172 11.6174C10.3214 12.323 11.4894 11.966 11.4894 11.0986V5.43243H13.4468C13.817 5.43243 14.132 5.65759 14.2491 5.97199L14.2924 6.15087C14.296 6.18119 14.2979 6.21201 14.2979 6.24324V15.5676C14.2979 16.0154 13.9168 16.3784 13.4468 16.3784H2.55319C2.08316 16.3784 1.70213 16.0154 1.70213 15.5676V6.24324C1.70213 6.21201 1.70398 6.18119 1.70759 6.15087Z" fill="#1237BF"/>
</g>
</svg>
