<svg width="130" height="35" viewBox="0 0 130 35" fill="none" xmlns="http://www.w3.org/2000/svg">
<path d="M110.348 26.3164C108.632 27.5003 106.764 28.0922 104.745 28.0922C103.222 28.0922 101.85 27.771 100.629 27.1286C99.4176 26.477 98.4585 25.596 97.7519 24.4855C97.0452 23.375 96.6919 22.1177 96.6919 20.7136C96.6919 19.3829 97.0085 18.199 97.6418 17.162C98.275 16.1157 99.1377 15.2898 100.23 14.6841C101.331 14.0784 102.575 13.7755 103.96 13.7755C105.401 13.7755 106.668 14.1105 107.76 14.7804C108.852 15.4504 109.701 16.3819 110.307 17.5749C110.921 18.7588 111.229 20.1354 111.229 21.7048V22.1453H101.538C101.703 22.595 101.951 22.9942 102.281 23.3429C102.62 23.6917 103.043 23.9716 103.547 24.1827C104.052 24.3846 104.63 24.4855 105.282 24.4855C106.631 24.4855 107.897 24.0496 109.081 23.1777L110.348 26.3164ZM101.345 20.1079H107.072C107.016 19.594 106.86 19.1397 106.603 18.7451C106.346 18.3504 106.007 18.043 105.585 17.8227C105.172 17.6025 104.708 17.4923 104.194 17.4923C103.671 17.4923 103.208 17.6117 102.804 17.8503C102.409 18.0797 102.084 18.3917 101.827 18.7864C101.579 19.1718 101.418 19.6123 101.345 20.1079Z" fill="black"/>
<path d="M87.0968 34.7H82.3063L85.1558 27.8307L78.0801 14.0509H83.2011L87.2896 22.696L90.8687 14.0509H95.6593L87.0968 34.7Z" fill="black"/>
<path d="M69.8351 28.0922C68.4035 28.0922 67.1232 27.7848 65.9944 27.1699C64.8748 26.5458 63.9937 25.6969 63.3513 24.6232C62.7089 23.5402 62.3877 22.3105 62.3877 20.9339C62.3877 19.5573 62.7089 18.3321 63.3513 17.2583C63.9937 16.1754 64.8748 15.3265 65.9944 14.7116C67.1232 14.0875 68.4035 13.7755 69.8351 13.7755C71.2668 13.7755 72.5379 14.0875 73.6483 14.7116C74.768 15.3265 75.6444 16.1754 76.2777 17.2583C76.9201 18.3321 77.2413 19.5573 77.2413 20.9339C77.2413 22.3105 76.9201 23.5402 76.2777 24.6232C75.6444 25.6969 74.768 26.5458 73.6483 27.1699C72.5379 27.7848 71.2668 28.0922 69.8351 28.0922ZM69.8214 24.045C70.3537 24.045 70.8309 23.9119 71.253 23.6458C71.6752 23.3796 72.0056 23.008 72.2442 22.5307C72.492 22.0535 72.6159 21.512 72.6159 20.9063C72.6159 20.319 72.492 19.7913 72.2442 19.3232C72.0056 18.8552 71.6752 18.4881 71.253 18.222C70.8309 17.9558 70.3537 17.8227 69.8214 17.8227C69.2799 17.8227 68.7981 17.9558 68.3759 18.222C67.9538 18.4881 67.6188 18.8552 67.371 19.3232C67.1324 19.7913 67.0131 20.319 67.0131 20.9063C67.0131 21.512 67.1324 22.0535 67.371 22.5307C67.6188 23.008 67.9538 23.3796 68.3759 23.6458C68.7981 23.9119 69.2799 24.045 69.8214 24.045Z" fill="black"/>
<path d="M61.6175 14.0509L56.0423 27.817H51.6784L46.1169 14.0509H50.9488L53.8672 23.2879L56.7994 14.0509H61.6175Z" fill="black"/>
<path d="M44.1608 27.817H40.5541L40.4027 25.6144C39.9255 26.422 39.2876 27.0369 38.4892 27.459C37.6908 27.8812 36.7593 28.0923 35.6947 28.0923C33.9602 28.0923 32.6019 27.5554 31.6199 26.4817C30.638 25.4079 30.147 23.9258 30.147 22.0352V14.0509H34.6622V20.8926C34.6622 21.893 34.8779 22.6685 35.3092 23.2191C35.7406 23.7697 36.3371 24.0451 37.0988 24.0451C37.8973 24.0451 38.5213 23.7606 38.971 23.1916C39.4207 22.6226 39.6456 21.8379 39.6456 20.8376V14.0509H44.1608V27.817Z" fill="black"/>
<path d="M22.9064 27.8169H18.3911V14.0508H22.3144L22.4659 16.3222C22.9247 15.5146 23.535 14.8906 24.2968 14.45C25.0585 14.0004 25.9303 13.7755 26.9123 13.7755C27.2152 13.7755 27.5226 13.7985 27.8346 13.8443C28.1558 13.8902 28.477 13.9591 28.7983 14.0508L28.2476 18.1118C27.6052 17.9099 27.0041 17.809 26.4443 17.809C25.7284 17.809 25.1044 17.965 24.5721 18.277C24.0398 18.589 23.6268 19.025 23.3331 19.5848C23.0486 20.1446 22.9064 20.8054 22.9064 21.5671V27.8169Z" fill="black"/>
<path d="M10.7513 27.8171H5.90564V11.3941H0V7.16797H16.6569V11.3941H10.7513V27.8171Z" fill="black"/>
<g clip-path="url(#clip0_2763_2824)">
<path d="M104.918 6.76003L116.481 13.1781L129.15 6.76003L119.459 0.694162C117.98 -0.232201 116.087 -0.232201 114.608 0.694162L104.918 6.76003Z" fill="#1237BF"/>
</g>
<g clip-path="url(#clip1_2763_2824)">
<path d="M116.821 14.6509L129.574 8.07715V20.1145C129.574 21.4852 128.833 22.7496 127.634 23.4219L117.847 28.9076L116.821 14.6509Z" fill="#F9A33F"/>
</g>
<defs>
<clipPath id="clip0_2763_2824">
<rect width="24.2313" height="13.1784" fill="white" transform="translate(104.918)"/>
</clipPath>
<clipPath id="clip1_2763_2824">
<rect width="12.7533" height="20.8304" fill="white" transform="translate(116.821 8.07715)"/>
</clipPath>
</defs>
</svg>
