<svg width="251" height="251" viewBox="0 0 251 251" fill="none" xmlns="http://www.w3.org/2000/svg">
<g id="Frame 10">
<g id="Map">
<path id="background" d="M84.0882 82.2066L24.5769 60.3513V162.146L82.5131 180.408L134.296 155.648L189.279 172.975L191.79 77.4319L134.296 60.3513L84.0882 82.2066Z" fill="white"/>
<path id="outline" fill-rule="evenodd" clip-rule="evenodd" d="M134.011 54.1108C133.839 54.1646 132.053 54.9895 128.744 56.5443C124.43 58.5718 116.582 62.2584 113.239 63.8283C111.425 64.6801 108.867 65.8818 107.554 66.4986C106.241 67.1155 104.092 68.1247 102.779 68.7412C98.0165 70.977 90.4757 74.5186 87.3474 75.9889C85.5876 76.8158 83.9662 77.5739 83.7442 77.6733L83.3407 77.854L80.6431 76.8618C79.1595 76.316 77.6577 75.7675 77.3058 75.6429C76.9538 75.5183 75.071 74.8319 73.1218 74.1176C71.1725 73.4032 68.4258 72.3978 67.018 71.8832C65.6102 71.3687 63.5502 70.6155 62.4402 70.2093C59.7813 69.2365 58.1119 68.6259 54.9583 67.473C53.5234 66.9483 51.4412 66.1869 50.3312 65.7808C49.2212 65.3746 46.9176 64.5325 45.212 63.9096C43.5064 63.2867 41.4685 62.5416 40.6834 62.2541C39.8983 61.9665 37.8604 61.2217 36.1548 60.5989C34.4492 59.9762 32.1899 59.1496 31.134 58.7622C30.0782 58.3748 28.6605 57.855 27.9837 57.6072C26.0892 56.9135 26.2322 56.9197 25.0057 57.4779C24.4236 57.7428 23.7507 57.9891 23.5103 58.0251C23.27 58.0611 23.0011 58.1704 22.913 58.2678C22.7402 58.4586 22.7127 52.7074 23.3113 141.792C23.4137 157.031 23.4289 164.065 23.3595 164.134C23.2018 164.292 23.24 164.608 23.4605 164.97C23.6373 165.26 23.7004 165.294 23.9769 165.248C24.22 165.208 30.6131 167.301 51.9556 174.407C67.1706 179.473 80.1457 183.782 80.789 183.984C81.8769 184.325 81.9872 184.342 82.3642 184.225C82.5872 184.156 88.5509 181.222 95.617 177.704C102.683 174.187 114.301 168.405 121.434 164.856L134.404 158.403L137.235 159.387C139.861 160.299 145.038 162.09 158.968 166.904C162 167.952 165.455 169.148 166.647 169.562C169.219 170.455 177.505 173.319 185.844 176.196C189.147 177.335 191.926 178.314 192.02 178.369C192.114 178.425 192.286 178.471 192.401 178.471C192.595 178.471 193.601 177.885 193.981 177.551C194.199 177.358 194.233 176.765 194.359 170.94C194.698 155.281 194.888 146.991 195.195 134.367C195.384 126.597 195.629 116.164 195.738 111.182C195.848 106.201 196.093 95.7929 196.282 88.0535C196.471 80.3139 196.602 73.9094 196.574 73.8209C196.478 73.5158 195.919 73.2002 195.4 73.1577C195.126 73.1353 194.436 72.9689 193.867 72.7879C193.299 72.6071 191.748 72.1203 190.422 71.706C189.095 71.2918 187.545 70.8039 186.976 70.6218C186.407 70.4397 184.857 69.9525 183.53 69.5392C182.204 69.1259 180.653 68.6381 180.085 68.4553C179.516 68.2725 174.577 66.7223 169.108 65.0105C163.639 63.2987 158.633 61.7265 157.983 61.5166C157.334 61.3067 155.717 60.7969 154.39 60.3836C153.063 59.9703 151.513 59.4829 150.944 59.3005C150.376 59.1181 148.892 58.6526 147.646 58.2659C146.401 57.8792 144.85 57.3924 144.201 57.184C142.086 56.5057 134.857 54.2479 134.504 54.1551C134.314 54.1055 134.093 54.0855 134.011 54.1108ZM131.255 56.3607C129.82 57.0384 127.273 58.2371 125.594 59.0249C123.916 59.8127 121.457 60.9669 120.13 61.5899C118.804 62.2127 116.987 63.0653 116.094 63.4843C112.808 65.0255 107.724 67.4135 97.4382 72.2476C91.6446 74.9703 86.2399 77.506 85.4277 77.8823C84.6155 78.2586 83.8956 78.6119 83.8279 78.6673C83.7189 78.7566 83.6436 79.63 83.7449 79.63C83.8292 79.63 85.2901 78.9452 93.4019 75.1032C107.834 68.2676 114.789 64.9746 123.035 61.072C125.525 59.8932 128.952 58.2703 130.649 57.4657C132.346 56.661 133.797 56.0027 133.873 56.0027C133.971 56.0027 134.011 55.8748 134.011 55.5597C134.011 55.316 133.978 55.1194 133.938 55.1228C133.897 55.1261 132.69 55.6832 131.255 56.3607ZM134.7 55.5505V55.9959L135.857 56.3534C138.323 57.1151 146.474 59.6522 149.123 60.4824C150.043 60.7709 152.746 61.6111 155.128 62.3497C157.511 63.0881 159.859 63.8197 160.346 63.9752C160.833 64.1307 162.162 64.5456 163.299 64.8973C168.858 66.6162 169.673 66.8694 170.634 67.1767C171.202 67.3587 172.908 67.8895 174.424 68.3564C175.94 68.8235 177.646 69.3553 178.214 69.5383C178.783 69.7213 180.488 70.2531 182.004 70.7201C183.52 71.1871 185.16 71.6961 185.647 71.8512C186.134 72.0065 187.463 72.4222 188.6 72.7751C189.737 73.1282 191.529 73.6854 192.582 74.0135L194.496 74.6101L194.775 74.3427L195.054 74.0754L194.583 73.9412C194.325 73.8674 188.886 72.1676 182.497 70.1638C167.505 65.4621 167.64 65.5044 166.253 65.06C165.603 64.8519 164.053 64.3645 162.807 63.9769C161.562 63.5893 160.011 63.102 159.362 62.894C158.712 62.686 157.161 62.1987 155.916 61.8111C154.671 61.4235 153.12 60.9357 152.47 60.727C151.82 60.5183 150.203 60.0093 148.877 59.596C147.55 59.1827 146 58.695 145.431 58.5123C144.863 58.3295 142.249 57.5079 139.623 56.6865C136.997 55.8651 134.815 55.1732 134.774 55.149C134.734 55.1248 134.7 55.3055 134.7 55.5505ZM25.7194 58.2126C25.189 58.4905 24.9786 58.3687 27.6884 59.3527C28.7442 59.7362 30.0733 60.2222 30.6418 60.4328C31.2103 60.6434 32.5172 61.1236 33.546 61.5001C34.5748 61.8764 36.7677 62.681 38.4191 63.2881C40.0706 63.895 42.485 64.7802 43.7845 65.2551C49.0765 67.1892 55.3406 69.4866 55.7037 69.6266C55.9163 69.7086 61.2515 71.6661 67.5595 73.9766C81.492 79.0798 82.6248 79.4952 82.8434 79.5825C82.9934 79.6421 83.0157 79.5888 83.0157 79.1705V78.6898L79.9885 77.5866C78.3235 76.9797 75.9866 76.1243 74.7954 75.6856C73.6042 75.2469 72.0979 74.6965 71.4482 74.4623C70.7984 74.2282 68.9156 73.5411 67.2642 72.9354C65.6127 72.3297 63.1097 71.4132 61.7019 70.8987C58.5015 69.7291 55.5452 68.6475 53.6292 67.9451C52.817 67.6473 51.4437 67.1465 50.5774 66.8322C49.711 66.5178 47.651 65.7646 45.9996 65.1584C44.3481 64.552 41.6236 63.5551 39.9451 62.9427C38.2665 62.3304 36.0293 61.5118 34.9735 61.1236C33.9176 60.7354 32.5221 60.2256 31.8724 59.9906C31.2226 59.7557 29.7164 59.2055 28.5252 58.7679C27.334 58.3304 26.315 57.9742 26.2609 57.9765C26.2067 57.9787 25.9631 58.0849 25.7194 58.2126ZM131.385 64.2027L129.203 65.2007L129.148 66.0901C129.117 66.5793 129.003 71.6312 128.892 77.3165C128.782 83.0018 128.664 89.031 128.629 90.7148C128.583 92.9814 128.596 93.7942 128.68 93.8463C128.743 93.8849 128.794 94.0235 128.794 94.1542C128.794 94.3382 128.61 94.5272 127.981 94.9891C118.764 101.765 97.8188 116.9 97.6264 116.924C97.4863 116.942 97.2979 116.891 97.2081 116.812C97.1181 116.733 96.1806 116.328 95.1247 115.911C94.0689 115.495 92.0908 114.713 90.729 114.172L88.2528 113.19L85.6979 114.468L83.1429 115.746L83.0704 122.849C83.0305 126.755 83.0167 129.97 83.0398 129.993C83.063 130.017 84.8058 128.859 86.9128 127.421C89.0199 125.983 92.2834 123.757 94.1653 122.474C96.0471 121.191 99.0817 119.12 100.909 117.873C102.736 116.626 105.826 114.518 107.775 113.189C109.724 111.86 112.936 109.671 114.913 108.324C118.76 105.701 123.158 102.699 129.209 98.5668C131.282 97.1512 133.136 95.8996 133.331 95.7856L133.684 95.5782L133.751 79.4756C133.788 70.6191 133.792 63.3317 133.761 63.2812C133.73 63.2307 133.674 63.1928 133.636 63.197C133.599 63.2013 132.586 63.6538 131.385 64.2027ZM134.667 70.9337C134.631 74.9224 134.602 82.0387 134.602 86.7479V95.3099L135.02 95.2526C135.251 95.2211 136.812 95.0376 138.491 94.8448C140.169 94.6522 143.425 94.2735 145.727 94.0032C148.028 93.7331 151.439 93.3327 153.307 93.1135C155.175 92.8942 158.409 92.5188 160.494 92.2793C166.871 91.5466 169.959 91.1669 170.017 91.1084C170.134 90.9915 169.422 74.4399 169.295 74.3175C169.246 74.2704 167.013 73.559 164.333 72.7366C157.975 70.7858 149.963 68.3242 141.601 65.7526C137.898 64.6136 134.837 63.6816 134.8 63.6816C134.763 63.6816 134.703 66.945 134.667 70.9337ZM125.939 66.6796C123.923 67.6037 115.867 71.267 105.905 75.7889C103.793 76.7474 100.322 78.3236 98.1905 79.2917C95.3575 80.5786 94.2959 81.1053 94.2418 81.2514C94.2011 81.3614 94.1358 83.2233 94.0968 85.3892C94.0578 87.555 93.9253 93.4471 93.8025 98.4827C93.6796 103.518 93.5851 107.647 93.5924 107.658C93.5997 107.669 95.3319 106.471 97.4417 104.996C113.408 93.8317 113.042 94.093 113.042 93.8671C113.042 93.4216 114.033 81.6424 114.085 81.4761C114.114 81.3815 114.257 81.2758 114.402 81.2411C114.626 81.1878 117.617 79.591 123.182 76.5546C123.859 76.1852 124.647 75.7636 124.933 75.6175L125.454 75.352L125.394 74.316C125.361 73.7463 125.326 71.8847 125.317 70.1791L125.299 67.078H125.593C125.811 67.078 125.916 67.1415 125.999 67.3241C126.068 67.4779 126.153 68.9735 126.223 71.3112C126.285 73.3688 126.383 76.3218 126.441 77.8734C126.557 80.9869 126.542 81.1067 126.031 81.1067C125.652 81.1067 125.545 80.8403 125.545 79.8944C125.544 79.5053 125.515 78.5564 125.48 77.7856L125.416 76.3843L124.717 76.7654C124.333 76.975 122.978 77.7113 121.705 78.4016C116.008 81.4927 115.055 82.0154 114.973 82.0935C114.866 82.1958 114.826 82.6234 114.319 89.1302C114.034 92.7958 113.872 94.4107 113.777 94.5591C113.703 94.6754 110.771 96.7776 107.263 99.2307C103.754 101.684 99.2226 104.855 97.1921 106.277C93.3211 108.988 93.1146 109.1 92.8157 108.643C92.6579 108.403 92.6921 106.069 93.1131 88.3595C93.2003 84.687 93.2474 81.6578 93.2177 81.6281C93.1653 81.5756 90.3152 82.8294 90.1881 82.9608C90.1196 83.0316 90.0119 86.4342 89.7124 97.9904C89.4755 107.128 89.4094 109.014 89.3208 109.157C89.2825 109.219 87.8814 109.995 86.2073 110.881L83.1634 112.492L83.1355 113.584C83.1167 114.323 83.1424 114.677 83.2149 114.677C83.2737 114.677 84.3749 114.146 85.6618 113.496C86.9486 112.846 88.1008 112.314 88.2223 112.314C88.4745 112.314 89.094 112.548 93.9761 114.481C95.9163 115.249 97.5845 115.856 97.6832 115.83C97.7818 115.805 104.578 110.9 112.787 104.931L127.711 94.0777L127.711 93.4745C127.712 92.723 128.171 71.6391 128.261 68.1855C128.3 66.7296 128.291 65.6534 128.241 65.6572C128.193 65.6608 127.157 66.121 125.939 66.6796ZM29.4227 66.4259C29.404 66.4596 29.4233 69.6992 29.4656 73.6247C29.5079 77.5503 29.5746 83.8031 29.614 87.5197L29.6854 94.2772L31.608 96.5768C32.6656 97.8417 35.88 101.69 38.7512 105.128C41.6224 108.566 44.6404 112.177 45.4579 113.151C46.2753 114.126 48.6459 116.961 50.7258 119.452C52.8057 121.943 55.4933 125.159 56.6982 126.599L58.889 129.217L60.9353 129.285C62.0608 129.322 67.1239 129.506 72.1865 129.693C77.2492 129.881 81.552 130.035 81.7483 130.035L82.1053 130.035L82.1786 122.991C82.219 119.118 82.2236 115.92 82.1891 115.885C82.1299 115.826 77.4686 115.389 72.8264 115.008C70.8293 114.843 70.7515 114.829 70.5377 114.585C70.416 114.446 65.9521 109.194 60.6181 102.913C53.6852 94.7492 50.8935 91.3947 50.8275 91.1483C50.7382 90.8151 50.4291 78.8023 50.4295 75.6795C50.4296 74.5677 50.3955 74.1132 50.3066 74.0408C50.239 73.9856 49.807 73.8068 49.3468 73.6432C48.8865 73.4797 47.4689 72.9613 46.1964 72.4912C44.924 72.021 43.595 71.534 43.243 71.4089C42.8911 71.2839 41.562 70.798 40.2896 70.3294C38.1635 69.5465 34.9334 68.3636 31.0091 66.9311C30.1553 66.6194 29.4414 66.3921 29.4227 66.4259ZM51.3168 74.9718C51.3174 75.2867 51.3814 78.2247 51.459 81.5005C51.5366 84.7764 51.6137 88.2462 51.6302 89.2114L51.6603 90.9662L53.5178 93.1493C54.5394 94.3499 56.2029 96.307 57.2145 97.4982C67.2191 109.28 70.9529 113.669 71.0897 113.807C71.218 113.938 71.7281 114.014 73.5648 114.177C76.8502 114.469 81.7449 114.873 82.0066 114.874C82.224 114.874 82.2281 114.852 82.2281 113.699V112.524L81.8097 112.468C81.5796 112.437 79.4741 112.237 77.1307 112.023C74.7875 111.809 72.8258 111.606 72.7717 111.573C72.7175 111.539 72.6191 111.386 72.5529 111.232C72.4523 110.997 68.9993 106.853 59.3479 95.3845C58.5948 94.4896 57.339 92.993 56.5574 92.059C55.7759 91.125 55.0995 90.3608 55.0543 90.3608C55.0092 90.3608 54.9007 90.2891 54.813 90.2015C54.6678 90.0563 54.6598 89.4021 54.7225 82.8425L54.7912 75.6429L53.275 75.0883C51.0772 74.2846 51.3155 74.2988 51.3168 74.9718ZM170.311 75.3722C170.594 80.9622 170.995 91.4182 170.932 91.583C170.888 91.7003 170.791 91.8448 170.718 91.904C170.644 91.9632 169.765 92.1056 168.763 92.2206C167.762 92.3356 165.613 92.5855 163.989 92.7759C162.364 92.9663 159.33 93.3184 157.245 93.5583C153.239 94.0195 149.073 94.5067 142.921 95.2334C140.863 95.4766 138.161 95.7898 136.916 95.9296C135.671 96.0694 134.63 96.2064 134.603 96.2337C134.575 96.2612 134.539 97.587 134.523 99.1799C134.498 101.512 134.518 102.076 134.621 102.076C134.692 102.076 136.19 101.901 137.949 101.687C139.709 101.474 143.408 101.028 146.17 100.698C148.931 100.367 152.652 99.9201 154.439 99.7039C156.226 99.4876 158.795 99.1809 160.149 99.0223C161.503 98.8636 164.448 98.5111 166.693 98.239C171.445 97.6633 171.589 97.6555 171.708 97.968C171.783 98.1647 172.006 105.493 172.308 117.68C172.619 130.274 172.906 140.948 172.957 141.817L173.014 142.819L179.369 149.988C186.497 158.029 186.49 158.021 186.532 157.977C186.549 157.959 186.612 155.331 186.672 152.136L186.781 146.328L183.628 143.227C180.382 140.035 180.274 139.901 180.642 139.533C180.794 139.381 180.781 137.676 180.442 114.447C180.242 100.739 180.057 87.5304 180.03 85.0938C180.003 82.6573 179.955 79.9506 179.924 79.079L179.868 77.4942L178.623 77.1231C177.938 76.919 176.912 76.6058 176.344 76.4272C174.02 75.6973 170.437 74.6092 170.358 74.6092C170.311 74.6092 170.29 74.9525 170.311 75.3722ZM195.345 75.051L195.115 75.296L194.988 79.9488C194.919 82.5078 194.77 88.4337 194.658 93.1173C194.545 97.8009 194.278 108.256 194.064 116.351C193.851 124.446 193.63 132.996 193.574 135.351C193.356 144.532 192.629 172.498 192.531 175.444C192.495 176.513 192.494 177.388 192.528 177.388C192.562 177.388 192.741 177.289 192.926 177.168L193.261 176.949L193.315 175.962C193.345 175.42 193.395 173.625 193.425 171.974C193.455 170.322 193.656 161.683 193.87 152.776C194.084 143.869 194.348 132.55 194.457 127.623C194.566 122.696 194.789 113.171 194.951 106.457C195.595 79.9025 195.703 74.8061 195.622 74.8061C195.596 74.8061 195.472 74.9164 195.345 75.051ZM55.6037 82.7186L55.5314 89.4497L57.9767 92.3513C59.3216 93.9471 63.3626 98.7534 66.9566 103.032L73.491 110.811L75.3246 110.98C80.3874 111.446 82.2514 111.58 82.2798 111.482C82.3519 111.232 82.5241 85.892 82.4541 85.8242C82.4111 85.7826 78.7874 84.4349 74.4016 82.8295C70.0158 81.2241 65.9622 79.7392 65.3937 79.5297C64.8251 79.3202 63.9391 78.9938 63.4247 78.8042C61.3879 78.0539 55.72 75.9875 55.6987 75.9875C55.6862 75.9875 55.6434 79.0165 55.6037 82.7186ZM180.848 77.9318C180.829 77.9724 180.867 81.6383 180.934 86.0783C181.001 90.5183 181.125 99.3121 181.209 105.62C181.293 111.928 181.433 122.228 181.521 128.509L181.682 139.929L184.201 142.46C185.587 143.852 186.734 144.978 186.75 144.962C186.812 144.901 187.768 91.9767 187.885 82.1443L187.911 79.9824L184.466 78.9205C182.57 78.3365 180.989 77.8585 180.952 77.8583C180.914 77.8582 180.868 77.8912 180.848 77.9318ZM86.3137 84.6896L83.4587 85.9923L83.3982 89.1364C83.3649 90.8656 83.3038 96.5958 83.2623 101.87L83.1869 111.46L84.2089 110.915C84.7709 110.616 85.9728 109.985 86.8798 109.513L88.5288 108.655V108.049C88.5288 107.716 88.6854 102.127 88.877 95.629C89.0684 89.1308 89.2124 83.7179 89.1969 83.6006C89.1706 83.402 88.9685 83.4784 86.3137 84.6896ZM29.7558 99.053V102.232L32.3892 105.332C35.6549 109.177 40.1891 114.508 41.9704 116.597C53.2968 129.881 55.3644 132.351 55.3168 132.542C55.2892 132.652 54.7364 134.448 54.0882 136.533C53.4401 138.617 52.1497 142.804 51.2208 145.836C50.2919 148.868 49.2716 152.191 48.9537 153.219C48.3902 155.042 46.431 161.435 45.7406 163.704C45.5512 164.327 45.3149 164.95 45.2154 165.09L45.0346 165.343L47.363 166.114C48.6436 166.538 49.7524 166.889 49.827 166.894C49.9206 166.901 50.0928 166.43 50.3816 165.378C51.209 162.364 52.0058 159.474 52.7431 156.813C53.1557 155.324 53.6208 153.64 53.7769 153.072C53.9329 152.503 54.3981 150.82 54.8107 149.331C55.2233 147.842 55.8018 145.748 56.0963 144.679C56.3909 143.61 56.873 141.86 57.1676 140.79C57.4623 139.721 57.9038 138.117 58.1487 137.227C58.5154 135.894 58.6455 135.556 58.8839 135.318L59.1737 135.028L69.7411 135.287C75.5531 135.429 80.6912 135.565 81.159 135.589L82.0097 135.632L82.0818 133.322C82.1215 132.051 82.1372 130.994 82.1165 130.973C82.0789 130.936 77.5354 130.766 63.278 130.27C59.0284 130.123 58.8341 130.108 58.4843 129.899C58.041 129.635 58.3099 129.944 53.0858 123.685C49.0671 118.87 47.3604 116.828 41.323 109.607C39.9647 107.983 36.8269 104.228 34.35 101.264C31.8731 98.2994 29.8261 95.8738 29.8011 95.8738C29.7761 95.8738 29.7558 97.3044 29.7558 99.053ZM130.931 98.4581C129.486 99.4462 127.65 100.7 126.85 101.245C126.051 101.79 120.081 105.862 113.584 110.294C94.6481 123.212 93.473 124.013 92.0236 125C91.2656 125.516 89.4714 126.741 88.0365 127.722C86.6017 128.703 84.8849 129.872 84.2217 130.32L83.0157 131.135V133.195V135.254L83.8279 134.747C85.3508 133.795 91.037 130.213 91.7775 129.739C94.8711 127.758 102.035 123.281 102.377 123.115L102.8 122.909L103.057 123.149C103.3 123.377 104.36 124.672 110.405 132.134C111.801 133.858 112.944 135.342 112.943 135.432C112.943 135.523 112.811 137.259 112.65 139.289C112.489 141.32 112.203 145.085 112.014 147.657C111.825 150.229 111.515 154.305 111.327 156.714C110.916 161.95 110.826 163.409 110.912 163.409C110.962 163.409 115.701 161.067 115.765 161.01C115.785 160.992 116.16 155.025 116.291 152.629C116.38 151.001 117.297 135.963 117.408 134.298C117.438 133.847 117.408 133.629 117.291 133.461C117.205 133.337 116.295 132.193 115.27 130.921C111.717 126.51 110.719 125.272 108.776 122.863C107.703 121.532 106.783 120.367 106.734 120.274C106.598 120.02 106.725 119.809 107.145 119.595C107.494 119.416 109.362 118.239 117.915 112.806C119.648 111.706 121.16 110.786 121.275 110.763C121.391 110.74 121.594 110.78 121.726 110.853C121.859 110.926 124.555 113.701 127.719 117.021L133.47 123.057L133.532 121.697C133.566 120.95 133.599 119.618 133.606 118.739L133.618 117.14L130.689 113.775C129.078 111.925 127.326 109.91 126.794 109.298C125.845 108.204 125.599 107.737 125.812 107.427C125.961 107.211 133.261 102.371 133.438 102.371C133.606 102.371 133.618 102.241 133.618 100.418C133.618 99.3429 133.646 98.0582 133.682 97.5626C133.72 97.0168 133.709 96.6614 133.652 96.6614C133.601 96.6614 132.377 97.4699 130.931 98.4581ZM167.926 98.9821C164.403 99.4149 154.824 100.567 147.105 101.487C144.858 101.754 141.934 102.105 140.607 102.266C139.281 102.426 137.365 102.655 136.349 102.775L134.504 102.992V109.768V116.543L134.725 116.448C134.928 116.362 138.275 116.106 144.398 115.711C145.697 115.627 148.599 115.427 150.846 115.265C160.312 114.585 160.587 114.571 160.903 114.734C161.061 114.816 161.232 114.981 161.282 115.1C161.332 115.22 161.462 120.766 161.572 127.426C161.682 134.086 161.8 140.768 161.836 142.274L161.9 145.013L164.178 147.492C165.43 148.855 170.203 154.046 174.784 159.028L183.112 168.085L184.626 168.566C185.458 168.831 186.189 169.066 186.251 169.087C186.332 169.116 186.379 168.24 186.422 165.899C186.455 164.123 186.503 161.951 186.528 161.071L186.575 159.472L184.24 156.838C181.333 153.559 178.109 149.925 174.872 146.279C173.502 144.736 172.321 143.383 172.248 143.272C172.158 143.136 172.096 142.58 172.058 141.549C171.966 139.068 170.93 100.022 170.929 98.9995C170.929 98.7088 170.892 98.633 170.757 98.6429C170.662 98.6499 169.388 98.8025 167.926 98.9821ZM130.164 105.534C128.3 106.786 126.763 107.821 126.748 107.834C126.733 107.847 127.796 109.095 129.111 110.609C130.425 112.122 131.944 113.875 132.485 114.503C133.027 115.132 133.503 115.65 133.544 115.654C133.584 115.658 133.618 112.871 133.618 109.46C133.618 106.048 133.603 103.257 133.585 103.257C133.567 103.257 132.027 104.282 130.164 105.534ZM29.8893 110.567C29.9729 118.931 30.3138 148.724 30.4033 155.494L30.4698 160.525L36.7825 162.623C40.2546 163.777 43.4166 164.821 43.8091 164.943L44.5228 165.165V164.89C44.5228 164.627 44.8957 163.299 45.505 161.39C45.6605 160.903 46.3493 158.666 47.0357 156.419C47.722 154.172 48.7398 150.849 49.2974 149.035C49.8551 147.221 51.1379 143.035 52.1482 139.732C53.1583 136.429 54.0701 133.466 54.1741 133.148L54.3633 132.569L54.144 132.308C54.0233 132.165 52.9499 130.901 51.7587 129.5C50.5675 128.098 49.172 126.456 48.6576 125.85C48.1432 125.244 46.5948 123.423 45.2165 121.805C43.8383 120.186 39.8373 115.483 36.3253 111.355C32.8134 107.226 29.9135 103.848 29.8811 103.848C29.8486 103.848 29.8523 106.872 29.8893 110.567ZM120.623 112.162C120.011 112.571 119.352 112.991 114.666 115.955C108.798 119.668 107.923 120.245 107.969 120.366C107.996 120.436 108.903 121.588 109.983 122.926C116.996 131.607 118.358 133.322 118.358 133.472C118.358 133.565 118.226 135.742 118.065 138.311C117.904 140.879 117.704 144.199 117.62 145.688C117.416 149.299 116.803 159.288 116.745 159.938C116.72 160.223 116.737 160.455 116.784 160.455C116.9 160.455 119.19 159.34 126.669 155.642C130.185 153.903 133.134 152.481 133.225 152.481C133.375 152.481 133.394 151.946 133.454 145.91C133.49 142.295 133.519 135.976 133.519 131.866L133.519 124.393L132.608 123.448C132.107 122.929 129.395 120.089 126.582 117.138C123.77 114.187 121.422 111.764 121.365 111.753C121.309 111.743 120.975 111.926 120.623 112.162ZM160.1 115.528C159.965 115.547 157.794 115.696 155.276 115.86C152.758 116.024 148.572 116.312 145.973 116.499C138.361 117.046 135.063 117.253 134.788 117.199L134.531 117.149L134.459 120.206C134.419 121.887 134.424 123.299 134.47 123.343C134.515 123.387 137.144 123.23 140.312 122.993C149.914 122.275 152.854 122.077 153.133 122.13C153.28 122.158 153.451 122.244 153.515 122.32C153.632 122.461 153.883 127.142 154.439 139.584C154.82 148.09 155.353 158.99 155.391 159.026C155.409 159.044 158.791 160.151 162.906 161.486C169.086 163.492 177.093 166.098 180.454 167.198C180.846 167.326 181.167 167.401 181.166 167.364C181.166 167.327 180.269 166.32 179.173 165.126C178.077 163.932 173.709 159.169 169.467 154.543C165.224 149.916 161.582 145.976 161.373 145.787L160.993 145.442L160.889 139.191C160.832 135.752 160.719 129.24 160.64 124.719C160.56 120.198 160.494 116.266 160.494 115.982C160.494 115.697 160.46 115.471 160.42 115.48C160.379 115.488 160.235 115.51 160.1 115.528ZM148.286 123.291C145.985 123.469 142.109 123.754 139.672 123.924C137.236 124.094 135.054 124.259 134.824 124.29L134.405 124.347L134.405 134.452C134.405 140.009 134.376 146.317 134.34 148.469L134.275 152.383H134.591C134.764 152.383 139.275 153.801 144.614 155.534C149.953 157.268 154.343 158.665 154.369 158.639C154.426 158.581 154.213 153.578 153.701 142.981C153.489 138.595 153.222 132.858 153.108 130.232C152.798 123.11 152.791 123.001 152.618 122.983C152.537 122.974 150.587 123.113 148.286 123.291ZM100.539 125.271C99.4835 125.943 97.8886 126.952 96.9952 127.514C96.1018 128.076 94.8835 128.844 94.2879 129.221C92.0195 130.655 86.6363 134.047 84.9847 135.082C84.0371 135.676 83.1915 136.224 83.1057 136.299C82.9664 136.421 82.9424 137.327 82.8844 144.68C82.8486 149.214 82.7718 157.819 82.7137 163.802C82.6556 169.786 82.6223 175.282 82.6397 176.017L82.6712 177.354L84.5941 176.411C86.8903 175.285 93.7444 171.901 103.074 167.286C106.927 165.38 109.892 163.857 109.892 163.784C109.892 163.713 110.024 161.993 110.184 159.963C110.345 157.932 110.59 154.698 110.729 152.776C110.868 150.854 111.178 146.756 111.419 143.67C111.659 140.584 111.884 137.505 111.92 136.828L111.985 135.597L109.588 132.644C108.27 131.019 106.17 128.431 104.921 126.892C103.673 125.353 102.608 124.084 102.555 124.072C102.502 124.06 101.595 124.599 100.539 125.271ZM59.4595 136.005C59.4309 136.052 59.1131 137.153 58.7532 138.452C58.3933 139.752 57.9263 141.435 57.7155 142.193C57.3512 143.503 55.6841 149.544 54.3058 154.548C53.9554 155.821 53.4962 157.482 53.2855 158.24C51.3438 165.225 50.8224 167.187 50.8912 167.249C50.9351 167.289 52.3223 167.766 53.9738 168.31C59.2922 170.062 77.889 176.205 79.7068 176.812C80.6755 177.134 81.521 177.378 81.5857 177.353C81.6752 177.319 81.719 175.161 81.7682 168.365C81.8037 163.446 81.883 154.292 81.9441 148.022C82.0053 141.752 82.0242 136.591 81.986 136.553C81.9196 136.487 78.3509 136.384 68.0025 136.15C65.4035 136.091 62.4297 136.015 61.3941 135.982C60.3585 135.949 59.4879 135.959 59.4595 136.005Z" fill="black"/>
</g>
<g id="Map_2">
<path id="background_2" d="M84.0882 82.2066L24.5769 60.3513V162.146L82.5131 180.408L134.296 155.648L189.279 172.975L191.79 77.4319L134.296 60.3513L84.0882 82.2066Z" fill="white"/>
<path id="outline_2" fill-rule="evenodd" clip-rule="evenodd" d="M134.011 54.1108C133.839 54.1646 132.053 54.9895 128.744 56.5443C124.43 58.5718 116.582 62.2584 113.239 63.8283C111.425 64.6801 108.867 65.8818 107.554 66.4986C106.241 67.1155 104.092 68.1247 102.779 68.7412C98.0165 70.977 90.4757 74.5186 87.3474 75.9889C85.5876 76.8158 83.9662 77.5739 83.7442 77.6733L83.3407 77.854L80.6431 76.8618C79.1595 76.316 77.6577 75.7675 77.3058 75.6429C76.9538 75.5183 75.071 74.8319 73.1218 74.1176C71.1725 73.4032 68.4258 72.3978 67.018 71.8832C65.6102 71.3687 63.5502 70.6155 62.4402 70.2093C59.7813 69.2365 58.1119 68.6259 54.9583 67.473C53.5234 66.9483 51.4412 66.1869 50.3312 65.7808C49.2212 65.3746 46.9176 64.5325 45.212 63.9096C43.5064 63.2867 41.4685 62.5416 40.6834 62.2541C39.8983 61.9665 37.8604 61.2217 36.1548 60.5989C34.4492 59.9762 32.1899 59.1496 31.134 58.7622C30.0782 58.3748 28.6605 57.855 27.9837 57.6072C26.0892 56.9135 26.2322 56.9197 25.0057 57.4779C24.4236 57.7428 23.7507 57.9891 23.5103 58.0251C23.27 58.0611 23.0011 58.1704 22.913 58.2678C22.7402 58.4586 22.7127 52.7074 23.3113 141.792C23.4137 157.031 23.4289 164.065 23.3595 164.134C23.2018 164.292 23.24 164.608 23.4605 164.97C23.6373 165.26 23.7004 165.294 23.9769 165.248C24.22 165.208 30.6131 167.301 51.9556 174.407C67.1706 179.473 80.1457 183.782 80.789 183.984C81.8769 184.325 81.9872 184.342 82.3642 184.225C82.5872 184.156 88.5509 181.222 95.617 177.704C102.683 174.187 114.301 168.405 121.434 164.856L134.404 158.403L137.235 159.387C139.861 160.299 145.038 162.09 158.968 166.904C162 167.952 165.455 169.148 166.647 169.562C169.219 170.455 177.505 173.319 185.844 176.196C189.147 177.335 191.926 178.314 192.02 178.369C192.114 178.425 192.286 178.471 192.401 178.471C192.595 178.471 193.601 177.885 193.981 177.551C194.199 177.358 194.233 176.765 194.359 170.94C194.698 155.281 194.888 146.991 195.195 134.367C195.384 126.597 195.629 116.164 195.738 111.182C195.848 106.201 196.093 95.7929 196.282 88.0535C196.471 80.3139 196.602 73.9094 196.574 73.8209C196.478 73.5158 195.919 73.2002 195.4 73.1577C195.126 73.1353 194.436 72.9689 193.867 72.7879C193.299 72.6071 191.748 72.1203 190.422 71.706C189.095 71.2918 187.545 70.8039 186.976 70.6218C186.407 70.4397 184.857 69.9525 183.53 69.5392C182.204 69.1259 180.653 68.6381 180.085 68.4553C179.516 68.2725 174.577 66.7223 169.108 65.0105C163.639 63.2987 158.633 61.7265 157.983 61.5166C157.334 61.3067 155.717 60.7969 154.39 60.3836C153.063 59.9703 151.513 59.4829 150.944 59.3005C150.376 59.1181 148.892 58.6526 147.646 58.2659C146.401 57.8792 144.85 57.3924 144.201 57.184C142.086 56.5057 134.857 54.2479 134.504 54.1551C134.314 54.1055 134.093 54.0855 134.011 54.1108ZM131.255 56.3607C129.82 57.0384 127.273 58.2371 125.594 59.0249C123.916 59.8127 121.457 60.9669 120.13 61.5899C118.804 62.2127 116.987 63.0653 116.094 63.4843C112.808 65.0255 107.724 67.4135 97.4382 72.2476C91.6446 74.9703 86.2399 77.506 85.4277 77.8823C84.6155 78.2586 83.8956 78.6119 83.8279 78.6673C83.7189 78.7566 83.6436 79.63 83.7449 79.63C83.8292 79.63 85.2901 78.9452 93.4019 75.1032C107.834 68.2676 114.789 64.9746 123.035 61.072C125.525 59.8932 128.952 58.2703 130.649 57.4657C132.346 56.661 133.797 56.0027 133.873 56.0027C133.971 56.0027 134.011 55.8748 134.011 55.5597C134.011 55.316 133.978 55.1194 133.938 55.1228C133.897 55.1261 132.69 55.6832 131.255 56.3607ZM134.7 55.5505V55.9959L135.857 56.3534C138.323 57.1151 146.474 59.6522 149.123 60.4824C150.043 60.7709 152.746 61.6111 155.128 62.3497C157.511 63.0881 159.859 63.8197 160.346 63.9752C160.833 64.1307 162.162 64.5456 163.299 64.8973C168.858 66.6162 169.673 66.8694 170.634 67.1767C171.202 67.3587 172.908 67.8895 174.424 68.3564C175.94 68.8235 177.646 69.3553 178.214 69.5383C178.783 69.7213 180.488 70.2531 182.004 70.7201C183.52 71.1871 185.16 71.6961 185.647 71.8512C186.134 72.0065 187.463 72.4222 188.6 72.7751C189.737 73.1282 191.529 73.6854 192.582 74.0135L194.496 74.6101L194.775 74.3427L195.054 74.0754L194.583 73.9412C194.325 73.8674 188.886 72.1676 182.497 70.1638C167.505 65.4621 167.64 65.5044 166.253 65.06C165.603 64.8519 164.053 64.3645 162.807 63.9769C161.562 63.5893 160.011 63.102 159.362 62.894C158.712 62.686 157.161 62.1987 155.916 61.8111C154.671 61.4235 153.12 60.9357 152.47 60.727C151.82 60.5183 150.203 60.0093 148.877 59.596C147.55 59.1827 146 58.695 145.431 58.5123C144.863 58.3295 142.249 57.5079 139.623 56.6865C136.997 55.8651 134.815 55.1732 134.774 55.149C134.734 55.1248 134.7 55.3055 134.7 55.5505ZM25.7194 58.2126C25.189 58.4905 24.9786 58.3687 27.6884 59.3527C28.7442 59.7362 30.0733 60.2222 30.6418 60.4328C31.2103 60.6434 32.5172 61.1236 33.546 61.5001C34.5748 61.8764 36.7677 62.681 38.4191 63.2881C40.0706 63.895 42.485 64.7802 43.7845 65.2551C49.0765 67.1892 55.3406 69.4866 55.7037 69.6266C55.9163 69.7086 61.2515 71.6661 67.5595 73.9766C81.492 79.0798 82.6248 79.4952 82.8434 79.5825C82.9934 79.6421 83.0157 79.5888 83.0157 79.1705V78.6898L79.9885 77.5866C78.3235 76.9797 75.9866 76.1243 74.7954 75.6856C73.6042 75.2469 72.0979 74.6965 71.4482 74.4623C70.7984 74.2282 68.9156 73.5411 67.2642 72.9354C65.6127 72.3297 63.1097 71.4132 61.7019 70.8987C58.5015 69.7291 55.5452 68.6475 53.6292 67.9451C52.817 67.6473 51.4437 67.1465 50.5774 66.8322C49.711 66.5178 47.651 65.7646 45.9996 65.1584C44.3481 64.552 41.6236 63.5551 39.9451 62.9427C38.2665 62.3304 36.0293 61.5118 34.9735 61.1236C33.9176 60.7354 32.5221 60.2256 31.8724 59.9906C31.2226 59.7557 29.7164 59.2055 28.5252 58.7679C27.334 58.3304 26.315 57.9742 26.2609 57.9765C26.2067 57.9787 25.9631 58.0849 25.7194 58.2126ZM131.385 64.2027L129.203 65.2007L129.148 66.0901C129.117 66.5793 129.003 71.6312 128.892 77.3165C128.782 83.0018 128.664 89.031 128.629 90.7148C128.583 92.9814 128.596 93.7942 128.68 93.8463C128.743 93.8849 128.794 94.0235 128.794 94.1542C128.794 94.3382 128.61 94.5272 127.981 94.9891C118.764 101.765 97.8188 116.9 97.6264 116.924C97.4863 116.942 97.2979 116.891 97.2081 116.812C97.1181 116.733 96.1806 116.328 95.1247 115.911C94.0689 115.495 92.0908 114.713 90.729 114.172L88.2528 113.19L85.6979 114.468L83.1429 115.746L83.0704 122.849C83.0305 126.755 83.0167 129.97 83.0398 129.993C83.063 130.017 84.8058 128.859 86.9128 127.421C89.0199 125.983 92.2834 123.757 94.1653 122.474C96.0471 121.191 99.0817 119.12 100.909 117.873C102.736 116.626 105.826 114.518 107.775 113.189C109.724 111.86 112.936 109.671 114.913 108.324C118.76 105.701 123.158 102.699 129.209 98.5668C131.282 97.1512 133.136 95.8996 133.331 95.7856L133.684 95.5782L133.751 79.4756C133.788 70.6191 133.792 63.3317 133.761 63.2812C133.73 63.2307 133.674 63.1928 133.636 63.197C133.599 63.2013 132.586 63.6538 131.385 64.2027ZM134.667 70.9337C134.631 74.9224 134.602 82.0387 134.602 86.7479V95.3099L135.02 95.2526C135.251 95.2211 136.812 95.0376 138.491 94.8448C140.169 94.6522 143.425 94.2735 145.727 94.0032C148.028 93.7331 151.439 93.3327 153.307 93.1135C155.175 92.8942 158.409 92.5188 160.494 92.2793C166.871 91.5466 169.959 91.1669 170.017 91.1084C170.134 90.9915 169.422 74.4399 169.295 74.3175C169.246 74.2704 167.013 73.559 164.333 72.7366C157.975 70.7858 149.963 68.3242 141.601 65.7526C137.898 64.6136 134.837 63.6816 134.8 63.6816C134.763 63.6816 134.703 66.945 134.667 70.9337ZM125.939 66.6796C123.923 67.6037 115.867 71.267 105.905 75.7889C103.793 76.7474 100.322 78.3236 98.1905 79.2917C95.3575 80.5786 94.2959 81.1053 94.2418 81.2514C94.2011 81.3614 94.1358 83.2233 94.0968 85.3892C94.0578 87.555 93.9253 93.4471 93.8025 98.4827C93.6796 103.518 93.5851 107.647 93.5924 107.658C93.5997 107.669 95.3319 106.471 97.4417 104.996C113.408 93.8317 113.042 94.093 113.042 93.8671C113.042 93.4216 114.033 81.6424 114.085 81.4761C114.114 81.3815 114.257 81.2758 114.402 81.2411C114.626 81.1878 117.617 79.591 123.182 76.5546C123.859 76.1852 124.647 75.7636 124.933 75.6175L125.454 75.352L125.394 74.316C125.361 73.7463 125.326 71.8847 125.317 70.1791L125.299 67.078H125.593C125.811 67.078 125.916 67.1415 125.999 67.3241C126.068 67.4779 126.153 68.9735 126.223 71.3112C126.285 73.3688 126.383 76.3218 126.441 77.8734C126.557 80.9869 126.542 81.1067 126.031 81.1067C125.652 81.1067 125.545 80.8403 125.545 79.8944C125.544 79.5053 125.515 78.5564 125.48 77.7856L125.416 76.3843L124.717 76.7654C124.333 76.975 122.978 77.7113 121.705 78.4016C116.008 81.4927 115.055 82.0154 114.973 82.0935C114.866 82.1958 114.826 82.6234 114.319 89.1302C114.034 92.7958 113.872 94.4107 113.777 94.5591C113.703 94.6754 110.771 96.7776 107.263 99.2307C103.754 101.684 99.2226 104.855 97.1921 106.277C93.3211 108.988 93.1146 109.1 92.8157 108.643C92.6579 108.403 92.6921 106.069 93.1131 88.3595C93.2003 84.687 93.2474 81.6578 93.2177 81.6281C93.1653 81.5756 90.3152 82.8294 90.1881 82.9608C90.1196 83.0316 90.0119 86.4342 89.7124 97.9904C89.4755 107.128 89.4094 109.014 89.3208 109.157C89.2825 109.219 87.8814 109.995 86.2073 110.881L83.1634 112.492L83.1355 113.584C83.1167 114.323 83.1424 114.677 83.2149 114.677C83.2737 114.677 84.3749 114.146 85.6618 113.496C86.9486 112.846 88.1008 112.314 88.2223 112.314C88.4745 112.314 89.094 112.548 93.9761 114.481C95.9163 115.249 97.5845 115.856 97.6832 115.83C97.7818 115.805 104.578 110.9 112.787 104.931L127.711 94.0777L127.711 93.4745C127.712 92.723 128.171 71.6391 128.261 68.1855C128.3 66.7296 128.291 65.6534 128.241 65.6572C128.193 65.6608 127.157 66.121 125.939 66.6796ZM29.4227 66.4259C29.404 66.4596 29.4233 69.6992 29.4656 73.6247C29.5079 77.5503 29.5746 83.8031 29.614 87.5197L29.6854 94.2772L31.608 96.5768C32.6656 97.8417 35.88 101.69 38.7512 105.128C41.6224 108.566 44.6404 112.177 45.4579 113.151C46.2753 114.126 48.6459 116.961 50.7258 119.452C52.8057 121.943 55.4933 125.159 56.6982 126.599L58.889 129.217L60.9353 129.285C62.0608 129.322 67.1239 129.506 72.1865 129.693C77.2492 129.881 81.552 130.035 81.7483 130.035L82.1053 130.035L82.1786 122.991C82.219 119.118 82.2236 115.92 82.1891 115.885C82.1299 115.826 77.4686 115.389 72.8264 115.008C70.8293 114.843 70.7515 114.829 70.5377 114.585C70.416 114.446 65.9521 109.194 60.6181 102.913C53.6852 94.7492 50.8935 91.3947 50.8275 91.1483C50.7382 90.8151 50.4291 78.8023 50.4295 75.6795C50.4296 74.5677 50.3955 74.1132 50.3066 74.0408C50.239 73.9856 49.807 73.8068 49.3468 73.6432C48.8865 73.4797 47.4689 72.9613 46.1964 72.4912C44.924 72.021 43.595 71.534 43.243 71.4089C42.8911 71.2839 41.562 70.798 40.2896 70.3294C38.1635 69.5465 34.9334 68.3636 31.0091 66.9311C30.1553 66.6194 29.4414 66.3921 29.4227 66.4259ZM51.3168 74.9718C51.3174 75.2867 51.3814 78.2247 51.459 81.5005C51.5366 84.7764 51.6137 88.2462 51.6302 89.2114L51.6603 90.9662L53.5178 93.1493C54.5394 94.3499 56.2029 96.307 57.2145 97.4982C67.2191 109.28 70.9529 113.669 71.0897 113.807C71.218 113.938 71.7281 114.014 73.5648 114.177C76.8502 114.469 81.7449 114.873 82.0066 114.874C82.224 114.874 82.2281 114.852 82.2281 113.699V112.524L81.8097 112.468C81.5796 112.437 79.4741 112.237 77.1307 112.023C74.7875 111.809 72.8258 111.606 72.7717 111.573C72.7175 111.539 72.6191 111.386 72.5529 111.232C72.4523 110.997 68.9993 106.853 59.3479 95.3845C58.5948 94.4896 57.339 92.993 56.5574 92.059C55.7759 91.125 55.0995 90.3608 55.0543 90.3608C55.0092 90.3608 54.9007 90.2891 54.813 90.2015C54.6678 90.0563 54.6598 89.4021 54.7225 82.8425L54.7912 75.6429L53.275 75.0883C51.0772 74.2846 51.3155 74.2988 51.3168 74.9718ZM170.311 75.3722C170.594 80.9622 170.995 91.4182 170.932 91.583C170.888 91.7003 170.791 91.8448 170.718 91.904C170.644 91.9632 169.765 92.1056 168.763 92.2206C167.762 92.3356 165.613 92.5855 163.989 92.7759C162.364 92.9663 159.33 93.3184 157.245 93.5583C153.239 94.0195 149.073 94.5067 142.921 95.2334C140.863 95.4766 138.161 95.7898 136.916 95.9296C135.671 96.0694 134.63 96.2064 134.603 96.2337C134.575 96.2612 134.539 97.587 134.523 99.1799C134.498 101.512 134.518 102.076 134.621 102.076C134.692 102.076 136.19 101.901 137.949 101.687C139.709 101.474 143.408 101.028 146.17 100.698C148.931 100.367 152.652 99.9201 154.439 99.7039C156.226 99.4876 158.795 99.1809 160.149 99.0223C161.503 98.8636 164.448 98.5111 166.693 98.239C171.445 97.6633 171.589 97.6555 171.708 97.968C171.783 98.1647 172.006 105.493 172.308 117.68C172.619 130.274 172.906 140.948 172.957 141.817L173.014 142.819L179.369 149.988C186.497 158.029 186.49 158.021 186.532 157.977C186.549 157.959 186.612 155.331 186.672 152.136L186.781 146.328L183.628 143.227C180.382 140.035 180.274 139.901 180.642 139.533C180.794 139.381 180.781 137.676 180.442 114.447C180.242 100.739 180.057 87.5304 180.03 85.0938C180.003 82.6573 179.955 79.9506 179.924 79.079L179.868 77.4942L178.623 77.1231C177.938 76.919 176.912 76.6058 176.344 76.4272C174.02 75.6973 170.437 74.6092 170.358 74.6092C170.311 74.6092 170.29 74.9525 170.311 75.3722ZM195.345 75.051L195.115 75.296L194.988 79.9488C194.919 82.5078 194.77 88.4337 194.658 93.1173C194.545 97.8009 194.278 108.256 194.064 116.351C193.851 124.446 193.63 132.996 193.574 135.351C193.356 144.532 192.629 172.498 192.531 175.444C192.495 176.513 192.494 177.388 192.528 177.388C192.562 177.388 192.741 177.289 192.926 177.168L193.261 176.949L193.315 175.962C193.345 175.42 193.395 173.625 193.425 171.974C193.455 170.322 193.656 161.683 193.87 152.776C194.084 143.869 194.348 132.55 194.457 127.623C194.566 122.696 194.789 113.171 194.951 106.457C195.595 79.9025 195.703 74.8061 195.622 74.8061C195.596 74.8061 195.472 74.9164 195.345 75.051ZM55.6037 82.7186L55.5314 89.4497L57.9767 92.3513C59.3216 93.9471 63.3626 98.7534 66.9566 103.032L73.491 110.811L75.3246 110.98C80.3874 111.446 82.2514 111.58 82.2798 111.482C82.3519 111.232 82.5241 85.892 82.4541 85.8242C82.4111 85.7826 78.7874 84.4349 74.4016 82.8295C70.0158 81.2241 65.9622 79.7392 65.3937 79.5297C64.8251 79.3202 63.9391 78.9938 63.4247 78.8042C61.3879 78.0539 55.72 75.9875 55.6987 75.9875C55.6862 75.9875 55.6434 79.0165 55.6037 82.7186ZM180.848 77.9318C180.829 77.9724 180.867 81.6383 180.934 86.0783C181.001 90.5183 181.125 99.3121 181.209 105.62C181.293 111.928 181.433 122.228 181.521 128.509L181.682 139.929L184.201 142.46C185.587 143.852 186.734 144.978 186.75 144.962C186.812 144.901 187.768 91.9767 187.885 82.1443L187.911 79.9824L184.466 78.9205C182.57 78.3365 180.989 77.8585 180.952 77.8583C180.914 77.8582 180.868 77.8912 180.848 77.9318ZM86.3137 84.6896L83.4587 85.9923L83.3982 89.1364C83.3649 90.8656 83.3038 96.5958 83.2623 101.87L83.1869 111.46L84.2089 110.915C84.7709 110.616 85.9728 109.985 86.8798 109.513L88.5288 108.655V108.049C88.5288 107.716 88.6854 102.127 88.877 95.629C89.0684 89.1308 89.2124 83.7179 89.1969 83.6006C89.1706 83.402 88.9685 83.4784 86.3137 84.6896ZM29.7558 99.053V102.232L32.3892 105.332C35.6549 109.177 40.1891 114.508 41.9704 116.597C53.2968 129.881 55.3644 132.351 55.3168 132.542C55.2892 132.652 54.7364 134.448 54.0882 136.533C53.4401 138.617 52.1497 142.804 51.2208 145.836C50.2919 148.868 49.2716 152.191 48.9537 153.219C48.3902 155.042 46.431 161.435 45.7406 163.704C45.5512 164.327 45.3149 164.95 45.2154 165.09L45.0346 165.343L47.363 166.114C48.6436 166.538 49.7524 166.889 49.827 166.894C49.9206 166.901 50.0928 166.43 50.3816 165.378C51.209 162.364 52.0058 159.474 52.7431 156.813C53.1557 155.324 53.6208 153.64 53.7769 153.072C53.9329 152.503 54.3981 150.82 54.8107 149.331C55.2233 147.842 55.8018 145.748 56.0963 144.679C56.3909 143.61 56.873 141.86 57.1676 140.79C57.4623 139.721 57.9038 138.117 58.1487 137.227C58.5154 135.894 58.6455 135.556 58.8839 135.318L59.1737 135.028L69.7411 135.287C75.5531 135.429 80.6912 135.565 81.159 135.589L82.0097 135.632L82.0818 133.322C82.1215 132.051 82.1372 130.994 82.1165 130.973C82.0789 130.936 77.5354 130.766 63.278 130.27C59.0284 130.123 58.8341 130.108 58.4843 129.899C58.041 129.635 58.3099 129.944 53.0858 123.685C49.0671 118.87 47.3604 116.828 41.323 109.607C39.9647 107.983 36.8269 104.228 34.35 101.264C31.8731 98.2994 29.8261 95.8738 29.8011 95.8738C29.7761 95.8738 29.7558 97.3044 29.7558 99.053ZM130.931 98.4581C129.486 99.4462 127.65 100.7 126.85 101.245C126.051 101.79 120.081 105.862 113.584 110.294C94.6481 123.212 93.473 124.013 92.0236 125C91.2656 125.516 89.4714 126.741 88.0365 127.722C86.6017 128.703 84.8849 129.872 84.2217 130.32L83.0157 131.135V133.195V135.254L83.8279 134.747C85.3508 133.795 91.037 130.213 91.7775 129.739C94.8711 127.758 102.035 123.281 102.377 123.115L102.8 122.909L103.057 123.149C103.3 123.377 104.36 124.672 110.405 132.134C111.801 133.858 112.944 135.342 112.943 135.432C112.943 135.523 112.811 137.259 112.65 139.289C112.489 141.32 112.203 145.085 112.014 147.657C111.825 150.229 111.515 154.305 111.327 156.714C110.916 161.95 110.826 163.409 110.912 163.409C110.962 163.409 115.701 161.067 115.765 161.01C115.785 160.992 116.16 155.025 116.291 152.629C116.38 151.001 117.297 135.963 117.408 134.298C117.438 133.847 117.408 133.629 117.291 133.461C117.205 133.337 116.295 132.193 115.27 130.921C111.717 126.51 110.719 125.272 108.776 122.863C107.703 121.532 106.783 120.367 106.734 120.274C106.598 120.02 106.725 119.809 107.145 119.595C107.494 119.416 109.362 118.239 117.915 112.806C119.648 111.706 121.16 110.786 121.275 110.763C121.391 110.74 121.594 110.78 121.726 110.853C121.859 110.926 124.555 113.701 127.719 117.021L133.47 123.057L133.532 121.697C133.566 120.95 133.599 119.618 133.606 118.739L133.618 117.14L130.689 113.775C129.078 111.925 127.326 109.91 126.794 109.298C125.845 108.204 125.599 107.737 125.812 107.427C125.961 107.211 133.261 102.371 133.438 102.371C133.606 102.371 133.618 102.241 133.618 100.418C133.618 99.3429 133.646 98.0582 133.682 97.5626C133.72 97.0168 133.709 96.6614 133.652 96.6614C133.601 96.6614 132.377 97.4699 130.931 98.4581ZM167.926 98.9821C164.403 99.4149 154.824 100.567 147.105 101.487C144.858 101.754 141.934 102.105 140.607 102.266C139.281 102.426 137.365 102.655 136.349 102.775L134.504 102.992V109.768V116.543L134.725 116.448C134.928 116.362 138.275 116.106 144.398 115.711C145.697 115.627 148.599 115.427 150.846 115.265C160.312 114.585 160.587 114.571 160.903 114.734C161.061 114.816 161.232 114.981 161.282 115.1C161.332 115.22 161.462 120.766 161.572 127.426C161.682 134.086 161.8 140.768 161.836 142.274L161.9 145.013L164.178 147.492C165.43 148.855 170.203 154.046 174.784 159.028L183.112 168.085L184.626 168.566C185.458 168.831 186.189 169.066 186.251 169.087C186.332 169.116 186.379 168.24 186.422 165.899C186.455 164.123 186.503 161.951 186.528 161.071L186.575 159.472L184.24 156.838C181.333 153.559 178.109 149.925 174.872 146.279C173.502 144.736 172.321 143.383 172.248 143.272C172.158 143.136 172.096 142.58 172.058 141.549C171.966 139.068 170.93 100.022 170.929 98.9995C170.929 98.7088 170.892 98.633 170.757 98.6429C170.662 98.6499 169.388 98.8025 167.926 98.9821ZM130.164 105.534C128.3 106.786 126.763 107.821 126.748 107.834C126.733 107.847 127.796 109.095 129.111 110.609C130.425 112.122 131.944 113.875 132.485 114.503C133.027 115.132 133.503 115.65 133.544 115.654C133.584 115.658 133.618 112.871 133.618 109.46C133.618 106.048 133.603 103.257 133.585 103.257C133.567 103.257 132.027 104.282 130.164 105.534ZM29.8893 110.567C29.9729 118.931 30.3138 148.724 30.4033 155.494L30.4698 160.525L36.7825 162.623C40.2546 163.777 43.4166 164.821 43.8091 164.943L44.5228 165.165V164.89C44.5228 164.627 44.8957 163.299 45.505 161.39C45.6605 160.903 46.3493 158.666 47.0357 156.419C47.722 154.172 48.7398 150.849 49.2974 149.035C49.8551 147.221 51.1379 143.035 52.1482 139.732C53.1583 136.429 54.0701 133.466 54.1741 133.148L54.3633 132.569L54.144 132.308C54.0233 132.165 52.9499 130.901 51.7587 129.5C50.5675 128.098 49.172 126.456 48.6576 125.85C48.1432 125.244 46.5948 123.423 45.2165 121.805C43.8383 120.186 39.8373 115.483 36.3253 111.355C32.8134 107.226 29.9135 103.848 29.8811 103.848C29.8486 103.848 29.8523 106.872 29.8893 110.567ZM120.623 112.162C120.011 112.571 119.352 112.991 114.666 115.955C108.798 119.668 107.923 120.245 107.969 120.366C107.996 120.436 108.903 121.588 109.983 122.926C116.996 131.607 118.358 133.322 118.358 133.472C118.358 133.565 118.226 135.742 118.065 138.311C117.904 140.879 117.704 144.199 117.62 145.688C117.416 149.299 116.803 159.288 116.745 159.938C116.72 160.223 116.737 160.455 116.784 160.455C116.9 160.455 119.19 159.34 126.669 155.642C130.185 153.903 133.134 152.481 133.225 152.481C133.375 152.481 133.394 151.946 133.454 145.91C133.49 142.295 133.519 135.976 133.519 131.866L133.519 124.393L132.608 123.448C132.107 122.929 129.395 120.089 126.582 117.138C123.77 114.187 121.422 111.764 121.365 111.753C121.309 111.743 120.975 111.926 120.623 112.162ZM160.1 115.528C159.965 115.547 157.794 115.696 155.276 115.86C152.758 116.024 148.572 116.312 145.973 116.499C138.361 117.046 135.063 117.253 134.788 117.199L134.531 117.149L134.459 120.206C134.419 121.887 134.424 123.299 134.47 123.343C134.515 123.387 137.144 123.23 140.312 122.993C149.914 122.275 152.854 122.077 153.133 122.13C153.28 122.158 153.451 122.244 153.515 122.32C153.632 122.461 153.883 127.142 154.439 139.584C154.82 148.09 155.353 158.99 155.391 159.026C155.409 159.044 158.791 160.151 162.906 161.486C169.086 163.492 177.093 166.098 180.454 167.198C180.846 167.326 181.167 167.401 181.166 167.364C181.166 167.327 180.269 166.32 179.173 165.126C178.077 163.932 173.709 159.169 169.467 154.543C165.224 149.916 161.582 145.976 161.373 145.787L160.993 145.442L160.889 139.191C160.832 135.752 160.719 129.24 160.64 124.719C160.56 120.198 160.494 116.266 160.494 115.982C160.494 115.697 160.46 115.471 160.42 115.48C160.379 115.488 160.235 115.51 160.1 115.528ZM148.286 123.291C145.985 123.469 142.109 123.754 139.672 123.924C137.236 124.094 135.054 124.259 134.824 124.29L134.405 124.347L134.405 134.452C134.405 140.009 134.376 146.317 134.34 148.469L134.275 152.383H134.591C134.764 152.383 139.275 153.801 144.614 155.534C149.953 157.268 154.343 158.665 154.369 158.639C154.426 158.581 154.213 153.578 153.701 142.981C153.489 138.595 153.222 132.858 153.108 130.232C152.798 123.11 152.791 123.001 152.618 122.983C152.537 122.974 150.587 123.113 148.286 123.291ZM100.539 125.271C99.4835 125.943 97.8886 126.952 96.9952 127.514C96.1018 128.076 94.8835 128.844 94.2879 129.221C92.0195 130.655 86.6363 134.047 84.9847 135.082C84.0371 135.676 83.1915 136.224 83.1057 136.299C82.9664 136.421 82.9424 137.327 82.8844 144.68C82.8486 149.214 82.7718 157.819 82.7137 163.802C82.6556 169.786 82.6223 175.282 82.6397 176.017L82.6712 177.354L84.5941 176.411C86.8903 175.285 93.7444 171.901 103.074 167.286C106.927 165.38 109.892 163.857 109.892 163.784C109.892 163.713 110.024 161.993 110.184 159.963C110.345 157.932 110.59 154.698 110.729 152.776C110.868 150.854 111.178 146.756 111.419 143.67C111.659 140.584 111.884 137.505 111.92 136.828L111.985 135.597L109.588 132.644C108.27 131.019 106.17 128.431 104.921 126.892C103.673 125.353 102.608 124.084 102.555 124.072C102.502 124.06 101.595 124.599 100.539 125.271ZM59.4595 136.005C59.4309 136.052 59.1131 137.153 58.7532 138.452C58.3933 139.752 57.9263 141.435 57.7155 142.193C57.3512 143.503 55.6841 149.544 54.3058 154.548C53.9554 155.821 53.4962 157.482 53.2855 158.24C51.3438 165.225 50.8224 167.187 50.8912 167.249C50.9351 167.289 52.3223 167.766 53.9738 168.31C59.2922 170.062 77.889 176.205 79.7068 176.812C80.6755 177.134 81.521 177.378 81.5857 177.353C81.6752 177.319 81.719 175.161 81.7682 168.365C81.8037 163.446 81.883 154.292 81.9441 148.022C82.0053 141.752 82.0242 136.591 81.986 136.553C81.9196 136.487 78.3509 136.384 68.0025 136.15C65.4035 136.091 62.4297 136.015 61.3941 135.982C60.3585 135.949 59.4879 135.959 59.4595 136.005Z" fill="#1237BF"/>
</g>
<g id="Truck">
<g id="wheels">
<path d="M108.755 118.379C110.606 117.315 110.117 114.654 109.641 113.456C108.223 111.763 107.114 114.326 106.737 115.819C106.638 117.115 106.904 119.442 108.755 118.379Z" fill="#F9A33F"/>
<path d="M120.569 107.746L123.227 106.023C123.227 108.682 122.784 110.257 121.848 110.454C121.1 110.611 120.683 108.714 120.569 107.746Z" fill="#F9A33F"/>
</g>
<path id="cabin" d="M102.898 118.772L93.3488 116.016V110.995L97.8282 106.91L100.043 101.593L103.981 99.3291L113.727 100.609V111.389L110.725 113.555L108.608 112.964L105.212 116.705L102.898 118.772Z" fill="#F9A33F"/>
<path id="Vector 2" d="M113.678 100.51V110.257H116.68L126.18 103.759L124.851 92.1422L115.794 91.6992L105.162 97.6061L105.506 99.6734L113.678 100.51Z" fill="#F9A33F"/>
<path id="outline_3" fill-rule="evenodd" clip-rule="evenodd" d="M115.671 91.2946C115.295 91.4099 114.452 91.8493 110.601 93.9353C105.026 96.9556 104.867 97.0524 104.731 97.5061C104.644 97.7954 104.644 98.0258 104.729 98.4506C104.791 98.7596 104.842 99.0516 104.842 99.0993C104.842 99.1472 104.587 99.1589 104.276 99.1255L103.71 99.0647L102.036 99.9969C99.6227 101.341 99.7351 101.217 98.7134 103.675C98.2418 104.809 97.7777 105.95 97.6819 106.211C97.5322 106.618 97.281 106.886 95.8835 108.133C94.9901 108.93 93.964 109.866 93.6034 110.212L92.9475 110.842L92.8825 112.024C92.7555 114.333 92.7781 116.197 92.9348 116.349C93.0135 116.425 95.2395 117.091 97.8818 117.829C103.361 119.359 103 119.322 103.91 118.453C104.461 117.927 104.546 117.897 104.715 118.167C104.965 118.567 106.736 119.163 107.667 119.16C108.45 119.158 108.78 119.044 109.268 118.605C110.262 117.711 110.61 116.725 110.521 115.055L110.461 113.95L110.743 114.006C110.988 114.055 111.212 113.917 112.487 112.93C114.265 111.553 114.376 111.441 114.215 111.183C114.15 111.078 114.096 110.948 114.096 110.893C114.096 110.83 114.596 110.793 115.436 110.793H116.775L117.725 110.131C118.247 109.767 118.692 109.477 118.714 109.486C118.737 109.495 118.81 109.664 118.878 109.862C119.024 110.285 119.346 110.653 119.757 110.867C120.202 111.099 122.036 111.099 122.39 110.868C123.378 110.221 123.894 108.806 123.821 106.947L123.78 105.907L124.963 105.126C126.62 104.032 126.697 103.96 126.697 103.512C126.697 102.85 125.417 91.976 125.317 91.789C125.192 91.5549 125.025 91.5366 121.332 91.3523C118.098 91.1909 116.077 91.1704 115.671 91.2946ZM113.998 93.2266C109.098 95.8564 107.308 96.8573 107.377 96.9269C107.469 97.019 116.896 97.0565 117.043 96.9653C117.103 96.9288 117.892 96.3588 118.798 95.699C119.705 95.039 121.077 94.0596 121.848 93.5226C122.619 92.9857 123.236 92.5322 123.219 92.515C123.202 92.4976 121.906 92.4181 120.34 92.3382C118.774 92.2581 117.183 92.1696 116.804 92.1416L116.114 92.0905L113.998 93.2266ZM123.006 93.9305C121.347 95.0721 117.93 97.5311 117.56 97.8487L117.296 98.0764L117.134 103.721C117.045 106.826 116.981 109.376 116.993 109.389C117.004 109.401 117.808 108.851 118.779 108.166C119.75 107.481 121.689 106.148 123.087 105.203C124.485 104.259 125.651 103.43 125.677 103.361C125.721 103.247 124.695 93.8724 124.57 93.2451C124.54 93.0962 124.486 92.976 124.45 92.9781C124.414 92.9801 123.764 93.4088 123.006 93.9305ZM105.728 98.1606C105.728 98.2923 105.778 98.597 105.838 98.8375C105.929 99.1979 105.989 99.275 106.177 99.275C107.215 99.275 113.76 99.9352 114.001 100.064C114.099 100.117 114.204 100.322 114.238 100.529C114.272 100.733 114.254 102.738 114.199 104.985C114.144 107.232 114.098 109.237 114.098 109.44L114.096 109.809H115.031C115.546 109.809 115.969 109.798 115.973 109.784C116.023 109.575 116.319 98.1248 116.275 98.0805C116.241 98.0462 113.854 97.9963 110.971 97.9695L105.728 97.921V98.1606ZM102.734 100.601C102.089 100.951 101.515 101.283 101.459 101.339C101.389 101.409 101.524 101.441 101.894 101.442C102.189 101.442 104.003 101.507 105.925 101.585C107.847 101.664 109.754 101.739 110.163 101.752C110.9 101.776 110.913 101.772 111.664 101.296C112.388 100.838 112.569 100.654 112.3 100.652C112.232 100.652 111.246 100.564 110.109 100.458C108.096 100.269 104.351 99.9637 104.055 99.9645C103.973 99.9647 103.379 100.251 102.734 100.601ZM112.229 101.962L111.198 102.671L110.583 104.05C110.245 104.808 109.579 106.372 109.103 107.525L108.239 109.623L106.614 111.082C105.721 111.884 104.87 112.645 104.723 112.774C104.491 112.978 104.404 113.236 104.061 114.758C103.677 116.46 103.67 116.516 103.83 116.852L103.994 117.196L104.418 116.78C104.651 116.551 104.843 116.295 104.843 116.212C104.846 115.881 105.432 114.399 105.814 113.756C106.962 111.825 108.514 110.977 109.818 111.569C110.219 111.751 110.687 112.224 110.875 112.636C110.932 112.76 111.026 112.86 111.085 112.859C111.144 112.858 111.635 112.512 112.177 112.091L113.161 111.325L113.222 110.05C113.335 107.678 113.422 101.244 113.34 101.249C113.296 101.251 112.796 101.572 112.229 101.962ZM100.238 102.353C100.116 102.506 99.1984 104.68 98.6405 106.139L98.2178 107.245L97.2722 108.059C96.7521 108.506 95.8892 109.27 95.3546 109.755C94.5337 110.5 94.4114 110.648 94.5671 110.711C94.6685 110.751 95.3494 110.873 96.0804 110.982C96.8114 111.091 98.6942 111.383 100.264 111.631C101.835 111.88 103.341 112.108 103.612 112.138L104.104 112.193L105.679 110.77C106.545 109.988 107.327 109.263 107.416 109.16C107.505 109.057 107.823 108.374 108.122 107.643C108.422 106.912 109.006 105.539 109.42 104.591C109.834 103.644 110.195 102.818 110.221 102.757C110.287 102.605 109.456 102.545 105.581 102.427C103.794 102.373 101.883 102.307 101.333 102.28C100.61 102.245 100.308 102.265 100.238 102.353ZM111.493 103.533C111.137 103.89 110.733 104.99 110.308 106.757C109.951 108.244 109.989 108.529 110.542 108.529C110.826 108.529 112.574 107.411 112.666 107.171C112.7 107.083 112.776 106.539 112.834 105.963C112.97 104.626 112.846 103.763 112.469 103.434C112.121 103.131 111.869 103.156 111.493 103.533ZM100.43 103.51C100.215 103.642 100.027 103.886 99.8795 104.224C99.4438 105.224 98.7266 107.458 98.757 107.721C98.7988 108.084 99.3334 108.325 100.954 108.711C102.817 109.155 103.866 109.317 104.88 109.316C106.473 109.316 106.691 109.04 108.053 105.3C108.447 104.218 108.461 104 108.159 103.649L107.932 103.385L104.344 103.347C100.873 103.31 100.746 103.316 100.43 103.51ZM122.628 106.724C122.592 106.76 122.563 107.084 122.563 107.443C122.563 108.138 122.464 108.332 122.112 108.332C121.843 108.332 121.696 108.158 121.613 107.742C121.553 107.441 121.538 107.43 121.415 107.598C121.215 107.872 121.241 109.183 121.455 109.612C121.686 110.074 121.941 110.059 122.285 109.563C122.632 109.061 122.858 108.181 122.858 107.327C122.858 106.711 122.798 106.554 122.628 106.724ZM93.7844 111.547C93.7132 111.618 93.6889 113.747 93.7593 113.747C93.7822 113.747 95.8281 114.257 98.3056 114.881C100.783 115.505 102.84 115.981 102.877 115.939C103.003 115.797 103.573 113.128 103.494 113.053C103.45 113.012 101.399 112.664 98.9354 112.279C96.4717 111.895 94.3199 111.558 94.1536 111.53C93.9873 111.503 93.8212 111.51 93.7844 111.547ZM109.666 112.546C109.666 112.589 109.71 112.668 109.763 112.721C109.816 112.774 109.947 112.993 110.054 113.208C110.161 113.423 110.251 113.536 110.253 113.46C110.255 113.384 110.144 113.129 110.007 112.894C109.765 112.481 109.666 112.38 109.666 112.546ZM108.201 114.289C107.668 114.771 107.379 115.486 107.325 116.455C107.275 117.361 107.428 117.863 107.837 118.132C108.053 118.273 108.137 118.28 108.387 118.176C109.091 117.885 109.65 116.877 109.738 115.742C109.859 114.175 109.111 113.468 108.201 114.289ZM93.7177 115.262V115.774L95.7112 116.331C96.8077 116.637 98.7419 117.18 100.01 117.536C101.277 117.893 102.347 118.15 102.387 118.107C102.454 118.034 102.684 117.069 102.643 117.028C102.603 116.988 98.6097 115.967 97.0785 115.605C96.1926 115.396 95.1737 115.141 94.8143 115.038C93.6261 114.698 93.7177 114.679 93.7177 115.262ZM108.217 115.521C107.928 115.637 107.823 116.072 108.005 116.398C108.201 116.748 108.701 116.797 108.918 116.487C109.127 116.188 109.117 115.784 108.895 115.583C108.696 115.403 108.544 115.389 108.217 115.521Z" fill="black"/>
</g>
<g id="Laptop">
<path id="Vector 3" d="M225.754 191.335L131.392 194.042L137.742 183.656L138.677 127.591H217.386V181.835L225.754 191.335Z" fill="white"/>
<path id="outline_4" fill-rule="evenodd" clip-rule="evenodd" d="M188.77 125.915C188.756 125.926 177.271 125.964 163.247 125.999C136.794 126.066 137.269 126.058 136.885 126.442C136.797 126.53 136.749 127.632 136.703 130.618C136.668 132.848 136.592 136.822 136.533 139.448C136.222 153.268 136.053 161.204 135.926 167.998C135.873 170.841 135.786 174.717 135.733 176.612C135.679 178.507 135.635 181.081 135.634 182.331L135.633 184.604L134.162 186.466C133.352 187.49 132.023 189.169 131.209 190.198C129.757 192.031 129.552 192.393 129.818 192.664C129.927 192.776 130.217 194.287 130.289 195.12C130.317 195.445 130.389 195.771 130.448 195.845C130.534 195.952 130.89 195.966 132.282 195.917C134.139 195.85 139.532 195.722 140.26 195.727C140.504 195.728 141.545 195.693 142.574 195.649C144.262 195.577 149.495 195.448 151.877 195.42C154.054 195.394 165.363 195.099 167.431 195.014C168.325 194.977 169.565 194.934 170.188 194.919C172.435 194.864 175.881 194.769 177.424 194.719C180.298 194.627 181.632 194.592 184.364 194.537C185.853 194.507 188.888 194.436 191.108 194.38C193.328 194.324 200.394 194.146 206.81 193.986C226.09 193.502 226.84 193.48 226.951 193.389C227.25 193.145 227.319 192.532 227.22 190.992C227.121 189.45 227.056 189.219 226.683 189.079C226.59 189.045 224.988 187.743 223.122 186.187C220.815 184.262 219.719 183.286 219.694 183.135C219.656 182.905 219.728 162.982 219.85 139.636C219.916 127.052 219.91 126.178 219.753 126.022C219.597 125.865 218.569 125.856 204.19 125.875C195.722 125.887 188.783 125.905 188.77 125.915ZM202.676 129.379C202.54 129.391 196.382 129.448 188.991 129.504C181.6 129.561 170.725 129.65 164.823 129.701C158.921 129.752 150.971 129.819 147.156 129.85C143.341 129.881 140.2 129.926 140.175 129.951C140.104 130.022 139.869 147.515 139.672 167.358C139.619 172.773 139.555 178.235 139.53 179.497C139.491 181.481 139.505 181.799 139.633 181.849C139.715 181.88 143.799 181.81 148.709 181.694C157.71 181.48 168.906 181.219 180.869 180.945C184.443 180.863 189.139 180.752 191.305 180.698C194.948 180.608 197.271 180.56 203.069 180.455C210.244 180.324 215.928 180.168 216.005 180.099C216.089 180.023 216.544 141.038 216.552 133.117L216.557 129.295L209.739 129.326C205.989 129.344 202.811 129.367 202.676 129.379ZM147.29 135.976L146.986 136.258L146.923 137.632C146.863 138.958 146.807 152.9 146.807 166.596C146.807 174.167 146.922 173.387 145.818 173.268C145.229 173.205 145.188 173.215 145.035 173.448C144.794 173.815 144.923 174.99 145.242 175.334C145.468 175.578 145.496 175.582 146.583 175.54C147.193 175.516 151.215 175.359 155.519 175.192C163.225 174.892 170.956 174.578 175.11 174.396C176.274 174.345 180.815 174.168 185.201 174.003C189.587 173.838 194.792 173.634 196.769 173.551C198.745 173.468 200.805 173.381 201.347 173.358C201.888 173.335 203.834 173.256 205.671 173.181C209.547 173.024 209.273 173.117 209.455 171.895C209.609 170.86 209.52 170.656 208.914 170.656H208.454L208.517 167.678C208.58 164.719 208.718 155.373 208.868 143.977C208.951 137.686 208.943 137.528 208.512 137.298C208.411 137.243 207.636 137.167 206.791 137.128L205.254 137.058L204.998 137.314L204.743 137.569L204.741 139.813C204.737 145.333 204.363 170.759 204.285 170.847C204.211 170.93 201.838 171.039 201.761 170.963C201.719 170.92 201.663 164.506 201.638 156.709C201.592 142.614 201.593 142.531 201.789 142.353C202.043 142.124 202.04 141.86 201.784 141.68C201.616 141.563 201.164 141.545 199.201 141.579C197.893 141.602 196.787 141.655 196.743 141.699C196.7 141.742 196.641 144.277 196.612 147.332L196.559 152.886L196.319 153.067C196.015 153.296 196.013 153.61 196.315 153.867L196.551 154.068L196.453 162.584C196.4 167.267 196.327 171.13 196.292 171.168C196.216 171.249 189.377 171.536 189.248 171.464C189.197 171.435 189.19 167.858 189.233 162.842C189.303 154.568 189.312 154.266 189.493 154.139C189.739 153.967 189.733 153.561 189.484 153.405C189.292 153.285 189.287 153.175 189.285 149.294C189.284 147.101 189.251 145.257 189.211 145.197C189.172 145.137 188.993 145.013 188.815 144.922C188.533 144.777 188.282 144.764 186.847 144.823C185.05 144.896 184.706 144.988 184.596 145.426C184.56 145.571 184.558 147.492 184.592 149.694C184.625 151.896 184.625 153.725 184.592 153.759C184.558 153.792 184.473 153.773 184.404 153.715C184.335 153.658 184.153 153.625 184.001 153.642C183.778 153.668 183.718 153.729 183.692 153.959C183.643 154.391 184.087 154.577 184.407 154.258C184.492 154.173 184.563 154.139 184.564 154.184C184.685 157.392 184.722 171.52 184.61 171.626C184.556 171.678 183.445 171.753 182.141 171.791L179.77 171.862L179.704 166.813C179.668 164.036 179.639 160.209 179.639 158.309C179.639 154.96 179.645 154.85 179.836 154.731C180.056 154.593 180.099 154.193 179.91 154.045C179.644 153.838 178.949 153.769 177.768 153.834C177.092 153.871 176.28 153.906 175.964 153.911C175.462 153.919 175.353 153.958 175.088 154.222L174.786 154.524L174.849 155.576C174.913 156.657 175.061 166.876 175.061 170.213V172.084L173.929 172.145C173.306 172.179 172.022 172.223 171.074 172.244L169.351 172.281L169.328 165.34C169.315 161.523 169.337 155.188 169.377 151.262C169.459 143.185 169.42 140.313 169.223 140.118C169.124 140.019 168.6 139.996 166.923 140.017C165.728 140.032 164.671 140.087 164.574 140.139C164.477 140.191 164.302 140.387 164.186 140.575C163.98 140.908 163.977 140.979 164.031 143.603C164.062 145.081 164.107 148.904 164.131 152.099C164.156 155.294 164.206 161.192 164.244 165.206L164.312 172.505L163.041 172.566C162.342 172.599 161.427 172.644 161.008 172.666C160.588 172.687 160.224 172.672 160.199 172.631C160.15 172.551 159.991 161.055 159.901 151.002L159.844 144.687L160.266 144.554C160.609 144.445 160.694 144.371 160.718 144.155C160.755 143.841 160.356 143.517 160.073 143.631C159.978 143.67 158.955 143.73 157.8 143.765C155.878 143.824 155.688 143.845 155.561 144.02C155.418 144.216 155.421 150.515 155.571 166.728C155.604 170.212 155.588 172.494 155.53 172.646C155.437 172.89 155.429 172.892 153.878 172.945C153.021 172.974 152.298 172.977 152.271 172.951C152.244 172.925 152.219 171.523 152.216 169.836C152.203 162.104 152.044 139.981 151.988 138.177L151.926 136.167L151.581 135.967C151.277 135.791 151.025 135.763 149.416 135.73L147.594 135.693L147.29 135.976ZM147.903 138.784C147.871 139.935 147.821 148.089 147.792 156.905C147.762 165.721 147.728 172.986 147.715 173.05C147.698 173.137 148.096 173.16 149.268 173.139C150.134 173.124 150.942 173.09 151.063 173.064L151.283 173.016L151.24 167.332C151.216 164.206 151.167 156.111 151.132 149.342C151.095 142.088 151.031 136.966 150.977 136.864C150.896 136.712 150.715 136.692 149.423 136.692H147.961L147.903 138.784ZM205.787 138.181C205.763 138.255 205.717 140.93 205.683 144.125C205.65 147.319 205.582 152.37 205.532 155.348C205.483 158.326 205.41 163.038 205.372 165.82L205.302 170.879L206.376 170.807C206.967 170.767 207.462 170.724 207.476 170.711C207.49 170.698 207.547 167.679 207.604 164.002C207.868 146.852 207.969 138.311 207.909 138.251C207.873 138.214 207.391 138.153 206.837 138.115C206.022 138.058 205.821 138.071 205.787 138.181ZM166.183 140.997L164.983 141.029L165.026 145.137C165.05 147.396 165.118 154.449 165.178 160.811C165.238 167.174 165.306 172.399 165.329 172.424C165.426 172.526 168.076 172.41 168.183 172.298C168.265 172.213 168.316 168.143 168.375 157.169C168.419 148.912 168.457 141.89 168.46 141.565L168.465 140.974L167.924 140.969C167.626 140.966 166.842 140.978 166.183 140.997ZM188.205 141.958C188.047 142.148 188.153 142.563 188.375 142.62C188.618 142.683 188.78 142.613 188.898 142.393C189.124 141.97 188.513 141.586 188.205 141.958ZM194.508 142.101C194.346 142.403 194.543 142.718 194.87 142.678C195.2 142.639 195.38 142.367 195.232 142.131C195.071 141.873 194.639 141.854 194.508 142.101ZM184.879 142.161C184.565 142.381 184.584 142.84 184.917 143.058C185.148 143.209 185.202 143.212 185.434 143.082C185.791 142.883 185.843 142.385 185.529 142.165C185.25 141.969 185.153 141.969 184.879 142.161ZM191.115 142.163C190.917 142.361 190.92 142.429 191.146 142.707C191.309 142.909 191.361 142.922 191.589 142.819C191.759 142.741 191.846 142.624 191.846 142.473C191.846 142.038 191.42 141.858 191.115 142.163ZM182.514 142.323C182.334 142.502 182.372 142.842 182.593 143.042C182.756 143.19 182.833 143.201 183.036 143.109C183.475 142.909 183.321 142.205 182.838 142.205C182.725 142.205 182.579 142.258 182.514 142.323ZM179.068 142.52C178.789 142.799 179.043 143.386 179.443 143.386C179.613 143.386 179.934 143.05 179.934 142.872C179.934 142.727 179.54 142.402 179.363 142.402C179.266 142.402 179.133 142.455 179.068 142.52ZM175.888 142.883C175.686 143.046 175.673 143.098 175.776 143.326C175.963 143.736 176.587 143.628 176.587 143.185C176.587 143.035 176.299 142.697 176.172 142.697C176.141 142.697 176.014 142.781 175.888 142.883ZM171.819 143.049C171.488 143.38 171.747 143.855 172.198 143.742C172.519 143.661 172.619 143.329 172.397 143.084C172.188 142.854 172.025 142.844 171.819 143.049ZM162.368 143.702C162.239 143.887 162.236 143.948 162.35 144.12C162.423 144.231 162.558 144.336 162.649 144.354C163.057 144.435 163.278 143.784 162.909 143.587C162.633 143.439 162.538 143.459 162.368 143.702ZM186.333 145.841L185.595 145.897L185.62 155.643C185.634 161.003 185.672 166.796 185.706 168.515L185.766 171.641L186.419 171.63C186.778 171.624 187.335 171.591 187.658 171.556L188.244 171.493L188.28 158.621L188.317 145.749L187.694 145.767C187.352 145.777 186.739 145.81 186.333 145.841ZM192.26 153.251C192.195 153.316 192.142 153.462 192.142 153.576C192.142 153.854 192.324 154.019 192.634 154.019C192.943 154.019 193.126 153.854 193.126 153.576C193.126 153.297 192.943 153.133 192.634 153.133C192.493 153.133 192.325 153.186 192.26 153.251ZM194.462 153.35C194.333 153.534 194.33 153.596 194.444 153.768C194.699 154.153 195.194 154.031 195.194 153.583C195.194 153.128 194.723 152.978 194.462 153.35ZM190.316 153.569C190.103 153.894 190.268 154.216 190.649 154.216C190.973 154.216 191.157 154.055 191.157 153.773C191.157 153.303 190.581 153.163 190.316 153.569ZM182.263 153.903C182.036 154.154 182.06 154.381 182.333 154.56C182.593 154.731 182.944 154.652 183.177 154.371C183.281 154.246 183.286 154.155 183.2 153.966C183.061 153.663 182.514 153.626 182.263 153.903ZM180.778 153.976C180.693 154.062 180.623 154.191 180.623 154.265C180.623 154.437 180.894 154.708 181.066 154.708C181.26 154.708 181.509 154.429 181.509 154.212C181.509 154.036 181.246 153.822 181.031 153.822C180.977 153.822 180.863 153.891 180.778 153.976ZM213.3 183.591C213.263 183.625 209.733 183.705 204.103 183.799C199.854 183.87 138.82 185.345 138.627 185.381C138.504 185.404 137.665 186.322 136.544 187.661C135.512 188.894 134.311 190.323 133.875 190.838C133.44 191.352 133.114 191.802 133.152 191.838C133.213 191.896 139.762 191.707 160.835 191.041C172.172 190.682 202.304 189.772 214.735 189.412C221.152 189.226 222.562 189.163 222.562 189.061C222.562 189.015 222.215 188.676 221.791 188.308C221.368 187.94 219.993 186.719 218.737 185.596L216.454 183.553H214.897C214.041 183.553 213.322 183.57 213.3 183.591Z" fill="#1237BF"/>
</g>
<g id="Phone">
<path id="Vector 4" d="M102.301 147.034C99.4655 166.605 101.119 185.445 102.301 192.418C107.381 194.427 119.972 193.255 125.633 192.418C127.877 173.241 126.568 154.171 125.633 147.034C114.37 143.49 105.385 145.557 102.301 147.034Z" fill="white"/>
<path id="outline_5" fill-rule="evenodd" clip-rule="evenodd" d="M104.536 144.749C103.632 145.013 102.928 145.417 102.266 146.053C101.033 147.237 100.621 148.507 100.356 151.946C99.8988 157.869 99.7716 165.784 99.9993 174.146C100.35 187.041 100.627 190.757 101.412 193.139C101.899 194.613 102.528 195.104 104.389 195.462C106.3 195.83 107.949 195.965 109.656 195.896C110.522 195.861 113.49 195.822 116.252 195.808C120.235 195.789 121.456 195.753 122.159 195.632C125.317 195.092 126.615 194.023 127.099 191.565C127.253 190.778 127.274 189.893 127.29 183.203C127.3 179.088 127.357 174.127 127.417 172.177C127.478 170.228 127.555 165.687 127.59 162.086C127.688 151.841 127.43 148.402 126.419 146.506C125.922 145.574 125.167 145.088 123.832 144.84C123.014 144.689 118.055 144.667 113.397 144.794C110.861 144.863 110.089 144.851 108.83 144.72C106.848 144.514 105.306 144.525 104.536 144.749ZM106.259 146.453C105.419 146.545 103.894 146.991 103.471 147.268C103.194 147.449 102.884 148.296 102.606 149.633C102.418 150.538 102.395 151.107 102.321 156.721C102.276 160.078 102.184 163.511 102.116 164.351C101.922 166.749 101.968 173.636 102.209 178.183C102.321 180.294 102.44 183.373 102.475 185.025C102.509 186.676 102.571 188.616 102.613 189.336C102.681 190.523 102.71 190.667 102.923 190.895C103.49 191.502 104.581 191.886 106.555 192.175C109.266 192.572 117.39 192.258 121.263 191.607C122.563 191.388 123.226 191.171 123.898 190.745C124.347 190.461 124.348 190.457 124.46 189.687C124.521 189.261 124.657 187.961 124.762 186.797C124.942 184.809 125.001 183.83 125.264 178.527C125.322 177.363 125.434 175.502 125.513 174.392C125.933 168.499 125.96 167.695 125.965 161.102C125.971 154.257 125.9 152.798 125.444 150.343C125.214 149.103 124.954 148.299 124.622 147.797C124.397 147.457 124.325 147.424 123.32 147.188C121.77 146.823 120.76 146.741 117.138 146.684C115.351 146.656 112.848 146.567 111.575 146.487C109.012 146.325 107.517 146.315 106.259 146.453ZM113.607 161.109C113.332 161.325 113.272 161.663 113.45 161.995C113.557 162.196 113.61 162.101 110.808 166.71C110.266 167.602 109.781 168.345 109.731 168.362C109.513 168.434 108.425 166.376 108.425 165.893C108.425 165.388 108.104 165.04 107.638 165.04C107.025 165.04 106.659 165.68 106.955 166.233C107.043 166.398 106.937 166.626 106.28 167.679C105.851 168.366 105.223 169.396 104.883 169.968C104.499 170.612 104.157 171.069 103.982 171.169C103.827 171.258 103.649 171.442 103.587 171.578C103.342 172.117 103.941 172.748 104.498 172.536C104.893 172.386 105.012 172.173 104.942 171.739C104.886 171.383 104.939 171.253 105.58 170.189C107.027 167.788 107.663 166.812 107.782 166.812C107.85 166.812 108.155 167.251 108.46 167.788C108.973 168.69 109.01 168.797 108.953 169.21C108.897 169.618 108.919 169.683 109.203 169.967C109.453 170.218 109.565 170.265 109.781 170.214C110.213 170.112 110.424 169.786 110.36 169.32C110.308 168.944 110.38 168.797 111.583 166.808C112.287 165.646 113.136 164.241 113.471 163.686C113.807 163.131 114.104 162.678 114.133 162.68C114.161 162.682 114.377 163.18 114.613 163.788C115.106 165.054 116.042 167.253 116.486 168.186C116.726 168.689 116.776 168.9 116.729 169.198C116.653 169.674 116.881 169.962 117.335 169.962C117.764 169.962 117.974 169.701 117.975 169.167C117.975 168.801 118.419 166.433 118.502 166.35C118.517 166.335 118.87 166.716 119.286 167.198C119.928 167.94 120.042 168.126 120.042 168.429C120.042 168.872 120.374 169.082 120.782 168.896C121.052 168.773 121.251 168.378 121.162 168.144C121.131 168.063 121.303 167.653 121.546 167.232C121.788 166.812 122.174 166.091 122.405 165.631C122.636 165.17 122.929 164.696 123.058 164.577C123.686 163.993 122.874 162.937 122.158 163.407C121.884 163.586 121.827 164.019 122.032 164.348C122.131 164.507 122.113 164.622 121.927 165.012C121.502 165.903 120.587 167.502 120.517 167.477C120.479 167.463 120.09 167.04 119.654 166.536C119.114 165.914 118.861 165.542 118.861 165.373C118.861 164.572 117.927 164.269 117.63 164.974C117.502 165.28 117.513 165.403 117.706 165.806C117.788 165.977 117.771 166.246 117.633 166.938C117.361 168.298 117.352 168.313 117.106 167.831C116.806 167.243 115.775 164.824 115.231 163.433C114.858 162.48 114.77 162.147 114.804 161.809C114.88 161.04 114.201 160.642 113.607 161.109ZM112.314 174.253C110.227 174.719 108.323 176.212 107.428 178.084C106.847 179.297 106.706 179.953 106.706 181.431C106.706 182.928 106.844 183.528 107.499 184.877C108.503 186.947 110.366 188.478 112.658 189.118C113.542 189.365 115.515 189.373 116.399 189.134C118.427 188.587 120.183 187.175 121.065 185.38C121.643 184.205 121.842 183.297 121.844 181.825C121.845 180.619 121.827 180.497 121.526 179.708C120.481 176.963 118.803 175.288 116.25 174.44C115.235 174.102 113.383 174.015 112.314 174.253ZM112.464 174.933C111.618 175.125 110.376 175.734 109.7 176.287C109.16 176.728 108.355 177.79 107.945 178.599C107.829 178.828 107.646 179.382 107.539 179.83C106.671 183.447 108.908 187.234 112.576 188.356C113.352 188.594 114.923 188.749 114.923 188.589C114.923 188.531 114.785 188.262 114.616 187.991L114.31 187.498H113.678C111.529 187.498 109.548 185.933 108.865 183.695C108.678 183.08 108.622 182.678 108.622 181.937C108.622 180.743 108.728 180.286 109.266 179.167C109.925 177.792 111.068 176.75 112.467 176.246C112.998 176.055 113.287 176.019 114.234 176.024C115.23 176.03 115.443 176.062 116.006 176.296C116.785 176.618 117.753 177.339 118.209 177.936C118.893 178.831 119.451 180.298 119.451 181.198V181.495L120.017 181.432C120.906 181.334 121.125 181.277 121.125 181.144C121.125 180.751 120.68 179.392 120.323 178.696C119.996 178.059 119.708 177.688 118.966 176.949C117.943 175.932 117.204 175.473 115.956 175.082C115.057 174.8 113.369 174.728 112.464 174.933ZM112.769 176.909C111.904 177.204 111.406 177.531 110.724 178.253C109.804 179.227 109.31 180.51 109.312 181.92C109.315 183.893 110.303 185.564 111.946 186.376C112.631 186.715 112.768 186.746 113.683 186.777C114.496 186.804 114.783 186.773 115.259 186.606C117.668 185.762 119.14 183.144 118.638 180.596C118.434 179.558 118.089 178.858 117.434 178.153C116.164 176.787 114.461 176.333 112.769 176.909Z" fill="#1237BF"/>
</g>
<path id="Pin" fill-rule="evenodd" clip-rule="evenodd" d="M57.6062 139.665C57.6062 139.665 73.5054 130.468 73.5054 113.611C73.5054 104.83 66.3871 97.7119 57.6062 97.7119C48.8253 97.7119 41.707 104.83 41.707 113.611C41.707 129.203 57.6062 139.665 57.6062 139.665ZM57.6058 119.868C61.2882 119.868 64.2733 116.883 64.2733 113.201C64.2733 109.519 61.2882 106.534 57.6058 106.534C53.9235 106.534 50.9384 109.519 50.9384 113.201C50.9384 116.883 53.9235 119.868 57.6058 119.868Z" fill="#F9A33F"/>
</g>
</svg>
