<svg width="24" height="26" viewBox="0 0 24 26" fill="none" xmlns="http://www.w3.org/2000/svg">
<path fill-rule="evenodd" clip-rule="evenodd" d="M0 4.30711C0 2.2045 1.7045 0.5 3.80711 0.5H20.0508C22.1534 0.5 23.8579 2.2045 23.8579 4.30711V21.6929C23.8579 23.7955 22.1534 25.5 20.0508 25.5H3.80711C1.7045 25.5 0 23.7955 0 21.6929V4.30711ZM3.80711 3.03807C3.10624 3.03807 2.53807 3.60624 2.53807 4.30711V21.6929C2.53807 22.3938 3.10624 22.9619 3.80711 22.9619H20.0508C20.7516 22.9619 21.3198 22.3938 21.3198 21.6929V4.30711C21.3198 3.60624 20.7516 3.03807 20.0508 3.03807H3.80711Z" fill="#1237BF"/>
<path fill-rule="evenodd" clip-rule="evenodd" d="M6.09137 10.9061C6.79224 10.9061 7.36041 11.4743 7.36041 12.1751V19.7893C7.36041 20.4902 6.79224 21.0584 6.09137 21.0584C5.3905 21.0584 4.82234 20.4902 4.82234 19.7893V12.1751C4.82234 11.4743 5.3905 10.9061 6.09137 10.9061Z" fill="#1237BF"/>
<path fill-rule="evenodd" clip-rule="evenodd" d="M10.0254 7.6066C10.7263 7.6066 11.2944 8.17477 11.2944 8.87563V19.7893C11.2944 20.4902 10.7263 21.0584 10.0254 21.0584C9.32451 21.0584 8.75635 20.4902 8.75635 19.7893V8.87563C8.75635 8.17477 9.32451 7.6066 10.0254 7.6066Z" fill="#1237BF"/>
<path fill-rule="evenodd" clip-rule="evenodd" d="M13.9594 9.12944C14.6603 9.12944 15.2284 9.69761 15.2284 10.3985V19.7893C15.2284 20.4902 14.6603 21.0584 13.9594 21.0584C13.2585 21.0584 12.6904 20.4902 12.6904 19.7893V10.3985C12.6904 9.69761 13.2585 9.12944 13.9594 9.12944Z" fill="#1237BF"/>
<path fill-rule="evenodd" clip-rule="evenodd" d="M17.8934 12.8096C18.5943 12.8096 19.1624 13.3778 19.1624 14.0787V19.7893C19.1624 20.4902 18.5943 21.0584 17.8934 21.0584C17.1925 21.0584 16.6244 20.4902 16.6244 19.7893V14.0787C16.6244 13.3778 17.1925 12.8096 17.8934 12.8096Z" fill="#1237BF"/>
</svg>
