<svg width="25" height="25" viewBox="0 0 25 25" fill="none" xmlns="http://www.w3.org/2000/svg">
<g id="Dropdown">
<path id="Subtract" fill-rule="evenodd" clip-rule="evenodd" d="M25 12.5C25 5.59644 19.4036 -8.48156e-07 12.5 -5.46392e-07C5.59644 -2.44628e-07 -8.48156e-07 5.59644 -5.46392e-07 12.5C-2.44628e-07 19.4036 5.59644 25 12.5 25C19.4036 25 25 19.4036 25 12.5ZM10.6283 17.9232C10.505 17.8724 10.3932 17.7981 10.2991 17.7045C10.2044 17.6116 10.1291 17.5011 10.0778 17.3794C10.0264 17.2576 10 17.1271 10 16.9952C10 16.8633 10.0264 16.7327 10.0778 16.611C10.1291 16.4892 10.2044 16.3787 10.2991 16.2859L14.6478 12L10.2991 7.71414C10.2044 7.62127 10.1291 7.51077 10.0778 7.38903C10.0264 7.26729 10 7.13671 10 7.00483C10 6.87294 10.0264 6.74236 10.0778 6.62062C10.1291 6.49888 10.2044 6.38839 10.2991 6.29551C10.3932 6.20188 10.505 6.12755 10.6283 6.07683C10.7515 6.02611 10.8837 6 11.0172 6C11.1507 6 11.2829 6.02611 11.4061 6.07683C11.5293 6.12755 11.6412 6.20188 11.7352 6.29551L16.7918 11.2907C16.8866 11.3836 16.9618 11.4941 17.0131 11.6158C17.0645 11.7375 17.0909 11.8681 17.0909 12C17.0909 12.1319 17.0645 12.2625 17.0131 12.3842C16.9618 12.5059 16.8866 12.6164 16.7918 12.7093L11.7352 17.7045C11.6412 17.7981 11.5293 17.8724 11.4061 17.9232C11.2829 17.9739 11.1507 18 11.0172 18C10.8837 18 10.7515 17.9739 10.6283 17.9232Z" fill="black"/>
</g>
</svg>
