<svg width="22" height="20" viewBox="0 0 22 20" fill="none" xmlns="http://www.w3.org/2000/svg">
<g id="Filter">
<path id="Vector" d="M6.6 11.1111C4.91332 11.1111 3.45838 12.0777 2.72205 13.4878C2.44215 14.0239 1.93167 14.4444 1.32695 14.4444H1.11111C0.497462 14.4444 0 14.9419 0 15.5556C0 16.1692 0.497461 16.6667 1.11111 16.6667H1.32695C1.93167 16.6667 2.44215 17.0872 2.72205 17.6233C3.45838 19.0335 4.91332 20 6.6 20C8.10189 20 9.42003 19.2336 10.2107 18.0701C10.723 17.3162 11.4825 16.6667 12.394 16.6667H20.8889C21.5025 16.6667 22 16.1692 22 15.5556C22 14.9419 21.5025 14.4444 20.8889 14.4444H12.394C11.4825 14.4444 10.723 13.7949 10.2107 13.041C9.42003 11.8775 8.10189 11.1111 6.6 11.1111ZM6.6 17.7778C5.39 17.7778 4.4 16.7778 4.4 15.5556C4.4 14.3333 5.39 13.3333 6.6 13.3333C7.81 13.3333 8.8 14.3333 8.8 15.5556C8.8 16.7778 7.81 17.7778 6.6 17.7778ZM20.673 3.33333C20.0683 3.33333 19.5578 2.91277 19.278 2.37673C18.5416 0.966545 17.0867 0 15.4 0C13.8981 0 12.58 0.76636 11.7893 1.9299C11.277 2.68375 10.5175 3.33333 9.60603 3.33333H1.11111C0.497463 3.33333 0 3.83079 0 4.44444C0 5.05809 0.497461 5.55556 1.11111 5.55556H9.60602C10.5175 5.55556 11.277 6.20514 11.7893 6.95899C12.58 8.12253 13.8981 8.88889 15.4 8.88889C17.0867 8.88889 18.5416 7.92234 19.278 6.51216C19.5578 5.97612 20.0683 5.55556 20.673 5.55556H20.8889C21.5025 5.55556 22 5.05809 22 4.44444C22 3.8308 21.5025 3.33333 20.8889 3.33333H20.673ZM15.4 6.66667C14.19 6.66667 13.2 5.66667 13.2 4.44444C13.2 3.22222 14.19 2.22222 15.4 2.22222C16.61 2.22222 17.6 3.22222 17.6 4.44444C17.6 5.66667 16.61 6.66667 15.4 6.66667Z" fill="black"/>
</g>
</svg>
