<svg width="26" height="27" viewBox="0 0 26 27" fill="none" xmlns="http://www.w3.org/2000/svg">
<path fill-rule="evenodd" clip-rule="evenodd" d="M0 13.4998C0 6.38404 5.83938 0.634766 12.9339 0.634766C20.0284 0.634766 25.8678 6.38404 25.8678 13.4998C25.8678 20.6156 20.0284 26.3649 12.9339 26.3649C5.83938 26.3649 0 20.6156 0 13.4998ZM12.9339 3.37201C7.32981 3.37201 2.73725 7.917 2.73725 13.4998C2.73725 19.0827 7.32981 23.6276 12.9339 23.6276C18.538 23.6276 23.1306 19.0827 23.1306 13.4998C23.1306 7.917 18.538 3.37201 12.9339 3.37201Z" fill="#1237BF"/>
<path fill-rule="evenodd" clip-rule="evenodd" d="M16.8899 10.6492L15.0035 15.554C14.9154 15.783 14.7295 15.9606 14.4967 16.0382L9.70506 18.0917C9.04114 18.313 8.42238 17.6555 8.68351 17.0062L10.7027 12.1186C10.7824 11.9206 10.936 11.7613 11.1311 11.6746L15.79 9.604C16.4585 9.30687 17.1526 9.96636 16.8899 10.6492ZM12.8799 15.2314C13.6735 15.2314 14.3169 14.588 14.3169 13.7943C14.3169 13.0006 13.6735 12.3573 12.8799 12.3573C12.0862 12.3573 11.4428 13.0006 11.4428 13.7943C11.4428 14.588 12.0862 15.2314 12.8799 15.2314Z" fill="#1237BF"/>
<path fill-rule="evenodd" clip-rule="evenodd" d="M17.4936 7.90963C18.7379 7.51371 19.8617 8.78128 19.3197 9.96922L16.2569 16.6813C16.0796 17.0697 15.7459 17.3646 15.3386 17.4926L8.49167 19.6445C7.27138 20.028 6.15907 18.8113 6.6502 17.6302L9.38717 11.0484C9.55723 10.6395 9.89874 10.3262 10.3208 10.1919L17.4936 7.90963ZM15.6761 11.3604L11.6952 12.627L10.1925 16.2407L13.9944 15.0458L15.6761 11.3604Z" fill="#1237BF"/>
</svg>
