<svg width="253" height="90" viewBox="0 0 253 90" fill="none" xmlns="http://www.w3.org/2000/svg">
<rect width="253" height="90" fill="white"/>
<rect x="64" y="17" width="24" height="24" rx="12" fill="white"/>
<path d="M84.5 24.2778L76 29.0001M76 29.0001L67.5 24.2778M76 29.0001L76 38.5001M85 33.0586V24.9415C85 24.5989 85 24.4276 84.9495 24.2748C84.9049 24.1396 84.8318 24.0155 84.7354 23.9108C84.6263 23.7925 84.4766 23.7093 84.177 23.5429L76.777 19.4318C76.4934 19.2742 76.3516 19.1954 76.2015 19.1645C76.0685 19.1372 75.9315 19.1372 75.7986 19.1645C75.6484 19.1954 75.5066 19.2742 75.223 19.4318L67.823 23.5429C67.5234 23.7093 67.3737 23.7925 67.2646 23.9108C67.1682 24.0155 67.0951 24.1396 67.0505 24.2748C67 24.4276 67 24.5989 67 24.9415V33.0586C67 33.4013 67 33.5726 67.0505 33.7254C67.0951 33.8606 67.1682 33.9847 67.2646 34.0893C67.3737 34.2077 67.5234 34.2909 67.823 34.4573L75.223 38.5684C75.5066 38.726 75.6484 38.8047 75.7986 38.8356C75.9315 38.863 76.0685 38.863 76.2015 38.8356C76.3516 38.8047 76.4934 38.726 76.777 38.5684L84.177 34.4573C84.4766 34.2909 84.6263 34.2077 84.7354 34.0893C84.8318 33.9847 84.9049 33.8606 84.9495 33.7254C85 33.5726 85 33.4013 85 33.0586Z" stroke="black" stroke-width="2" stroke-linecap="round" stroke-linejoin="round"/>
<path d="M96.86 31.832V30.632H98.96C99.248 30.632 99.5 30.576 99.716 30.464C99.94 30.344 100.116 30.18 100.244 29.972C100.372 29.756 100.436 29.504 100.436 29.216C100.436 28.928 100.372 28.68 100.244 28.472C100.116 28.256 99.94 28.092 99.716 27.98C99.5 27.86 99.248 27.8 98.96 27.8H96.86V26.6H99.032C99.56 26.6 100.032 26.708 100.448 26.924C100.872 27.14 101.204 27.444 101.444 27.836C101.692 28.228 101.816 28.688 101.816 29.216C101.816 29.744 101.692 30.204 101.444 30.596C101.204 30.988 100.872 31.292 100.448 31.508C100.032 31.724 99.56 31.832 99.032 31.832H96.86ZM95.912 35V26.6H97.292V35H95.912ZM102.986 35V29.24H104.306V35H102.986ZM103.646 28.184C103.422 28.184 103.234 28.108 103.082 27.956C102.938 27.804 102.866 27.616 102.866 27.392C102.866 27.168 102.938 26.98 103.082 26.828C103.234 26.676 103.422 26.6 103.646 26.6C103.878 26.6 104.066 26.676 104.21 26.828C104.354 26.98 104.426 27.168 104.426 27.392C104.426 27.616 104.354 27.804 104.21 27.956C104.066 28.108 103.878 28.184 103.646 28.184ZM108.439 35.12C107.871 35.12 107.355 34.988 106.891 34.724C106.435 34.46 106.075 34.1 105.811 33.644C105.547 33.188 105.415 32.68 105.415 32.12C105.415 31.552 105.547 31.044 105.811 30.596C106.075 30.14 106.435 29.78 106.891 29.516C107.355 29.252 107.871 29.12 108.439 29.12C108.887 29.12 109.303 29.208 109.687 29.384C110.079 29.552 110.411 29.796 110.683 30.116L109.819 30.992C109.651 30.792 109.447 30.644 109.207 30.548C108.975 30.444 108.719 30.392 108.439 30.392C108.111 30.392 107.819 30.468 107.563 30.62C107.315 30.764 107.119 30.964 106.975 31.22C106.839 31.476 106.771 31.776 106.771 32.12C106.771 32.456 106.839 32.756 106.975 33.02C107.119 33.276 107.315 33.48 107.563 33.632C107.819 33.776 108.111 33.848 108.439 33.848C108.719 33.848 108.975 33.8 109.207 33.704C109.447 33.6 109.651 33.448 109.819 33.248L110.683 34.124C110.411 34.444 110.079 34.692 109.687 34.868C109.303 35.036 108.887 35.12 108.439 35.12ZM115.294 35L112.858 32.06L115.282 29.24H116.854L114.07 32.408L114.13 31.652L116.974 35H115.294ZM111.634 35V26.36H112.954V35H111.634ZM123.586 35.12C122.954 35.12 122.386 34.976 121.882 34.688C121.378 34.4 120.978 34.008 120.682 33.512C120.394 33.008 120.25 32.44 120.25 31.808V26.6H121.63V31.796C121.63 32.204 121.714 32.56 121.882 32.864C122.058 33.16 122.294 33.392 122.59 33.56C122.886 33.72 123.218 33.8 123.586 33.8C123.962 33.8 124.294 33.72 124.582 33.56C124.87 33.392 125.098 33.16 125.266 32.864C125.434 32.56 125.518 32.208 125.518 31.808V26.6H126.898V31.82C126.898 32.452 126.754 33.016 126.466 33.512C126.178 34.008 125.786 34.4 125.29 34.688C124.794 34.976 124.226 35.12 123.586 35.12ZM131.535 35.12C131.095 35.12 130.703 35.028 130.359 34.844C130.015 34.652 129.743 34.392 129.543 34.064C129.351 33.736 129.255 33.364 129.255 32.948V31.292C129.255 30.876 129.355 30.504 129.555 30.176C129.755 29.848 130.027 29.592 130.371 29.408C130.715 29.216 131.103 29.12 131.535 29.12C132.055 29.12 132.523 29.256 132.939 29.528C133.363 29.792 133.695 30.152 133.935 30.608C134.183 31.056 134.307 31.564 134.307 32.132C134.307 32.692 134.183 33.2 133.935 33.656C133.695 34.104 133.363 34.46 132.939 34.724C132.523 34.988 132.055 35.12 131.535 35.12ZM128.451 37.4V29.24H129.771V30.788L129.543 32.192L129.771 33.584V37.4H128.451ZM131.319 33.872C131.639 33.872 131.919 33.8 132.159 33.656C132.407 33.504 132.599 33.296 132.735 33.032C132.879 32.768 132.951 32.464 132.951 32.12C132.951 31.776 132.879 31.472 132.735 31.208C132.599 30.944 132.407 30.74 132.159 30.596C131.919 30.444 131.639 30.368 131.319 30.368C130.999 30.368 130.715 30.444 130.467 30.596C130.219 30.74 130.027 30.944 129.891 31.208C129.755 31.472 129.687 31.776 129.687 32.12C129.687 32.464 129.755 32.768 129.891 33.032C130.027 33.296 130.219 33.504 130.467 33.656C130.715 33.8 130.999 33.872 131.319 33.872Z" fill="black"/>
<g clip-path="url(#clip0_2671_9881)">
<rect x="64" y="49" width="24" height="24" rx="12" fill="white"/>
<path d="M80 53C80.93 53 81.395 53 81.7765 53.1022C82.8117 53.3796 83.6204 54.1883 83.8978 55.2235C84 55.605 84 56.07 84 57V66.2C84 67.8802 84 68.7202 83.673 69.362C83.3854 69.9265 82.9265 70.3854 82.362 70.673C81.7202 71 80.8802 71 79.2 71H72.8C71.1198 71 70.2798 71 69.638 70.673C69.0735 70.3854 68.6146 69.9265 68.327 69.362C68 68.7202 68 67.8802 68 66.2V57C68 56.07 68 55.605 68.1022 55.2235C68.3796 54.1883 69.1883 53.3796 70.2235 53.1022C70.605 53 71.07 53 72 53M73 64L75 66L79.5 61.5M73.6 55H78.4C78.9601 55 79.2401 55 79.454 54.891C79.6422 54.7951 79.7951 54.6422 79.891 54.454C80 54.2401 80 53.9601 80 53.4V52.6C80 52.0399 80 51.7599 79.891 51.546C79.7951 51.3578 79.6422 51.2049 79.454 51.109C79.2401 51 78.9601 51 78.4 51H73.6C73.0399 51 72.7599 51 72.546 51.109C72.3578 51.2049 72.2049 51.3578 72.109 51.546C72 51.7599 72 52.0399 72 52.6V53.4C72 53.9601 72 54.2401 72.109 54.454C72.2049 54.6422 72.3578 54.7951 72.546 54.891C72.7599 55 73.0399 55 73.6 55Z" stroke="#1237BF" stroke-width="2" stroke-linecap="round" stroke-linejoin="round"/>
<mask id="mask0_2671_9881" style="mask-type:alpha" maskUnits="userSpaceOnUse" x="63" y="50" width="24" height="24">
<rect x="63" y="50" width="24" height="24" fill="white"/>
</mask>
<g mask="url(#mask0_2671_9881)">
</g>
</g>
<path d="M97.496 66.62C97.008 66.62 96.572 66.524 96.188 66.332C95.812 66.132 95.508 65.868 95.276 65.54L96.248 64.652C96.384 64.86 96.556 65.02 96.764 65.132C96.972 65.244 97.2 65.3 97.448 65.3C97.72 65.3 97.952 65.244 98.144 65.132C98.336 65.02 98.484 64.86 98.588 64.652C98.692 64.444 98.744 64.196 98.744 63.908V58.1H100.124V63.8C100.124 64.36 100.012 64.852 99.788 65.276C99.572 65.7 99.268 66.032 98.876 66.272C98.484 66.504 98.024 66.62 97.496 66.62ZM104.302 66.62C103.742 66.62 103.234 66.488 102.778 66.224C102.322 65.952 101.958 65.588 101.686 65.132C101.422 64.676 101.29 64.168 101.29 63.608C101.29 63.048 101.422 62.544 101.686 62.096C101.958 61.648 102.322 61.292 102.778 61.028C103.234 60.756 103.742 60.62 104.302 60.62C104.87 60.62 105.382 60.752 105.838 61.016C106.294 61.28 106.654 61.64 106.918 62.096C107.19 62.544 107.326 63.048 107.326 63.608C107.326 64.168 107.19 64.676 106.918 65.132C106.654 65.588 106.294 65.952 105.838 66.224C105.382 66.488 104.87 66.62 104.302 66.62ZM104.302 65.348C104.63 65.348 104.918 65.276 105.166 65.132C105.422 64.98 105.618 64.772 105.754 64.508C105.898 64.244 105.97 63.944 105.97 63.608C105.97 63.272 105.898 62.976 105.754 62.72C105.61 62.464 105.414 62.264 105.166 62.12C104.918 61.968 104.63 61.892 104.302 61.892C103.982 61.892 103.694 61.968 103.438 62.12C103.19 62.264 102.994 62.464 102.85 62.72C102.714 62.976 102.646 63.272 102.646 63.608C102.646 63.944 102.714 64.244 102.85 64.508C102.994 64.772 103.19 64.98 103.438 65.132C103.694 65.276 103.982 65.348 104.302 65.348ZM111.507 66.62C111.067 66.62 110.675 66.528 110.331 66.344C109.987 66.152 109.715 65.892 109.515 65.564C109.323 65.236 109.227 64.864 109.227 64.448V62.792C109.227 62.376 109.327 62.004 109.527 61.676C109.727 61.348 109.999 61.092 110.343 60.908C110.687 60.716 111.075 60.62 111.507 60.62C112.027 60.62 112.495 60.756 112.911 61.028C113.335 61.292 113.667 61.652 113.907 62.108C114.155 62.556 114.279 63.064 114.279 63.632C114.279 64.192 114.155 64.7 113.907 65.156C113.667 65.604 113.335 65.96 112.911 66.224C112.495 66.488 112.027 66.62 111.507 66.62ZM108.423 66.5V57.86H109.743V62.156L109.515 63.548L109.743 64.952V66.5H108.423ZM111.291 65.372C111.611 65.372 111.891 65.3 112.131 65.156C112.379 65.004 112.571 64.796 112.707 64.532C112.851 64.268 112.923 63.964 112.923 63.62C112.923 63.276 112.851 62.972 112.707 62.708C112.571 62.444 112.379 62.24 112.131 62.096C111.891 61.944 111.611 61.868 111.291 61.868C110.971 61.868 110.687 61.944 110.439 62.096C110.191 62.24 109.999 62.444 109.863 62.708C109.727 62.972 109.659 63.276 109.659 63.62C109.659 63.964 109.727 64.268 109.863 64.532C109.999 64.796 110.191 65.004 110.439 65.156C110.687 65.3 110.971 65.372 111.291 65.372ZM120.307 66.62C119.643 66.62 119.079 66.5 118.615 66.26C118.151 66.02 117.735 65.668 117.367 65.204L118.303 64.268C118.535 64.604 118.811 64.868 119.131 65.06C119.451 65.244 119.859 65.336 120.355 65.336C120.819 65.336 121.187 65.24 121.459 65.048C121.739 64.856 121.879 64.592 121.879 64.256C121.879 63.976 121.807 63.748 121.663 63.572C121.519 63.396 121.327 63.252 121.087 63.14C120.855 63.02 120.595 62.916 120.307 62.828C120.027 62.732 119.743 62.628 119.455 62.516C119.175 62.396 118.915 62.248 118.675 62.072C118.443 61.896 118.255 61.668 118.111 61.388C117.967 61.108 117.895 60.752 117.895 60.32C117.895 59.824 118.015 59.404 118.255 59.06C118.503 58.708 118.835 58.44 119.251 58.256C119.667 58.072 120.131 57.98 120.643 57.98C121.195 57.98 121.687 58.088 122.119 58.304C122.559 58.52 122.915 58.796 123.187 59.132L122.251 60.068C122.011 59.796 121.759 59.596 121.495 59.468C121.239 59.332 120.943 59.264 120.607 59.264C120.191 59.264 119.863 59.348 119.623 59.516C119.391 59.684 119.275 59.92 119.275 60.224C119.275 60.48 119.347 60.688 119.491 60.848C119.635 61 119.823 61.132 120.055 61.244C120.295 61.348 120.555 61.448 120.835 61.544C121.123 61.64 121.407 61.748 121.687 61.868C121.975 61.988 122.235 62.144 122.467 62.336C122.707 62.52 122.899 62.76 123.043 63.056C123.187 63.352 123.259 63.724 123.259 64.172C123.259 64.924 122.991 65.52 122.455 65.96C121.927 66.4 121.211 66.62 120.307 66.62ZM128.403 66.5V63.176C128.403 62.792 128.279 62.476 128.031 62.228C127.791 61.98 127.479 61.856 127.095 61.856C126.839 61.856 126.611 61.912 126.411 62.024C126.211 62.136 126.055 62.292 125.943 62.492C125.831 62.692 125.775 62.92 125.775 63.176L125.259 62.888C125.259 62.448 125.355 62.06 125.547 61.724C125.739 61.38 126.003 61.112 126.339 60.92C126.683 60.72 127.067 60.62 127.491 60.62C127.923 60.62 128.307 60.716 128.643 60.908C128.979 61.1 129.243 61.368 129.435 61.712C129.627 62.048 129.723 62.44 129.723 62.888V66.5H128.403ZM124.455 66.5V57.86H125.775V66.5H124.455ZM133.74 66.62C133.164 66.62 132.644 66.492 132.18 66.236C131.724 65.972 131.36 65.612 131.088 65.156C130.824 64.7 130.692 64.188 130.692 63.62C130.692 63.052 130.824 62.544 131.088 62.096C131.352 61.64 131.708 61.28 132.156 61.016C132.612 60.752 133.116 60.62 133.668 60.62C134.204 60.62 134.676 60.744 135.084 60.992C135.5 61.24 135.824 61.58 136.056 62.012C136.296 62.444 136.416 62.936 136.416 63.488C136.416 63.584 136.408 63.684 136.392 63.788C136.384 63.884 136.368 63.992 136.344 64.112H131.616V63.032H135.66L135.168 63.464C135.152 63.112 135.084 62.816 134.964 62.576C134.844 62.336 134.672 62.152 134.448 62.024C134.232 61.896 133.964 61.832 133.644 61.832C133.308 61.832 133.016 61.904 132.768 62.048C132.52 62.192 132.328 62.396 132.192 62.66C132.056 62.916 131.988 63.224 131.988 63.584C131.988 63.944 132.06 64.26 132.204 64.532C132.348 64.804 132.552 65.016 132.816 65.168C133.08 65.312 133.384 65.384 133.728 65.384C134.024 65.384 134.296 65.332 134.544 65.228C134.8 65.124 135.016 64.972 135.192 64.772L136.032 65.624C135.752 65.952 135.412 66.2 135.012 66.368C134.612 66.536 134.188 66.62 133.74 66.62ZM140.15 66.62C139.574 66.62 139.054 66.492 138.59 66.236C138.134 65.972 137.77 65.612 137.498 65.156C137.234 64.7 137.102 64.188 137.102 63.62C137.102 63.052 137.234 62.544 137.498 62.096C137.762 61.64 138.118 61.28 138.566 61.016C139.022 60.752 139.526 60.62 140.078 60.62C140.614 60.62 141.086 60.744 141.494 60.992C141.91 61.24 142.234 61.58 142.466 62.012C142.706 62.444 142.826 62.936 142.826 63.488C142.826 63.584 142.818 63.684 142.802 63.788C142.794 63.884 142.778 63.992 142.754 64.112H138.026V63.032H142.07L141.578 63.464C141.562 63.112 141.494 62.816 141.374 62.576C141.254 62.336 141.082 62.152 140.858 62.024C140.642 61.896 140.374 61.832 140.054 61.832C139.718 61.832 139.426 61.904 139.178 62.048C138.93 62.192 138.738 62.396 138.602 62.66C138.466 62.916 138.398 63.224 138.398 63.584C138.398 63.944 138.47 64.26 138.614 64.532C138.758 64.804 138.962 65.016 139.226 65.168C139.49 65.312 139.794 65.384 140.138 65.384C140.434 65.384 140.706 65.332 140.954 65.228C141.21 65.124 141.426 64.972 141.602 64.772L142.442 65.624C142.162 65.952 141.822 66.2 141.422 66.368C141.022 66.536 140.598 66.62 140.15 66.62ZM144.62 66.5V58.34H145.94V66.5H144.62ZM143.24 61.94V60.74H147.32V61.94H143.24Z" fill="black"/>
<rect x="95" y="71" width="28" height="3" rx="1.5" fill="#F9A33F"/>
<defs>
<clipPath id="clip0_2671_9881">
<rect x="64" y="49" width="24" height="24" rx="12" fill="white"/>
</clipPath>
</defs>
</svg>
