<svg width="130" height="35" viewBox="0 0 130 35" fill="none" xmlns="http://www.w3.org/2000/svg">
<path d="M110.348 26.3165C108.632 27.5004 106.764 28.0923 104.745 28.0923C103.222 28.0923 101.85 27.7711 100.629 27.1287C99.4176 26.4771 98.4585 25.5961 97.7519 24.4856C97.0452 23.3752 96.6919 22.1179 96.6919 20.7137C96.6919 19.383 97.0085 18.1991 97.6418 17.1621C98.275 16.1159 99.1377 15.2899 100.23 14.6842C101.331 14.0785 102.575 13.7756 103.96 13.7756C105.401 13.7756 106.668 14.1106 107.76 14.7806C108.852 15.4505 109.701 16.382 110.307 17.5751C110.921 18.7589 111.229 20.1356 111.229 21.7049V22.1454H101.538C101.703 22.5951 101.951 22.9943 102.281 23.343C102.62 23.6918 103.043 23.9717 103.547 24.1828C104.052 24.3847 104.63 24.4856 105.282 24.4856C106.631 24.4856 107.897 24.0497 109.081 23.1779L110.348 26.3165ZM101.345 20.108H107.072C107.016 19.5941 106.86 19.1398 106.603 18.7452C106.346 18.3506 106.007 18.0431 105.585 17.8229C105.172 17.6026 104.708 17.4925 104.194 17.4925C103.671 17.4925 103.208 17.6118 102.804 17.8504C102.409 18.0798 102.084 18.3919 101.827 18.7865C101.579 19.1719 101.418 19.6124 101.345 20.108Z" fill="black"/>
<path d="M87.0968 34.7001H82.3063L85.1558 27.8309L78.0801 14.051H83.2011L87.2896 22.6961L90.8687 14.051H95.6593L87.0968 34.7001Z" fill="black"/>
<path d="M69.8353 28.0923C68.4036 28.0923 67.1233 27.7849 65.9945 27.17C64.8749 26.546 63.9939 25.697 63.3514 24.6233C62.709 23.5404 62.3878 22.3106 62.3878 20.934C62.3878 19.5574 62.709 18.3322 63.3514 17.2584C63.9939 16.1755 64.8749 15.3266 65.9945 14.7117C67.1233 14.0877 68.4036 13.7756 69.8353 13.7756C71.2669 13.7756 72.538 14.0877 73.6485 14.7117C74.7681 15.3266 75.6445 16.1755 76.2778 17.2584C76.9202 18.3322 77.2414 19.5574 77.2414 20.934C77.2414 22.3106 76.9202 23.5404 76.2778 24.6233C75.6445 25.697 74.7681 26.546 73.6485 27.17C72.538 27.7849 71.2669 28.0923 69.8353 28.0923ZM69.8215 24.0451C70.3538 24.0451 70.831 23.912 71.2532 23.6459C71.6753 23.3798 72.0057 23.0081 72.2443 22.5309C72.4921 22.0536 72.616 21.5122 72.616 20.9065C72.616 20.3191 72.4921 19.7914 72.2443 19.3234C72.0057 18.8553 71.6753 18.4882 71.2532 18.2221C70.831 17.9559 70.3538 17.8229 69.8215 17.8229C69.28 17.8229 68.7982 17.9559 68.3761 18.2221C67.9539 18.4882 67.6189 18.8553 67.3711 19.3234C67.1325 19.7914 67.0132 20.3191 67.0132 20.9065C67.0132 21.5122 67.1325 22.0536 67.3711 22.5309C67.6189 23.0081 67.9539 23.3798 68.3761 23.6459C68.7982 23.912 69.28 24.0451 69.8215 24.0451Z" fill="black"/>
<path d="M61.6175 14.051L56.0423 27.8171H51.6784L46.1169 14.051H50.9488L53.8672 23.2881L56.7994 14.051H61.6175Z" fill="black"/>
<path d="M44.1607 27.8171H40.554L40.4026 25.6145C39.9253 26.4221 39.2875 27.037 38.4891 27.4592C37.6907 27.8813 36.7591 28.0924 35.6946 28.0924C33.96 28.0924 32.6018 27.5555 31.6198 26.4818C30.6378 25.408 30.1469 23.9259 30.1469 22.0353V14.051H34.6621V20.8928C34.6621 21.8931 34.8778 22.6686 35.3091 23.2192C35.7405 23.7699 36.337 24.0452 37.0987 24.0452C37.8971 24.0452 38.5212 23.7607 38.9709 23.1917C39.4206 22.6227 39.6454 21.838 39.6454 20.8377V14.051H44.1607V27.8171Z" fill="black"/>
<path d="M22.9065 27.817H18.3912V14.051H22.3146L22.466 16.3224C22.9249 15.5147 23.5352 14.8907 24.2969 14.4502C25.0586 14.0005 25.9304 13.7756 26.9124 13.7756C27.2153 13.7756 27.5227 13.7986 27.8348 13.8445C28.156 13.8904 28.4772 13.9592 28.7984 14.051L28.2477 18.1119C27.6053 17.91 27.0042 17.8091 26.4444 17.8091C25.7285 17.8091 25.1045 17.9651 24.5722 18.2771C24.0399 18.5892 23.6269 19.0251 23.3333 19.5849C23.0488 20.1447 22.9065 20.8055 22.9065 21.5672V27.817Z" fill="black"/>
<path d="M10.7513 27.8171H5.90564V11.3941H0V7.16797H16.6569V11.3941H10.7513V27.8171Z" fill="black"/>
<g clip-path="url(#clip0_2765_4719)">
<path d="M104.918 6.75991L116.481 13.1779L129.15 6.75991L119.459 0.69404C117.98 -0.232323 116.087 -0.232323 114.608 0.69404L104.918 6.75991Z" fill="#1237BF"/>
</g>
<g clip-path="url(#clip1_2765_4719)">
<path d="M116.821 14.6509L129.574 8.07715V20.1145C129.574 21.4852 128.833 22.7496 127.634 23.4219L117.847 28.9076L116.821 14.6509Z" fill="#F9A33F"/>
</g>
<defs>
<clipPath id="clip0_2765_4719">
<rect width="24.2313" height="13.1784" fill="white" transform="translate(104.918)"/>
</clipPath>
<clipPath id="clip1_2765_4719">
<rect width="12.7533" height="20.8304" fill="white" transform="translate(116.821 8.07715)"/>
</clipPath>
</defs>
</svg>
