<svg width="23" height="26" viewBox="0 0 23 26" fill="none" xmlns="http://www.w3.org/2000/svg">
<g id="Notification 2">
<g id="Vector">
<path d="M11.5111 0C10.2557 0 9.23803 1.04621 9.23803 2.33677C9.23803 2.88532 9.42189 3.38973 9.72971 3.78841C10.3114 3.22015 11.8384 2.42458 13.2924 3.78841C13.6003 3.38973 13.7841 2.88532 13.7841 2.33677C13.7841 1.04621 12.7664 0 11.5111 0Z" fill="black"/>
<path fill-rule="evenodd" clip-rule="evenodd" d="M11.5111 2.41303L11.3952 2.50251C11.4285 2.51631 11.4677 2.5256 11.5111 2.5256C11.5544 2.5256 11.5937 2.51631 11.627 2.50251L11.5111 2.41303ZM12.7887 3.39949C11.7851 2.78102 10.8026 3.05622 10.1736 3.4457C9.99436 3.55667 9.84384 3.67691 9.72971 3.78841C9.42189 3.38973 9.23803 2.88532 9.23803 2.33677C9.23803 1.7689 9.43508 1.24833 9.76271 0.843394C10.1797 0.328065 10.8081 0 11.5111 0C12.2028 0 12.8224 0.317665 13.2393 0.818836C13.579 1.22718 13.7841 1.75735 13.7841 2.33677C13.7841 2.88532 13.6003 3.38973 13.2924 3.78841C13.125 3.63134 12.9566 3.50292 12.7887 3.39949Z" fill="black"/>
<path d="M7.34383 21.0015C7.34383 23.2815 9.1813 25.1298 11.4479 25.1298C13.7146 25.1298 15.552 23.2815 15.552 21.0015H7.34383Z" fill="black"/>
<path fill-rule="evenodd" clip-rule="evenodd" d="M7.34383 21.0015C7.34383 21.9528 7.66373 22.829 8.20122 23.5271C8.95191 24.5021 10.1271 25.1298 11.4479 25.1298C12.7688 25.1298 13.944 24.5021 14.6947 23.5271C15.2322 22.829 15.552 21.9528 15.552 21.0015H7.34383Z" fill="black"/>
<path d="M11.5742 2.14676C7.49427 2.14676 4.18682 5.45421 4.18682 9.53416V15.4768C4.18682 15.9456 4.00056 16.3953 3.66901 16.7269L0.983856 19.412C0.108786 20.2871 0.728541 21.7833 1.96609 21.7833H21.1824C22.4199 21.7833 23.0397 20.2871 22.1646 19.412L19.4794 16.7269C19.1479 16.3953 18.9616 15.9456 18.9616 15.4768V12.3946C18.505 12.546 18.0168 12.628 17.5094 12.628C17.1398 12.628 16.7804 12.5845 16.436 12.5024V15.4768C16.436 16.6155 16.8884 17.7076 17.6936 18.5127L18.4385 19.2577H4.70989L5.45488 18.5127C6.26008 17.7076 6.71243 16.6155 6.71243 15.4768V9.53416C6.71243 6.84907 8.88913 4.67237 11.5742 4.67237C12.3919 4.67237 13.1624 4.87422 13.8386 5.2308C14.3917 4.5037 15.1559 3.94591 16.0399 3.64878C14.7995 2.70622 13.2522 2.14676 11.5742 2.14676Z" fill="black"/>
</g>
<circle id="Ellipse 2312" cx="17.5742" cy="8" r="4" fill="#F9A33F"/>
</g>
</svg>
