<svg width="22" height="25" viewBox="0 0 22 25" fill="none" xmlns="http://www.w3.org/2000/svg">
<path fill-rule="evenodd" clip-rule="evenodd" d="M5.15504 0C3.30508 0 1.69994 1.22879 1.28396 2.96348L0.151079 7.68768C0.105449 7.83221 0.0696152 7.98085 0.0443204 8.13287L0.0299678 8.19273L0.0347765 8.19379C0.0118552 8.34975 0 8.50913 0 8.67117V21.6216C0 23.4874 1.57177 25 3.51064 25H18.4894C20.4282 25 22 23.4874 22 21.6216V8.67117C22 8.50913 21.9881 8.34975 21.9652 8.19379L21.97 8.19273L21.9557 8.13287C21.9304 7.98085 21.8946 7.83221 21.8489 7.68768L20.716 2.96348C20.3001 1.2288 18.6949 0 16.845 0H5.15504ZM18.8776 5.31322L18.4356 3.46992C18.2646 2.75715 17.6051 2.25225 16.845 2.25225H5.15504C4.39491 2.25225 3.73537 2.75715 3.56445 3.46992L3.12242 5.31322C3.2499 5.29972 3.37943 5.29279 3.51064 5.29279H18.4894C18.6206 5.29279 18.7501 5.29972 18.8776 5.31322ZM2.34794 8.54288L2.40751 8.29444C2.56856 7.85776 3.00165 7.54504 3.51064 7.54504H6.31915V15.4147C6.31915 16.6194 7.92516 17.1152 8.6534 16.1353L11.0585 12.8991L13.4636 16.1353C14.1919 17.1152 15.7979 16.6194 15.7979 15.4147V7.54504H18.4894C18.9984 7.54504 19.4314 7.85776 19.5925 8.29444L19.6521 8.54288C19.657 8.58498 19.6596 8.62779 19.6596 8.67117V21.6216C19.6596 22.2436 19.1357 22.7477 18.4894 22.7477H3.51064C2.86435 22.7477 2.34043 22.2436 2.34043 21.6216V8.67117C2.34043 8.62779 2.34297 8.58498 2.34794 8.54288Z" fill="#1237BF"/>
</svg>
