<svg width="26" height="25" viewBox="0 0 26 25" fill="none" xmlns="http://www.w3.org/2000/svg">
<g id="Profile">
<g id="F">
<path fill-rule="evenodd" clip-rule="evenodd" d="M0.574219 12.4335C0.574219 5.5564 6.2177 0 13.0742 0C19.9307 0 25.5742 5.5564 25.5742 12.4335C25.5742 19.3105 19.9307 24.8669 13.0742 24.8669C6.2177 24.8669 0.574219 19.3105 0.574219 12.4335ZM13.0742 2.64542C7.65813 2.64542 3.21964 7.03793 3.21964 12.4335C3.21964 17.829 7.65813 22.2215 13.0742 22.2215C18.4903 22.2215 22.9288 17.829 22.9288 12.4335C22.9288 7.03793 18.4903 2.64542 13.0742 2.64542Z" fill="black"/>
<path d="M17.5049 10.5817C17.5049 12.9924 15.5506 14.9466 13.14 14.9466C10.7293 14.9466 8.77502 12.9924 8.77502 10.5817C8.77502 8.17099 10.7293 6.21673 13.14 6.21673C15.5506 6.21673 17.5049 8.17099 17.5049 10.5817Z" fill="black"/>
<path fill-rule="evenodd" clip-rule="evenodd" d="M13.14 12.3012C14.0896 12.3012 14.8595 11.5313 14.8595 10.5817C14.8595 9.63201 14.0896 8.86215 13.14 8.86215C12.1903 8.86215 11.4204 9.63201 11.4204 10.5817C11.4204 11.5313 12.1903 12.3012 13.14 12.3012ZM13.14 14.9466C15.5506 14.9466 17.5049 12.9924 17.5049 10.5817C17.5049 8.17099 15.5506 6.21673 13.14 6.21673C10.7293 6.21673 8.77502 8.17099 8.77502 10.5817C8.77502 12.9924 10.7293 14.9466 13.14 14.9466Z" fill="black"/>
<path d="M6.81445 17.5024L5.27725 19.0396C5.23409 19.0828 5.22514 19.1487 5.25806 19.2001C6.17816 20.6366 8.98359 23.3458 13.3384 23.3458C17.695 23.3458 20.3315 20.6343 21.1606 19.1983C21.19 19.1474 21.18 19.0846 21.1384 19.0431L19.5977 17.5024C18.9776 16.8823 18.1365 16.5339 17.2595 16.5339H9.1527C8.27568 16.5339 7.43459 16.8823 6.81445 17.5024Z" fill="black"/>
</g>
</g>
</svg>
