<svg width="25" height="25" viewBox="0 0 25 25" fill="none" xmlns="http://www.w3.org/2000/svg">
<path fill-rule="evenodd" clip-rule="evenodd" d="M0 3.69116C0 1.6507 1.65412 -0.00341797 3.69458 -0.00341797H19.4581C21.4986 -0.00341797 23.1527 1.6507 23.1527 3.69116V12.7203C23.1527 13.4004 22.6013 13.9518 21.9212 13.9518C21.241 13.9518 20.6897 13.4004 20.6897 12.7203V3.69116C20.6897 3.01101 20.1383 2.45964 19.4581 2.45964H3.69458C3.01443 2.45964 2.46305 3.01101 2.46305 3.69116V21.6912C2.46305 22.4464 3.38022 22.82 3.90789 22.2797L4.16249 22.0191C5.40086 20.7512 7.46566 20.8387 8.59232 22.2068L8.62533 22.2469C8.81437 22.4764 9.16592 22.4764 9.35496 22.2469C10.5034 20.8523 12.627 20.8161 13.8223 22.1708C14.2723 22.6808 14.2237 23.4591 13.7137 23.9091C13.2037 24.3591 12.4255 24.3104 11.9755 23.8004C11.783 23.5823 11.4412 23.5882 11.2563 23.8127C10.082 25.2386 7.89831 25.2386 6.72403 23.8127L6.69102 23.7726C6.49607 23.5359 6.13878 23.5207 5.9245 23.7401L5.6699 24.0007C3.59917 26.1208 0 24.6547 0 21.6912V3.69116Z" fill="#1237BF"/>
<path fill-rule="evenodd" clip-rule="evenodd" d="M4.55665 6.40052C4.55665 5.72037 5.10802 5.169 5.78818 5.169H17.2414C17.9215 5.169 18.4729 5.72037 18.4729 6.40052C18.4729 7.08068 17.9215 7.63205 17.2414 7.63205H5.78818C5.10802 7.63205 4.55665 7.08068 4.55665 6.40052Z" fill="#1237BF"/>
<path fill-rule="evenodd" clip-rule="evenodd" d="M4.55665 11.5729C4.55665 10.8928 5.10802 10.3414 5.78818 10.3414H14.4089C15.089 10.3414 15.6404 10.8928 15.6404 11.5729C15.6404 12.2531 15.089 12.8045 14.4089 12.8045H5.78818C5.10802 12.8045 4.55665 12.2531 4.55665 11.5729Z" fill="#1237BF"/>
<path fill-rule="evenodd" clip-rule="evenodd" d="M4.55665 16.499C4.55665 15.8189 5.10802 15.2675 5.78818 15.2675H12.069C12.7491 15.2675 13.3005 15.8189 13.3005 16.499C13.3005 17.1792 12.7491 17.7306 12.069 17.7306H5.78818C5.10802 17.7306 4.55665 17.1792 4.55665 16.499Z" fill="#1237BF"/>
<path fill-rule="evenodd" clip-rule="evenodd" d="M19.7044 24.9966C22.6291 24.9966 25 22.6257 25 19.701C25 16.7764 22.6291 14.4054 19.7044 14.4054C16.7798 14.4054 14.4089 16.7764 14.4089 19.701C14.4089 22.6257 16.7798 24.9966 19.7044 24.9966ZM22.0742 18.992C22.3628 18.7034 22.3628 18.2356 22.0742 17.947C21.7857 17.6584 21.3178 17.6584 21.0292 17.947L19.0887 19.8876L18.5028 19.3017C18.2142 19.0131 17.7464 19.0131 17.4578 19.3017C17.1692 19.5902 17.1692 20.0581 17.4578 20.3467L18.392 21.2809C18.7768 21.6656 19.4006 21.6656 19.7853 21.2809L22.0742 18.992Z" fill="#1237BF"/>
</svg>
