<svg width="25" height="25" viewBox="0 0 25 25" fill="none" xmlns="http://www.w3.org/2000/svg">
<g id="Proposals">
<g id="B">
<path fill-rule="evenodd" clip-rule="evenodd" d="M0 3.69165C0 1.65119 1.65412 -0.00292969 3.69458 -0.00292969H19.4581C21.4986 -0.00292969 23.1527 1.65119 23.1527 3.69165V12.7208C23.1527 13.4009 22.6013 13.9523 21.9212 13.9523C21.241 13.9523 20.6897 13.4009 20.6897 12.7208V3.69165C20.6897 3.0115 20.1383 2.46012 19.4581 2.46012H3.69458C3.01443 2.46012 2.46305 3.0115 2.46305 3.69165V21.6917C2.46305 22.4468 3.38022 22.8204 3.90789 22.2802L4.16249 22.0195C5.40086 20.7517 7.46566 20.8392 8.59232 22.2073L8.62533 22.2474C8.81437 22.4769 9.16592 22.4769 9.35496 22.2474C10.5034 20.8528 12.627 20.8166 13.8223 22.1713C14.2723 22.6813 14.2237 23.4595 13.7137 23.9095C13.2037 24.3596 12.4255 24.3109 11.9755 23.8009C11.783 23.5828 11.4412 23.5886 11.2563 23.8132C10.082 25.2391 7.89831 25.2391 6.72403 23.8132L6.69102 23.7731C6.49607 23.5363 6.13878 23.5212 5.9245 23.7406L5.6699 24.0012C3.59917 26.1213 0 24.6552 0 21.6917V3.69165Z" fill="black"/>
<path fill-rule="evenodd" clip-rule="evenodd" d="M4.55665 6.40101C4.55665 5.72086 5.10802 5.16948 5.78818 5.16948H17.2414C17.9215 5.16948 18.4729 5.72086 18.4729 6.40101C18.4729 7.08117 17.9215 7.63254 17.2414 7.63254H5.78818C5.10802 7.63254 4.55665 7.08117 4.55665 6.40101Z" fill="black"/>
<path fill-rule="evenodd" clip-rule="evenodd" d="M4.55665 11.5734C4.55665 10.8933 5.10802 10.3419 5.78818 10.3419H14.4089C15.089 10.3419 15.6404 10.8933 15.6404 11.5734C15.6404 12.2536 15.089 12.805 14.4089 12.805H5.78818C5.10802 12.805 4.55665 12.2536 4.55665 11.5734Z" fill="black"/>
<path fill-rule="evenodd" clip-rule="evenodd" d="M4.55665 16.4995C4.55665 15.8194 5.10802 15.268 5.78818 15.268H12.069C12.7491 15.268 13.3005 15.8194 13.3005 16.4995C13.3005 17.1797 12.7491 17.7311 12.069 17.7311H5.78818C5.10802 17.7311 4.55665 17.1797 4.55665 16.4995Z" fill="black"/>
<path fill-rule="evenodd" clip-rule="evenodd" d="M19.7044 24.9971C22.6291 24.9971 25 22.6262 25 19.7015C25 16.7768 22.6291 14.4059 19.7044 14.4059C16.7798 14.4059 14.4089 16.7768 14.4089 19.7015C14.4089 22.6262 16.7798 24.9971 19.7044 24.9971ZM22.0742 18.9925C22.3628 18.7039 22.3628 18.2361 22.0742 17.9475C21.7857 17.6589 21.3178 17.6589 21.0292 17.9475L19.0887 19.888L18.5028 19.3022C18.2142 19.0136 17.7464 19.0136 17.4578 19.3022C17.1692 19.5907 17.1692 20.0586 17.4578 20.3472L18.392 21.2814C18.7768 21.6661 19.4006 21.6661 19.7853 21.2814L22.0742 18.9925Z" fill="black"/>
</g>
</g>
</svg>
