<svg width="500" height="500" viewBox="0 0 500 500" fill="none" xmlns="http://www.w3.org/2000/svg">
<path d="M221.823 137.852L110.562 96.9917V287.304L218.878 321.446L315.69 275.156L418.485 307.55L423.178 128.925L315.69 96.9917L221.823 137.852Z" fill="white"/>
<path fill-rule="evenodd" clip-rule="evenodd" d="M315.157 85.3247C314.834 85.4252 311.496 86.9674 305.31 89.8744C297.243 93.6648 282.571 100.557 276.321 103.492C272.93 105.085 268.147 107.331 265.693 108.485C263.238 109.638 259.221 111.525 256.766 112.677C247.862 116.857 233.764 123.479 227.915 126.227C224.625 127.773 221.594 129.191 221.179 129.377L220.424 129.714L215.381 127.859C212.607 126.839 209.799 125.814 209.141 125.581C208.483 125.348 204.963 124.064 201.319 122.729C197.675 121.393 192.54 119.514 189.908 118.552C187.276 117.59 183.424 116.181 181.349 115.422C176.378 113.603 173.257 112.462 167.361 110.306C164.678 109.325 160.786 107.902 158.71 107.143C156.635 106.383 152.328 104.809 149.14 103.644C145.951 102.48 142.141 101.087 140.673 100.549C139.205 100.012 135.395 98.619 132.207 97.4547C129.018 96.2905 124.794 94.7452 122.82 94.0208C120.846 93.2965 118.195 92.3247 116.93 91.8614C113.388 90.5646 113.656 90.5762 111.362 91.6198C110.274 92.1151 109.016 92.5754 108.567 92.6428C108.117 92.7101 107.615 92.9144 107.45 93.0964C107.127 93.4533 107.076 82.7009 108.195 249.251C108.386 277.743 108.414 290.892 108.285 291.022C107.99 291.317 108.061 291.908 108.474 292.584C108.804 293.126 108.922 293.19 109.439 293.104C109.894 293.029 121.846 296.942 161.747 310.227C190.193 319.698 214.451 327.756 215.654 328.133C217.687 328.77 217.894 328.802 218.599 328.583C219.015 328.454 230.165 322.968 243.376 316.392C256.586 309.816 278.306 299.007 291.642 292.371L315.89 280.306L321.183 282.146C326.092 283.852 335.772 287.2 361.815 296.2C367.484 298.16 373.944 300.395 376.171 301.169C380.98 302.839 396.472 308.193 412.062 313.572C418.237 315.702 423.433 317.531 423.608 317.636C423.784 317.74 424.105 317.826 424.321 317.826C424.684 317.826 426.563 316.73 427.274 316.105C427.682 315.745 427.746 314.637 427.982 303.745C428.616 274.47 428.97 258.971 429.544 235.369C429.898 220.843 430.355 201.337 430.56 192.024C430.766 182.711 431.223 163.253 431.576 148.783C431.929 134.313 432.176 122.34 432.123 122.174C431.942 121.604 430.898 121.014 429.927 120.934C429.414 120.892 428.125 120.581 427.062 120.243C425.999 119.905 423.1 118.995 420.62 118.22C418.14 117.446 415.241 116.534 414.178 116.193C413.115 115.853 410.216 114.942 407.736 114.169C405.256 113.397 402.357 112.485 401.294 112.143C400.231 111.801 390.997 108.903 380.772 105.703C370.548 102.502 361.189 99.5628 359.974 99.1704C358.759 98.778 355.736 97.8248 353.256 97.0521C350.776 96.2795 347.877 95.3682 346.814 95.0272C345.751 94.6863 342.977 93.8159 340.648 93.0929C338.32 92.37 335.421 91.4598 334.206 91.0702C330.253 89.8021 316.739 85.5809 316.077 85.4076C315.723 85.3148 315.309 85.2774 315.157 85.3247ZM310.003 89.5311C307.321 90.798 302.558 93.0392 299.42 94.512C296.282 95.9848 291.685 98.1427 289.205 99.3074C286.725 100.472 283.329 102.066 281.659 102.849C275.515 105.73 266.011 110.195 246.781 119.233C235.949 124.323 225.844 129.064 224.326 129.767C222.807 130.471 221.462 131.131 221.335 131.235C221.131 131.402 220.991 133.035 221.18 133.035C221.337 133.035 224.069 131.755 239.234 124.572C266.217 111.792 279.219 105.635 294.635 98.3392C299.291 96.1354 305.697 93.1012 308.87 91.597C312.043 90.0925 314.755 88.8617 314.898 88.8617C315.082 88.8617 315.157 88.6226 315.157 88.0335C315.157 87.5779 315.095 87.2104 315.019 87.2166C314.943 87.2229 312.686 88.2645 310.003 89.5311ZM316.445 88.0163V88.849L318.608 89.5173C323.217 90.9415 338.456 95.6848 343.409 97.2369C345.13 97.7762 350.182 99.3471 354.637 100.728C359.091 102.108 363.48 103.476 364.391 103.767C365.303 104.058 367.787 104.833 369.913 105.491C380.305 108.704 381.828 109.178 383.625 109.752C384.688 110.093 387.877 111.085 390.711 111.958C393.546 112.831 396.734 113.825 397.797 114.168C398.86 114.51 402.049 115.504 404.883 116.377C407.718 117.25 410.782 118.202 411.693 118.492C412.605 118.782 415.089 119.559 417.215 120.219C419.341 120.879 422.69 121.921 424.658 122.534L428.237 123.65L428.758 123.15L429.28 122.65L428.401 122.399C427.918 122.261 417.749 119.083 405.804 115.337C377.776 106.547 378.027 106.626 375.435 105.795C374.22 105.406 371.321 104.495 368.993 103.77C366.665 103.046 363.766 102.134 362.551 101.746C361.336 101.357 358.437 100.446 356.109 99.7209C353.781 98.9963 350.882 98.0843 349.667 97.6941C348.452 97.3039 345.429 96.3524 342.949 95.5797C340.469 94.807 337.57 93.8952 336.507 93.5536C335.444 93.2118 330.558 91.6759 325.648 90.1402C320.738 88.6044 316.659 87.3109 316.583 87.2658C316.507 87.2205 316.445 87.5582 316.445 88.0163ZM112.697 92.9934C111.705 93.513 111.312 93.2851 116.378 95.1249C118.352 95.8418 120.837 96.7505 121.9 97.1442C122.962 97.5379 125.406 98.4357 127.329 99.1395C129.253 99.8431 133.352 101.347 136.44 102.482C139.527 103.617 144.041 105.272 146.471 106.16C156.365 109.776 168.076 114.071 168.755 114.333C169.152 114.486 179.127 118.146 190.92 122.465C216.968 132.006 219.086 132.783 219.495 132.946C219.775 133.057 219.817 132.958 219.817 132.176V131.277L214.157 129.214C211.044 128.08 206.675 126.481 204.448 125.66C202.221 124.84 199.405 123.811 198.19 123.373C196.975 122.936 193.455 121.651 190.368 120.519C187.28 119.386 182.601 117.673 179.969 116.711C173.985 114.524 168.458 112.502 164.876 111.189C163.358 110.632 160.79 109.696 159.171 109.108C157.551 108.521 153.7 107.112 150.612 105.979C147.525 104.845 142.431 102.981 139.293 101.837C136.155 100.692 131.972 99.1614 129.998 98.4357C128.024 97.71 125.415 96.7567 124.2 96.3174C122.985 95.8782 120.169 94.8496 117.942 94.0314C115.715 93.2135 113.81 92.5476 113.709 92.5518C113.608 92.5561 113.152 92.7547 112.697 92.9934ZM310.248 104.192L306.167 106.058L306.064 107.721C306.007 108.635 305.793 118.08 305.587 128.71C305.381 139.339 305.159 150.611 305.095 153.759C305.008 157.996 305.032 159.516 305.19 159.613C305.306 159.685 305.402 159.945 305.402 160.189C305.402 160.533 305.058 160.886 303.883 161.75C286.651 174.417 247.492 202.714 247.132 202.759C246.87 202.792 246.518 202.698 246.35 202.55C246.182 202.401 244.429 201.644 242.455 200.866C240.481 200.088 236.783 198.624 234.237 197.614L229.608 195.778L224.831 198.167L220.054 200.557L219.919 213.836C219.844 221.139 219.818 227.15 219.862 227.193C219.905 227.236 223.163 225.072 227.103 222.384C231.042 219.696 237.143 215.534 240.662 213.135C244.18 210.736 249.853 206.865 253.269 204.533C256.685 202.201 262.462 198.26 266.106 195.776C269.751 193.292 275.755 189.198 279.45 186.68C286.643 181.777 294.866 176.165 306.178 168.439C310.054 165.792 313.521 163.452 313.884 163.239L314.544 162.851L314.669 132.746C314.739 116.188 314.747 102.564 314.689 102.469C314.631 102.375 314.526 102.304 314.456 102.312C314.386 102.32 312.492 103.166 310.248 104.192ZM316.383 116.776C316.316 124.234 316.261 137.538 316.261 146.342V162.35L317.043 162.242C317.474 162.184 320.393 161.84 323.531 161.48C326.669 161.12 332.757 160.412 337.059 159.907C341.362 159.402 347.739 158.653 351.232 158.243C354.724 157.833 360.77 157.131 364.668 156.684C376.591 155.314 382.363 154.604 382.473 154.494C382.691 154.276 381.36 123.331 381.123 123.103C381.031 123.015 376.857 121.685 371.846 120.147C359.959 116.5 344.98 111.898 329.347 107.09C322.423 104.96 316.701 103.218 316.631 103.218C316.562 103.218 316.451 109.319 316.383 116.776ZM300.064 108.823C296.297 110.551 281.234 117.4 262.609 125.854C258.661 127.646 252.171 130.592 248.187 132.402C242.89 134.808 240.906 135.793 240.805 136.066C240.729 136.272 240.606 139.753 240.534 143.802C240.461 147.851 240.213 158.867 239.983 168.281C239.754 177.696 239.577 185.415 239.591 185.435C239.604 185.456 242.843 183.216 246.787 180.458C276.638 159.586 275.953 160.074 275.953 159.652C275.953 158.819 277.806 136.797 277.903 136.486C277.958 136.309 278.225 136.112 278.496 136.047C278.915 135.947 284.507 132.962 294.911 127.285C296.176 126.595 297.65 125.806 298.185 125.533L299.159 125.037L299.047 123.1C298.985 122.035 298.92 118.554 298.901 115.366L298.868 109.568H299.418C299.826 109.568 300.021 109.687 300.176 110.028C300.307 110.315 300.464 113.112 300.596 117.482C300.712 121.329 300.895 126.85 301.003 129.751C301.22 135.572 301.192 135.796 300.237 135.796C299.528 135.796 299.328 135.298 299.327 133.529C299.327 132.802 299.273 131.028 299.207 129.587L299.087 126.967L297.781 127.679C297.063 128.071 294.529 129.448 292.15 130.738C281.498 136.517 279.717 137.494 279.564 137.64C279.363 137.832 279.289 138.631 278.341 150.796C277.807 157.649 277.506 160.668 277.328 160.946C277.188 161.163 271.707 165.093 265.148 169.68C258.589 174.266 250.117 180.194 246.32 182.853C239.083 187.922 238.697 188.13 238.138 187.277C237.843 186.827 237.907 182.464 238.694 149.355C238.857 142.489 238.946 136.826 238.89 136.77C238.792 136.672 233.464 139.016 233.226 139.262C233.098 139.394 232.896 145.756 232.337 167.361C231.894 184.443 231.77 187.97 231.604 188.238C231.533 188.354 228.913 189.804 225.783 191.46L220.093 194.472L220.041 196.515C220.005 197.897 220.053 198.558 220.189 198.558C220.299 198.558 222.358 197.564 224.764 196.35C227.169 195.135 229.324 194.141 229.551 194.141C230.022 194.141 231.181 194.577 240.308 198.191C243.935 199.627 247.054 200.762 247.239 200.714C247.423 200.666 260.13 191.496 275.476 180.336L303.377 160.046L303.378 158.918C303.38 157.513 304.237 118.095 304.407 111.638C304.478 108.916 304.462 106.904 304.368 106.912C304.279 106.918 302.342 107.779 300.064 108.823ZM119.62 108.349C119.585 108.412 119.622 114.468 119.701 121.807C119.78 129.147 119.904 140.837 119.978 147.785L120.111 160.419L123.706 164.718C125.683 167.083 131.693 174.277 137.061 180.705C142.429 187.133 148.071 193.883 149.599 195.705C151.128 197.528 155.56 202.828 159.448 207.485C163.337 212.141 168.361 218.154 170.614 220.846L174.71 225.741L178.536 225.868C180.64 225.937 190.106 226.281 199.571 226.632C209.036 226.983 217.08 227.27 217.447 227.27L218.114 227.271L218.252 214.102C218.327 206.86 218.336 200.881 218.271 200.816C218.16 200.706 209.446 199.889 200.767 199.176C197.033 198.869 196.888 198.842 196.488 198.386C196.261 198.126 187.915 188.306 177.943 176.564C164.981 161.301 159.762 155.03 159.638 154.569C159.471 153.946 158.893 131.487 158.894 125.649C158.894 123.57 158.831 122.721 158.664 122.585C158.538 122.482 157.73 122.148 156.87 121.842C156.009 121.536 153.359 120.567 150.98 119.688C148.601 118.809 146.117 117.899 145.459 117.665C144.801 117.431 142.316 116.523 139.937 115.647C135.962 114.183 129.923 111.971 122.586 109.293C120.99 108.711 119.655 108.286 119.62 108.349ZM160.553 124.326C160.554 124.915 160.674 130.407 160.819 136.532C160.964 142.656 161.108 149.143 161.139 150.948L161.195 154.229L164.668 158.31C166.578 160.555 169.688 164.214 171.579 166.441C190.284 188.468 197.264 196.673 197.52 196.932C197.76 197.176 198.713 197.318 202.147 197.623C208.29 198.169 217.441 198.924 217.93 198.925C218.336 198.926 218.344 198.885 218.344 196.729V194.532L217.562 194.428C217.132 194.371 213.195 193.997 208.814 193.596C204.433 193.196 200.766 192.817 200.665 192.754C200.563 192.691 200.379 192.405 200.256 192.117C200.068 191.678 193.612 183.931 175.568 162.489C174.16 160.816 171.812 158.018 170.351 156.272C168.89 154.526 167.625 153.097 167.541 153.097C167.456 153.097 167.253 152.963 167.09 152.799C166.818 152.527 166.803 151.304 166.92 139.041L167.049 125.581L164.214 124.544C160.105 123.041 160.551 123.068 160.553 124.326ZM383.022 125.074C383.551 135.525 384.3 155.074 384.183 155.382C384.1 155.601 383.919 155.871 383.782 155.982C383.645 156.093 382.001 156.359 380.128 156.574C378.255 156.789 374.238 157.256 371.201 157.612C368.165 157.968 362.491 158.626 358.594 159.075C351.105 159.937 343.315 160.848 331.814 162.207C327.967 162.661 322.915 163.247 320.588 163.508C318.261 163.77 316.314 164.026 316.263 164.077C316.211 164.128 316.144 166.607 316.113 169.585C316.068 173.945 316.103 174.999 316.297 174.999C316.429 174.999 319.229 174.673 322.519 174.273C325.809 173.873 332.725 173.041 337.888 172.423C343.05 171.805 350.008 170.969 353.348 170.564C356.689 170.16 361.493 169.587 364.023 169.29C366.554 168.993 372.06 168.334 376.258 167.826C385.143 166.749 385.412 166.735 385.634 167.319C385.774 167.687 386.19 181.387 386.754 204.172C387.338 227.718 387.874 247.674 387.968 249.298L388.076 251.171L399.957 264.574C413.282 279.607 413.269 279.593 413.349 279.51C413.38 279.477 413.498 274.564 413.611 268.591L413.814 257.732L407.919 251.934C401.851 245.966 401.649 245.716 402.336 245.029C402.621 244.744 402.596 241.557 401.963 198.128C401.589 172.5 401.242 147.805 401.192 143.25C401.141 138.694 401.053 133.634 400.995 132.005L400.89 129.042L398.561 128.348C397.281 127.966 395.363 127.381 394.3 127.047C389.956 125.682 383.258 123.648 383.109 123.648C383.021 123.648 382.982 124.29 383.022 125.074ZM429.825 124.474L429.395 124.932L429.158 133.631C429.028 138.415 428.75 149.494 428.539 158.25C428.329 167.007 427.83 186.553 427.43 201.687C427.031 216.821 426.618 232.806 426.514 237.21C426.107 254.374 424.746 306.659 424.563 312.166C424.497 314.165 424.495 315.801 424.558 315.801C424.622 315.801 424.957 315.616 425.301 315.39L425.928 314.979L426.03 313.136C426.086 312.121 426.178 308.766 426.235 305.678C426.292 302.59 426.666 286.44 427.067 269.787C427.467 253.135 427.961 231.973 428.165 222.761C428.369 213.549 428.784 195.742 429.089 183.19C430.292 133.544 430.494 124.016 430.343 124.016C430.295 124.016 430.062 124.222 429.825 124.474ZM168.568 138.809L168.433 151.394L173.004 156.818C175.519 159.802 183.074 168.787 189.793 176.786L202.01 191.33L205.438 191.645C214.903 192.516 218.388 192.768 218.441 192.584C218.576 192.117 218.897 144.742 218.767 144.615C218.686 144.537 211.911 142.018 203.712 139.016C195.512 136.015 187.934 133.239 186.871 132.847C185.808 132.456 184.151 131.845 183.19 131.491C179.382 130.088 168.785 126.225 168.745 126.225C168.722 126.225 168.642 131.888 168.568 138.809ZM402.722 129.86C402.685 129.936 402.758 136.79 402.883 145.09C403.008 153.391 403.239 169.832 403.396 181.625C403.553 193.419 403.816 212.675 403.981 224.418L404.28 245.768L408.991 250.501C411.582 253.103 413.726 255.208 413.757 255.178C413.871 255.064 415.659 156.118 415.878 137.735L415.927 133.694L409.485 131.708C405.942 130.617 402.986 129.723 402.916 129.722C402.846 129.722 402.759 129.784 402.722 129.86ZM225.982 142.494L220.645 144.93L220.532 150.808C220.469 154.041 220.355 164.754 220.278 174.614L220.137 192.543L222.047 191.525C223.098 190.965 225.345 189.785 227.041 188.903L230.124 187.299V186.167C230.124 185.544 230.416 175.095 230.775 162.946C231.133 150.797 231.402 140.678 231.373 140.458C231.324 140.087 230.946 140.23 225.982 142.494ZM120.243 169.347V175.291L125.167 181.087C131.272 188.275 139.749 198.241 143.079 202.147C164.255 226.983 168.12 231.601 168.031 231.957C167.98 232.163 166.946 235.521 165.734 239.418C164.523 243.316 162.11 251.143 160.374 256.812C158.637 262.48 156.73 268.692 156.135 270.616C155.081 274.024 151.419 285.976 150.128 290.217C149.774 291.382 149.332 292.547 149.146 292.808L148.808 293.282L153.161 294.723C155.555 295.515 157.628 296.171 157.768 296.181C157.943 296.194 158.265 295.313 158.805 293.346C160.352 287.712 161.841 282.309 163.22 277.334C163.991 274.55 164.861 271.402 165.152 270.34C165.444 269.277 166.314 266.129 167.085 263.345C167.857 260.562 168.938 256.648 169.489 254.649C170.039 252.65 170.941 249.378 171.492 247.379C172.042 245.38 172.868 242.381 173.326 240.716C174.011 238.225 174.255 237.593 174.7 237.147L175.242 236.606L194.999 237.09C205.865 237.356 215.471 237.61 216.345 237.654L217.936 237.735L218.071 233.415C218.145 231.039 218.174 229.064 218.135 229.025C218.065 228.955 209.571 228.638 182.916 227.711C174.97 227.435 174.607 227.407 173.953 227.017C173.125 226.522 173.627 227.101 163.86 215.399C156.347 206.397 153.156 202.579 141.869 189.079C139.33 186.043 133.463 179.023 128.832 173.481C124.202 167.939 120.375 163.404 120.328 163.404C120.281 163.404 120.243 166.078 120.243 169.347ZM309.399 168.235C306.697 170.083 303.263 172.427 301.769 173.446C300.275 174.464 289.113 182.077 276.966 190.364C241.564 214.514 239.367 216.013 236.658 217.858C235.24 218.823 231.886 221.113 229.203 222.947C226.521 224.781 223.311 226.967 222.071 227.804L219.817 229.327V233.178V237.028L221.335 236.079C224.182 234.301 234.813 227.604 236.197 226.718C241.981 223.014 255.375 214.644 256.014 214.333L256.805 213.949L257.286 214.398C257.739 214.822 259.721 217.245 271.024 231.196C273.634 234.417 275.769 237.192 275.769 237.361C275.768 237.531 275.522 240.776 275.221 244.572C274.92 248.368 274.384 255.408 274.03 260.217C273.677 265.025 273.099 272.645 272.746 277.15C271.979 286.938 271.81 289.665 271.97 289.665C272.064 289.665 280.924 285.287 281.044 285.182C281.081 285.148 281.782 273.991 282.027 269.511C282.194 266.468 283.907 238.353 284.116 235.241C284.172 234.397 284.115 233.989 283.897 233.676C283.735 233.443 282.035 231.306 280.119 228.927C273.475 220.68 271.61 218.365 267.978 213.863C265.97 211.374 264.252 209.196 264.16 209.023C263.905 208.547 264.143 208.152 264.928 207.752C265.581 207.419 269.074 205.217 285.064 195.061C288.303 193.003 291.13 191.284 291.346 191.241C291.562 191.197 291.941 191.273 292.189 191.409C292.437 191.545 297.478 196.734 303.392 202.94L314.145 214.224L314.26 211.683C314.324 210.285 314.386 207.796 314.398 206.153L314.421 203.163L308.945 196.872C305.934 193.412 302.657 189.646 301.664 188.502C299.889 186.457 299.429 185.582 299.828 185.004C300.107 184.6 313.754 175.551 314.086 175.551C314.398 175.551 314.421 175.308 314.421 171.899C314.421 169.89 314.474 167.488 314.54 166.561C314.613 165.541 314.591 164.876 314.486 164.876C314.39 164.876 312.101 166.388 309.399 168.235ZM378.564 169.215C371.976 170.024 354.069 172.178 339.636 173.898C335.435 174.398 329.969 175.053 327.488 175.354C325.008 175.654 321.426 176.083 319.528 176.306L316.077 176.711V189.379V202.047L316.491 201.87C316.87 201.707 323.127 201.23 334.575 200.491C337.004 200.335 342.429 199.959 346.63 199.658C364.328 198.387 364.841 198.359 365.432 198.665C365.729 198.818 366.048 199.126 366.141 199.349C366.235 199.572 366.479 209.942 366.684 222.393C366.889 234.845 367.111 247.336 367.177 250.153L367.297 255.273L371.555 259.908C373.897 262.456 382.82 272.162 391.384 281.475L406.954 298.408L409.784 299.308C411.34 299.803 412.708 300.241 412.822 300.282C412.974 300.336 413.062 298.698 413.143 294.321C413.204 291.001 413.294 286.939 413.342 285.295L413.429 282.305L409.063 277.381C403.628 271.25 397.601 264.457 391.549 257.64C388.988 254.755 386.78 252.225 386.643 252.019C386.474 251.764 386.36 250.724 386.288 248.798C386.115 244.159 384.179 171.159 384.178 169.248C384.177 168.704 384.109 168.562 383.855 168.581C383.678 168.594 381.297 168.879 378.564 169.215ZM307.963 181.465C304.479 183.806 301.606 185.741 301.578 185.764C301.55 185.788 303.537 188.123 305.995 190.952C308.453 193.781 311.292 197.058 312.304 198.233C313.316 199.408 314.207 200.376 314.283 200.384C314.358 200.392 314.421 195.181 314.421 188.803C314.421 182.426 314.393 177.208 314.359 177.208C314.325 177.208 311.447 179.123 307.963 181.465ZM120.493 190.874C120.649 206.51 121.286 262.211 121.454 274.869L121.578 284.275L133.38 288.197C139.871 290.354 145.783 292.306 146.517 292.534L147.851 292.95V292.435C147.851 291.943 148.548 289.46 149.687 285.892C149.978 284.981 151.266 280.798 152.549 276.597C153.832 272.396 155.735 266.184 156.778 262.793C157.82 259.402 160.219 251.575 162.107 245.4C163.996 239.225 165.701 233.686 165.895 233.09L166.249 232.008L165.839 231.521C165.613 231.252 163.606 228.89 161.379 226.27C159.152 223.65 156.543 220.58 155.582 219.446C154.62 218.313 151.725 214.91 149.148 211.883C146.572 208.857 139.091 200.065 132.525 192.346C125.96 184.628 120.538 178.312 120.477 178.312C120.417 178.312 120.424 183.965 120.493 190.874ZM290.125 193.855C288.982 194.62 287.75 195.405 278.99 200.947C268.019 207.889 266.382 208.967 266.469 209.195C266.52 209.325 268.214 211.478 270.235 213.98C283.346 230.209 285.892 233.415 285.892 233.697C285.892 233.87 285.646 237.94 285.344 242.743C285.043 247.545 284.668 253.752 284.512 256.535C284.131 263.286 282.985 281.961 282.876 283.177C282.829 283.709 282.861 284.144 282.948 284.144C283.166 284.144 287.446 282.059 301.43 275.144C308.002 271.894 313.517 269.235 313.686 269.235C313.967 269.235 314.002 268.236 314.114 256.95C314.181 250.192 314.236 238.377 314.236 230.693L314.237 216.722L312.533 214.956C311.596 213.985 306.527 208.677 301.268 203.16C296.009 197.643 291.62 193.112 291.514 193.092C291.408 193.072 290.783 193.415 290.125 193.855ZM363.931 200.149C363.678 200.183 359.62 200.463 354.913 200.77C350.205 201.077 342.379 201.614 337.519 201.963C323.29 202.987 317.122 203.373 316.609 203.273L316.128 203.179L315.993 208.894C315.919 212.038 315.928 214.677 316.014 214.76C316.099 214.842 321.014 214.548 326.936 214.105C344.889 212.762 350.385 212.392 350.906 212.492C351.18 212.544 351.502 212.704 351.62 212.847C351.839 213.111 352.308 221.862 353.348 245.124C354.06 261.026 355.057 281.405 355.127 281.472C355.161 281.505 361.483 283.574 369.177 286.071C380.732 289.822 395.702 294.694 401.985 296.75C402.719 296.99 403.318 297.13 403.317 297.061C403.315 296.992 401.638 295.109 399.59 292.876C397.541 290.643 389.375 281.74 381.444 273.09C373.512 264.441 366.703 257.074 366.312 256.719L365.602 256.075L365.407 244.388C365.299 237.96 365.09 225.785 364.94 217.332C364.791 208.879 364.669 201.529 364.668 200.997C364.668 200.465 364.605 200.043 364.529 200.058C364.454 200.073 364.184 200.114 363.931 200.149ZM341.845 214.662C337.542 214.995 330.295 215.528 325.74 215.845C321.185 216.163 317.106 216.472 316.675 216.53L315.893 216.637L315.893 235.528C315.893 245.918 315.838 257.711 315.771 261.735L315.649 269.051H316.24C316.564 269.051 324.997 271.703 334.979 274.943C344.961 278.184 353.168 280.796 353.216 280.748C353.324 280.64 352.924 271.286 351.968 251.474C351.572 243.274 351.073 232.549 350.859 227.639C350.28 214.325 350.266 214.12 349.943 214.086C349.791 214.07 346.147 214.329 341.845 214.662ZM252.578 218.365C250.604 219.621 247.623 221.508 245.952 222.558C244.282 223.609 242.004 225.045 240.891 225.749C236.65 228.431 226.586 234.772 223.498 236.707C221.726 237.818 220.145 238.841 219.985 238.982C219.724 239.209 219.679 240.904 219.571 254.65C219.504 263.128 219.361 279.216 219.252 290.401C219.143 301.587 219.081 311.864 219.114 313.238L219.172 315.737L222.768 313.975C227.06 311.87 239.875 305.542 257.318 296.914C264.52 293.352 270.064 290.504 270.064 290.367C270.064 290.234 270.31 287.019 270.611 283.223C270.911 279.427 271.369 273.381 271.629 269.787C271.889 266.194 272.469 258.532 272.918 252.762C273.367 246.992 273.789 241.236 273.855 239.971L273.977 237.67L269.495 232.148C267.031 229.111 263.104 224.272 260.77 221.395C258.436 218.517 256.446 216.145 256.347 216.122C256.248 216.099 254.552 217.108 252.578 218.365ZM175.776 238.433C175.723 238.519 175.129 240.578 174.456 243.007C173.783 245.437 172.91 248.584 172.516 250.001C171.835 252.451 168.718 263.744 166.141 273.1C165.486 275.479 164.628 278.585 164.234 280.002C160.603 293.062 159.629 296.729 159.757 296.845C159.839 296.919 162.433 297.812 165.521 298.829C175.464 302.104 210.232 313.59 213.63 314.723C215.441 315.327 217.022 315.783 217.143 315.736C217.31 315.672 217.392 311.637 217.484 298.931C217.551 289.735 217.699 272.621 217.813 260.899C217.928 249.177 217.963 239.528 217.891 239.456C217.767 239.332 211.095 239.14 191.748 238.702C186.889 238.592 181.33 238.452 179.393 238.389C177.457 238.327 175.83 238.346 175.776 238.433Z" fill="#1237BF"/>
<path d="M483.082 347.43L294.359 352.844L307.058 332.072L308.929 219.941H466.346V328.429L483.082 347.43Z" fill="white"/>
<path fill-rule="evenodd" clip-rule="evenodd" d="M409.113 216.59C409.087 216.611 386.117 216.687 358.069 216.757C305.163 216.891 306.112 216.875 305.344 217.643C305.168 217.819 305.072 220.024 304.98 225.995C304.911 230.456 304.758 238.404 304.64 243.656C304.017 271.295 303.68 287.167 303.427 300.756C303.321 306.441 303.147 314.194 303.04 317.984C302.932 321.774 302.844 326.921 302.843 329.421L302.84 333.968L299.897 337.691C298.279 339.739 295.621 343.098 293.991 345.155C291.087 348.821 290.679 349.546 291.21 350.088C291.429 350.311 292.009 353.333 292.153 355C292.209 355.65 292.351 356.302 292.47 356.449C292.643 356.664 293.355 356.692 296.138 356.593C299.853 356.46 310.639 356.204 312.094 356.213C312.582 356.216 314.664 356.146 316.721 356.058C320.099 355.913 330.564 355.655 335.328 355.599C339.682 355.548 362.3 354.958 366.437 354.788C368.224 354.714 370.705 354.628 371.95 354.598C376.445 354.487 383.336 354.297 386.422 354.198C392.17 354.013 394.837 353.943 400.303 353.833C403.281 353.773 409.35 353.632 413.79 353.52C418.23 353.408 432.362 353.052 445.195 352.731C483.754 351.764 485.255 351.719 485.477 351.538C486.074 351.049 486.212 349.823 486.014 346.743C485.817 343.66 485.687 343.197 484.94 342.918C484.754 342.849 481.55 340.246 477.819 337.133C473.203 333.284 471.011 331.332 470.962 331.03C470.887 330.569 471.03 290.724 471.275 244.032C471.407 218.864 471.394 217.116 471.081 216.803C470.768 216.49 468.713 216.471 439.954 216.51C423.018 216.533 409.14 216.569 409.113 216.59ZM436.925 223.518C436.655 223.542 424.339 223.655 409.557 223.768C394.775 223.882 373.023 224.059 361.219 224.161C349.416 224.263 333.516 224.398 325.886 224.46C318.256 224.521 311.974 224.612 311.925 224.661C311.783 224.804 311.312 259.79 310.919 299.476C310.812 310.305 310.684 321.23 310.634 323.754C310.556 327.721 310.584 328.358 310.841 328.457C311.004 328.519 319.172 328.38 328.992 328.147C346.994 327.72 369.386 327.198 393.313 326.649C400.46 326.485 409.852 326.263 414.184 326.156C421.47 325.976 426.117 325.88 437.713 325.669C452.062 325.408 463.431 325.096 463.583 324.958C463.753 324.805 464.662 246.836 464.679 230.993L464.687 223.35L451.052 223.412C443.553 223.447 437.196 223.494 436.925 223.518ZM326.154 236.711L325.546 237.276L325.42 240.023C325.3 242.675 325.188 270.559 325.188 297.952C325.188 313.094 325.419 311.533 323.21 311.296C322.032 311.17 321.95 311.189 321.644 311.655C321.163 312.389 321.42 314.74 322.058 315.428C322.51 315.916 322.565 315.924 324.74 315.839C325.961 315.791 334.004 315.478 342.613 315.143C358.024 314.544 373.486 313.916 381.795 313.552C384.123 313.45 393.205 313.096 401.977 312.766C410.748 312.435 421.159 312.028 425.112 311.862C429.064 311.695 433.184 311.522 434.267 311.476C435.35 311.43 439.243 311.271 442.917 311.122C450.669 310.808 450.12 310.994 450.483 308.549C450.791 306.48 450.613 306.072 449.403 306.072H448.482L448.608 300.116C448.734 294.197 449.011 275.505 449.311 252.714C449.476 240.131 449.46 239.816 448.599 239.355C448.395 239.246 446.846 239.094 445.155 239.016L442.082 238.876L441.571 239.387L441.06 239.897L441.057 244.386C441.048 255.426 440.301 306.278 440.145 306.453C439.996 306.619 435.25 306.838 435.097 306.685C435.012 306.6 434.901 293.771 434.85 278.177C434.758 249.988 434.759 249.821 435.152 249.466C435.659 249.007 435.655 248.48 435.141 248.12C434.807 247.886 433.902 247.85 429.977 247.918C427.36 247.963 425.147 248.07 425.061 248.157C424.975 248.243 424.856 253.313 424.798 259.423L424.692 270.532L424.213 270.893C423.604 271.352 423.601 271.98 424.205 272.494L424.676 272.895L424.481 289.927C424.374 299.294 424.228 307.02 424.157 307.096C424.006 307.258 410.329 307.832 410.07 307.687C409.967 307.63 409.955 300.475 410.04 290.444C410.18 273.896 410.198 273.291 410.56 273.037C411.051 272.693 411.041 271.882 410.541 271.57C410.158 271.33 410.148 271.109 410.145 263.348C410.143 258.961 410.077 255.273 409.997 255.153C409.917 255.033 409.561 254.785 409.205 254.603C408.64 254.313 408.138 254.288 405.267 254.405C401.673 254.551 400.987 254.735 400.767 255.612C400.694 255.902 400.69 259.743 400.757 264.147C400.825 268.551 400.825 272.209 400.757 272.277C400.69 272.344 400.521 272.305 400.382 272.19C400.243 272.075 399.881 272.009 399.576 272.044C399.131 272.095 399.01 272.218 398.958 272.677C398.859 273.541 399.749 273.913 400.387 273.275C400.557 273.105 400.699 273.038 400.703 273.127C400.943 279.544 401.018 307.799 400.795 308.012C400.687 308.116 398.464 308.265 395.856 308.342L391.114 308.483L390.983 298.385C390.911 292.831 390.852 285.177 390.852 281.377C390.852 274.68 390.864 274.459 391.246 274.221C391.685 273.946 391.772 273.145 391.393 272.85C390.863 272.435 389.471 272.298 387.111 272.428C385.757 272.502 384.134 272.571 383.503 272.581C382.497 272.597 382.281 272.675 381.751 273.204L381.147 273.808L381.271 275.911C381.4 278.073 381.696 298.512 381.696 305.186V308.927L379.432 309.05C378.187 309.117 375.617 309.206 373.722 309.247L370.277 309.321L370.229 295.44C370.203 287.805 370.248 275.135 370.328 267.284C370.492 251.129 370.413 245.386 370.021 244.995C369.823 244.797 368.775 244.752 365.42 244.794C363.03 244.824 360.916 244.934 360.722 245.038C360.527 245.142 360.179 245.534 359.947 245.909C359.535 246.576 359.527 246.717 359.636 251.966C359.698 254.922 359.788 262.568 359.837 268.957C359.886 275.347 359.987 287.143 360.062 295.172L360.197 309.77L357.656 309.891C356.259 309.957 354.429 310.047 353.59 310.091C352.751 310.134 352.023 310.103 351.973 310.022C351.874 309.861 351.556 286.869 351.376 266.763L351.262 254.134L352.106 253.867C352.793 253.649 352.961 253.501 353.011 253.07C353.083 252.442 352.286 251.794 351.721 252.022C351.53 252.099 349.485 252.22 347.175 252.29C343.331 252.407 342.951 252.45 342.696 252.8C342.409 253.191 342.415 265.79 342.717 298.216C342.781 305.183 342.75 309.748 342.635 310.051C342.448 310.54 342.432 310.543 339.331 310.65C337.616 310.708 336.169 310.714 336.115 310.662C336.061 310.609 336.012 307.806 336.007 304.431C335.98 288.967 335.662 244.722 335.55 241.113L335.426 237.093L334.737 236.694C334.128 236.341 333.625 236.286 330.405 236.219L326.763 236.145L326.154 236.711ZM327.38 242.327C327.317 244.629 327.217 260.937 327.157 278.569C327.098 296.201 327.029 310.732 327.005 310.86C326.971 311.033 327.766 311.079 330.11 311.038C331.843 311.007 333.458 310.94 333.701 310.887L334.141 310.791L334.054 299.424C334.006 293.172 333.909 276.981 333.839 263.444C333.763 248.935 333.636 238.691 333.528 238.488C333.366 238.183 333.005 238.143 330.42 238.143H327.495L327.38 242.327ZM443.147 241.121C443.1 241.27 443.007 246.62 442.941 253.009C442.874 259.398 442.738 269.499 442.639 275.455C442.539 281.411 442.395 290.836 442.318 296.4L442.179 306.517L444.327 306.373C445.508 306.293 446.498 306.207 446.525 306.181C446.553 306.155 446.669 300.117 446.782 292.763C447.31 258.464 447.512 241.381 447.393 241.261C447.321 241.188 446.356 241.066 445.248 240.989C443.618 240.876 443.216 240.901 443.147 241.121ZM363.94 246.753L361.541 246.818L361.627 255.033C361.674 259.551 361.81 273.658 361.93 286.382C362.05 299.107 362.186 309.558 362.232 309.607C362.426 309.812 367.725 309.579 367.941 309.356C368.104 309.186 368.207 301.045 368.324 279.097C368.412 262.583 368.489 248.539 368.494 247.89L368.504 246.708L367.422 246.697C366.826 246.691 365.259 246.716 363.94 246.753ZM407.984 248.675C407.667 249.056 407.88 249.885 408.324 250C408.81 250.126 409.134 249.985 409.369 249.546C409.822 248.7 408.6 247.932 407.984 248.675ZM420.589 248.961C420.265 249.566 420.66 250.195 421.315 250.116C421.974 250.037 422.334 249.493 422.039 249.022C421.715 248.505 420.853 248.468 420.589 248.961ZM401.331 249.082C400.704 249.522 400.743 250.44 401.408 250.876C401.87 251.178 401.978 251.183 402.442 250.924C403.156 250.525 403.259 249.529 402.633 249.09C402.074 248.698 401.881 248.697 401.331 249.082ZM413.804 249.085C413.407 249.482 413.415 249.618 413.866 250.174C414.193 250.578 414.297 250.604 414.752 250.397C415.092 250.242 415.267 250.007 415.267 249.705C415.267 248.836 414.415 248.475 413.804 249.085ZM396.601 249.406C396.243 249.764 396.318 250.444 396.76 250.844C397.086 251.139 397.24 251.162 397.646 250.977C398.524 250.577 398.217 249.169 397.251 249.169C397.024 249.169 396.731 249.276 396.601 249.406ZM389.71 249.799C389.152 250.357 389.661 251.532 390.461 251.532C390.801 251.532 391.443 250.86 391.443 250.504C391.443 250.213 390.654 249.563 390.301 249.563C390.106 249.563 389.84 249.67 389.71 249.799ZM383.35 250.525C382.946 250.852 382.919 250.956 383.127 251.411C383.501 252.231 384.748 252.015 384.748 251.129C384.748 250.83 384.172 250.154 383.918 250.154C383.857 250.154 383.601 250.321 383.35 250.525ZM375.213 250.857C374.55 251.52 375.069 252.469 375.971 252.243C376.611 252.082 376.811 251.418 376.367 250.927C375.951 250.467 375.623 250.447 375.213 250.857ZM356.311 252.163C356.052 252.533 356.046 252.656 356.274 253C356.421 253.221 356.69 253.432 356.872 253.468C357.687 253.63 358.13 252.327 357.393 251.933C356.84 251.637 356.651 251.677 356.311 252.163ZM404.241 256.441L402.764 256.553L402.814 276.045C402.841 286.766 402.918 298.351 402.985 301.789L403.106 308.041L404.412 308.019C405.13 308.008 406.245 307.941 406.89 307.872L408.062 307.745L408.135 282.002L408.208 256.258L406.963 256.293C406.278 256.313 405.053 256.379 404.241 256.441ZM416.094 271.261C415.964 271.391 415.858 271.683 415.858 271.911C415.858 272.468 416.223 272.797 416.842 272.797C417.461 272.797 417.827 272.468 417.827 271.911C417.827 271.354 417.461 271.025 416.842 271.025C416.56 271.025 416.224 271.131 416.094 271.261ZM420.498 271.459C420.239 271.828 420.234 271.952 420.462 272.295C420.972 273.066 421.961 272.822 421.961 271.926C421.961 271.016 421.019 270.715 420.498 271.459ZM412.206 271.898C411.78 272.547 412.111 273.191 412.872 273.191C413.521 273.191 413.889 272.87 413.889 272.305C413.889 271.365 412.737 271.086 412.206 271.898ZM396.1 272.566C395.646 273.068 395.694 273.522 396.24 273.88C396.759 274.221 397.462 274.063 397.928 273.501C398.135 273.251 398.145 273.07 397.973 272.692C397.697 272.085 396.602 272.011 396.1 272.566ZM393.13 272.712C392.96 272.883 392.821 273.142 392.821 273.289C392.821 273.634 393.362 274.175 393.707 274.175C394.094 274.175 394.593 273.617 394.593 273.183C394.593 272.832 394.067 272.403 393.635 272.403C393.528 272.403 393.301 272.542 393.13 272.712ZM458.174 331.941C458.1 332.009 451.04 332.169 439.78 332.357C431.282 332.5 309.214 335.449 308.828 335.521C308.582 335.567 306.905 337.403 304.662 340.081C302.597 342.547 300.195 345.406 299.324 346.435C298.453 347.464 297.803 348.364 297.878 348.436C298.001 348.551 311.098 348.174 353.245 346.841C375.917 346.124 436.181 344.303 461.045 343.584C473.879 343.212 476.698 343.086 476.698 342.881C476.698 342.79 476.005 342.112 475.157 341.376C474.31 340.639 471.561 338.198 469.049 335.951L464.481 331.865H461.369C459.656 331.865 458.219 331.899 458.174 331.941Z" fill="#1237BF"/>
<path d="M236.176 258.827C230.506 297.97 233.814 335.649 236.176 349.595C246.336 353.612 271.519 351.269 282.84 349.595C287.329 311.24 284.711 273.102 282.84 258.827C260.316 251.739 242.346 255.874 236.176 258.827Z" fill="white"/>
<path fill-rule="evenodd" clip-rule="evenodd" d="M240.647 254.257C238.838 254.784 237.431 255.593 236.106 256.866C233.641 259.232 232.817 261.774 232.287 268.652C231.372 280.497 231.118 296.327 231.573 313.051C232.275 338.841 232.828 346.272 234.399 351.036C235.372 353.985 236.631 354.968 240.352 355.683C244.175 356.418 247.473 356.69 250.886 356.551C252.619 356.481 258.555 356.402 264.078 356.375C272.044 356.337 274.486 356.264 275.892 356.024C282.209 354.943 284.805 352.806 285.772 347.889C286.081 346.316 286.122 344.545 286.154 331.166C286.174 322.935 286.289 313.012 286.409 309.113C286.53 305.215 286.685 296.133 286.754 288.932C286.951 268.442 286.434 261.563 284.413 257.77C283.419 255.907 281.909 254.934 279.239 254.439C277.602 254.136 267.684 254.092 258.368 254.347C253.296 254.485 251.752 254.46 249.234 254.199C245.27 253.788 242.186 253.808 240.647 254.257ZM244.093 257.664C242.413 257.848 239.363 258.74 238.516 259.295C237.962 259.658 237.343 261.351 236.787 264.025C236.41 265.836 236.364 266.973 236.216 278.201C236.127 284.915 235.943 291.782 235.807 293.46C235.419 298.256 235.511 312.031 235.992 321.124C236.216 325.347 236.455 331.505 236.524 334.808C236.593 338.111 236.717 341.991 236.8 343.43C236.937 345.806 236.994 346.093 237.421 346.55C238.554 347.763 240.737 348.532 244.684 349.109C250.107 349.903 266.355 349.274 274.101 347.972C276.701 347.535 278.027 347.102 279.37 346.249C280.268 345.68 280.271 345.674 280.494 344.132C280.617 343.281 280.889 340.68 281.099 338.352C281.458 334.378 281.577 332.42 282.103 321.813C282.219 319.485 282.443 315.763 282.601 313.543C283.441 301.756 283.495 300.15 283.505 286.963C283.516 273.272 283.374 270.355 282.463 265.445C282.002 262.965 281.482 261.357 280.818 260.353C280.368 259.673 280.225 259.606 278.215 259.134C275.115 258.405 273.094 258.241 265.85 258.127C262.276 258.071 257.27 257.893 254.725 257.732C249.599 257.408 246.609 257.389 244.093 257.664ZM258.788 286.977C258.239 287.409 258.119 288.085 258.474 288.748C258.689 289.15 258.794 288.961 253.191 298.179C252.107 299.962 251.137 301.449 251.036 301.483C250.601 301.628 248.425 297.511 248.425 296.545C248.425 295.534 247.783 294.838 246.85 294.838C245.624 294.838 244.892 296.118 245.484 297.225C245.661 297.555 245.449 298.01 244.135 300.116C243.277 301.491 242.02 303.551 241.34 304.694C240.573 305.983 239.888 306.896 239.539 307.097C239.228 307.276 238.873 307.643 238.749 307.914C238.258 308.993 239.456 310.256 240.57 309.832C241.36 309.532 241.598 309.104 241.459 308.236C241.346 307.525 241.453 307.264 242.735 305.136C245.628 300.334 246.901 298.383 247.139 298.383C247.274 298.383 247.884 299.261 248.494 300.334C249.52 302.138 249.594 302.353 249.481 303.179C249.369 303.996 249.412 304.125 249.98 304.693C250.481 305.194 250.704 305.29 251.137 305.187C252 304.983 252.422 304.331 252.294 303.398C252.191 302.647 252.335 302.352 254.741 298.375C256.148 296.051 257.847 293.241 258.517 292.131C259.188 291.021 259.783 290.116 259.84 290.119C259.897 290.122 260.329 291.119 260.801 292.334C261.786 294.867 263.658 299.266 264.547 301.131C265.026 302.138 265.127 302.559 265.032 303.154C264.88 304.107 265.337 304.683 266.244 304.683C267.103 304.683 267.523 304.162 267.525 303.092C267.525 302.361 268.412 297.626 268.579 297.458C268.609 297.428 269.314 298.191 270.146 299.154C271.43 300.64 271.658 301.011 271.658 301.616C271.658 302.503 272.323 302.923 273.139 302.551C273.678 302.306 274.077 301.514 273.898 301.046C273.836 300.885 274.181 300.065 274.666 299.223C275.15 298.382 275.923 296.94 276.385 296.02C276.846 295.099 277.433 294.151 277.69 293.913C278.946 292.744 277.323 290.634 275.89 291.573C275.343 291.931 275.228 292.797 275.639 293.455C275.837 293.773 275.801 294.002 275.428 294.782C274.578 296.564 272.748 299.763 272.608 299.713C272.532 299.685 271.755 298.839 270.882 297.832C269.803 296.586 269.296 295.842 269.296 295.505C269.296 293.903 267.428 293.297 266.835 294.707C266.578 295.319 266.6 295.564 266.987 296.37C267.151 296.712 267.116 297.251 266.84 298.635C266.296 301.355 266.279 301.385 265.787 300.421C265.187 299.245 263.124 294.407 262.036 291.626C261.291 289.719 261.115 289.053 261.182 288.377C261.335 286.838 259.976 286.043 258.788 286.977ZM256.202 313.266C252.028 314.197 248.221 317.182 246.43 320.927C245.269 323.354 244.987 324.665 244.986 327.621C244.986 330.615 245.262 331.815 246.572 334.513C248.581 338.653 252.306 341.714 256.891 342.995C258.658 343.488 262.604 343.505 264.373 343.027C268.429 341.932 271.94 339.108 273.705 335.52C274.861 333.169 275.259 331.352 275.262 328.409C275.264 325.996 275.228 325.753 274.627 324.176C272.536 318.685 269.181 315.334 264.075 313.638C262.044 312.964 258.34 312.789 256.202 313.266ZM256.503 314.626C254.811 315.01 252.326 316.226 250.974 317.332C249.895 318.216 248.284 320.338 247.464 321.957C247.232 322.415 246.867 323.523 246.652 324.418C244.917 331.654 249.391 339.226 256.727 341.471C258.278 341.946 261.42 342.257 261.42 341.936C261.42 341.82 261.144 341.282 260.807 340.74L260.195 339.755H258.931C254.633 339.755 250.67 336.624 249.305 332.15C248.93 330.92 248.819 330.115 248.819 328.634C248.819 326.246 249.031 325.332 250.106 323.093C251.425 320.344 253.71 318.259 256.508 317.252C257.57 316.869 258.148 316.797 260.042 316.807C262.034 316.819 262.46 316.884 263.586 317.35C265.144 317.994 267.08 319.436 267.993 320.632C269.36 322.421 270.477 325.356 270.477 327.156V327.748L271.609 327.623C273.386 327.427 273.824 327.313 273.824 327.047C273.824 326.261 272.934 323.542 272.22 322.15C271.567 320.876 270.991 320.135 269.507 318.658C267.461 316.622 265.983 315.705 263.487 314.922C261.688 314.358 258.313 314.215 256.503 314.626ZM257.113 318.577C255.382 319.166 254.386 319.821 253.022 321.266C251.183 323.212 250.195 325.779 250.199 328.598C250.205 332.545 252.18 335.887 255.467 337.511C256.836 338.188 257.111 338.251 258.941 338.313C260.566 338.368 261.14 338.305 262.093 337.971C266.911 336.283 269.855 331.046 268.851 325.951C268.442 323.874 267.752 322.475 266.442 321.065C263.902 318.333 260.497 317.424 257.113 318.577Z" fill="#1237BF"/>
<path d="M43.8811 135.328L48.9096 121.081C48.5105 122.211 47.425 123.555 46.2756 119.883C45.1262 116.212 46.7545 115.32 47.7123 115.334C52.9802 114.017 65.264 111.503 72.256 111.981C79.2479 112.46 76.1271 117.449 73.6927 119.883L81.5945 130.18L43.8811 135.328Z" fill="white"/>
<path d="M17.781 258.166L15.6259 131.137L46.1558 128.264L44.8389 135.687L81.9537 130.06L79.5592 125.75L99.0744 123.954V255.891L17.781 258.166Z" fill="white"/>
<path d="M22.9291 252.18L19.936 135.208H45.9163L81.8339 129.581H95.1234V250.025L22.9291 252.18Z" fill="white"/>
<path fill-rule="evenodd" clip-rule="evenodd" d="M66.9903 111.032C58.9764 111.615 50.9464 112.842 48.0514 113.925C45.553 114.86 44.0739 116.818 44.5066 118.617C44.7885 119.789 45.5391 121.053 46.2774 121.599C46.6715 121.89 46.9948 122.243 46.9957 122.383C46.9969 122.523 46.6045 123.634 46.1236 124.852C45.5274 126.362 45.1268 127.067 44.8644 127.068C44.6527 127.068 38.3915 127.607 30.9506 128.265C23.5097 128.923 16.7615 129.461 15.9543 129.461C14.968 129.461 14.3931 129.575 14.2004 129.807C13.9774 130.075 13.9963 141.914 14.2856 182.905C14.4901 211.919 14.6869 240.341 14.7226 246.065L14.7877 256.472L15.5061 257.678C16.8554 259.944 12.3441 259.891 58.9929 258.183C81.5934 257.356 100.204 256.606 100.349 256.516C100.494 256.426 100.719 255.969 100.848 255.5C101.107 254.564 100.054 125.081 99.7821 124.372C99.6978 124.152 99.4394 123.912 99.2081 123.839C98.977 123.765 98.666 123.438 98.517 123.111C98.1682 122.345 98.2678 122.344 88.2595 123.236C83.8239 123.631 79.8095 123.947 79.3383 123.938C78.5689 123.924 78.3172 123.728 76.8717 122.014L75.2621 120.105L76.0595 118.977C77.0815 117.53 77.4042 116.545 77.403 114.879C77.4009 111.399 74.8567 110.459 66.9903 111.032ZM64.8328 113.442C55.2077 114.329 48.6324 115.624 47.2064 116.915C46.5872 117.475 46.6392 118.526 47.3254 119.323C47.7727 119.843 47.9681 119.928 48.2258 119.714C48.4068 119.564 49.2003 119.376 49.9893 119.295C52.5083 119.039 72.7158 118.211 73.2136 118.343C73.5804 118.44 73.846 118.233 74.3484 117.456C75.5705 115.568 75.5322 113.887 74.2569 113.442C73.3973 113.143 68.0851 113.142 64.8328 113.442ZM60.7275 120.975C57.1525 121.144 53.2734 121.318 52.1073 121.361C50.0513 121.437 49.9845 121.458 49.9072 122.038C49.8634 122.368 49.3653 123.822 48.8004 125.271C46.2898 131.708 45.9737 132.592 46.1253 132.743C46.3042 132.922 79.22 129.43 79.6081 129.191C79.7436 129.107 78.7298 127.72 77.3336 126.078C75.9479 124.449 74.3464 122.556 73.7744 121.872L72.7347 120.629L69.981 120.649C68.4665 120.66 64.3025 120.807 60.7275 120.975ZM89.2154 126.799C85.2417 127.144 81.9286 127.488 81.8532 127.565C81.7778 127.641 81.9698 127.942 82.2802 128.234L82.8445 128.764L88.0859 128.476C94.53 128.122 94.3645 128.117 94.9193 128.672C95.3596 129.112 95.3961 131.012 96.078 189.216C96.7593 247.335 96.7679 249.326 96.3469 249.905C95.9509 250.45 95.6982 250.519 93.542 250.67C92.2387 250.762 76.0331 251.395 57.5296 252.079C25.9986 253.242 23.8557 253.348 23.3926 253.768C23.1206 254.014 22.719 254.215 22.5002 254.215C21.3961 254.215 21.4851 256.397 20.2036 198.064C19.5379 167.773 18.9281 141.301 18.8483 139.237C18.7109 135.686 18.7291 135.457 19.1869 134.999C19.5482 134.638 19.8705 134.548 20.4617 134.643C21.1437 134.753 37.3483 132.961 41.3174 132.337C42.0805 132.217 42.8463 132.173 43.0192 132.239C43.3427 132.363 44.0644 131.002 43.8101 130.747C43.6664 130.604 17.5404 132.735 17.3712 132.904C17.2555 133.02 19.4486 257.16 19.5686 257.28C19.7068 257.418 98.5192 254.491 98.6681 254.342C98.7914 254.218 98.2587 181.946 97.8298 140.656L97.679 126.109L97.0595 126.14C96.719 126.157 93.189 126.454 89.2154 126.799ZM87.7602 130.726C84.4053 130.901 83.3902 131.028 83.3902 131.272C83.3902 131.812 82.374 132.335 81.3228 132.335C80.7714 132.335 78.6132 132.601 76.5274 132.927C74.4413 133.253 68.1013 134.11 62.4383 134.832C56.7753 135.554 50.3693 136.409 48.2028 136.733C44.4626 137.292 44.221 137.302 43.4138 136.923C42.8053 136.637 42.5434 136.346 42.4912 135.897L42.4184 135.271L40.5756 135.615C37.0645 136.272 27.3723 138.579 25.4076 139.227L23.4338 139.877L23.4894 142.871C23.52 144.517 24.0286 166.32 24.6198 191.323C25.556 230.92 25.7435 236.876 26.074 237.515C27.078 239.457 30.5026 241.805 32.819 242.14C33.4375 242.23 34.0786 242.41 34.2431 242.541C34.7268 242.927 34.5886 243.946 33.922 244.908C33.2438 245.886 32.8073 247.389 33.0094 248.049C33.1107 248.379 33.4012 248.466 34.3788 248.46C36.9031 248.443 91.7818 246.142 91.856 246.05C91.8984 245.997 91.7439 220.258 91.5129 188.852C91.2308 150.507 91.1717 131.602 91.3333 131.3C91.515 130.96 91.7734 130.874 92.3907 130.946C92.9501 131.011 93.2077 130.943 93.2077 130.73C93.2077 130.556 92.9711 130.436 92.6689 130.458C92.3727 130.48 90.1636 130.6 87.7602 130.726ZM23.4079 136.774C22.2227 136.944 21.2261 137.092 21.193 137.103C21.16 137.114 21.1332 137.345 21.1332 137.616C21.1332 138.066 21.176 138.079 21.6276 137.762C21.8994 137.572 22.3036 137.459 22.5256 137.511C22.7475 137.563 23.7372 137.344 24.7249 137.025C26.7428 136.373 26.5153 136.329 23.4079 136.774ZM73.3333 141.819C52.9583 144.253 32.2281 147.055 31.7674 147.438C31.5816 147.592 31.4295 147.961 31.4295 148.258C31.4295 149.487 31.3778 149.489 44.0567 147.808C56.5167 146.155 70.6072 144.393 76.9251 143.698C78.9762 143.472 80.8777 143.139 81.1753 142.955C81.8465 142.538 81.8894 141.544 81.251 141.203C80.6928 140.904 81.5618 140.836 73.3333 141.819ZM67.826 147.911C55.2659 149.999 48.0299 151.297 40.5286 152.811C32.8897 154.352 32.8897 154.352 32.611 154.873C32.293 155.467 32.5245 156.215 33.081 156.392C33.3171 156.467 37.0022 155.831 41.2697 154.979C50.23 153.19 59.2836 151.573 70.8191 149.701C75.2968 148.974 79.2097 148.271 79.5143 148.137C79.9527 147.946 80.0525 147.739 79.9932 147.145C79.9438 146.652 79.7537 146.337 79.4393 146.228C79.1714 146.134 74.0534 146.876 67.826 147.911ZM72.4953 157.987C57.9123 160.772 48.0244 162.882 39.93 164.935C34.9166 166.207 33.9782 166.548 33.7342 167.183C33.5106 167.766 34.0098 168.492 34.6339 168.492C34.9384 168.492 37.4938 167.903 40.3124 167.184C48.9151 164.99 61.8074 162.226 71.6572 160.466C76.5463 159.593 77.404 159.291 77.404 158.446C77.404 157.363 76.3042 157.26 72.4953 157.987ZM69.3824 165.625C68.4074 165.942 67.8368 166.451 66.628 168.081C66.0631 168.843 65.482 169.429 65.3367 169.383C65.1913 169.338 64.749 168.702 64.3539 167.971C63.3794 166.167 63.0846 165.858 62.3397 165.858C61.9884 165.858 59.4965 166.545 56.8017 167.386C54.1072 168.227 48.0773 170.075 43.402 171.493C38.7268 172.911 34.7129 174.233 34.4825 174.431C33.678 175.123 34.1233 176.154 35.2272 176.154C35.9331 176.154 38.5484 175.387 51.3039 171.436C56.6377 169.784 61.2217 168.384 61.4908 168.324C61.8864 168.236 62.0911 168.452 62.5595 169.453C63.2882 171.009 64.2498 171.844 65.3117 171.844C66.2777 171.844 67.2463 171.087 68.5666 169.3C69.9911 167.371 70.5076 167.277 74.7983 168.167C75.6469 168.343 76.8822 167.669 77.0681 166.928C77.2946 166.026 76.807 165.622 75.5221 165.649C74.9108 165.662 73.4411 165.609 72.2558 165.532C71.0705 165.455 69.7775 165.496 69.3824 165.625ZM64.2342 179.554C62.9503 179.919 56.6539 180.261 55.404 180.035C53.798 179.743 52.8967 180.066 51.8625 181.304L50.9689 182.373L50.3083 181.571C48.6142 179.516 47.182 179.681 34.7256 183.358C32.9809 183.874 32.4244 184.428 32.8511 185.225C32.9838 185.473 33.2596 185.74 33.4641 185.819C33.6689 185.897 35.9077 185.367 38.4394 184.64C47.1518 182.141 47.6918 182.047 48.373 182.905C49.5353 184.369 50.0815 184.774 50.8913 184.774C51.734 184.774 52.1863 184.452 53.5408 182.883C54.1649 182.16 54.2937 182.112 55.0973 182.292C55.579 182.4 56.5119 182.473 57.1704 182.453C62.162 182.306 63.7026 182.194 64.1586 181.946C64.8791 181.554 65.9611 181.59 67.0945 182.043C67.7738 182.315 68.4478 182.385 69.4339 182.285C70.1958 182.207 72.0044 182.078 73.4531 181.998C76.6828 181.819 77.4935 181.333 76.6006 180.112C76.3174 179.725 75.9623 179.674 73.7871 179.709C72.4182 179.732 70.7952 179.875 70.1805 180.027C69.205 180.27 68.8616 180.239 67.4817 179.786C65.7559 179.22 65.481 179.2 64.2342 179.554ZM68.0654 187.666C55.381 189.529 49.5779 190.423 42.4442 191.613C30.2102 193.655 30.4717 193.587 30.4717 194.732C30.4717 195.878 30.9825 195.869 38.1911 194.611C45.8832 193.268 59.2628 191.189 68.3049 189.932C75.7939 188.891 75.4477 188.971 75.6311 188.24C76.013 186.719 75.0255 186.644 68.0654 187.666ZM73.3333 197.272C72.7407 197.401 65.3058 199.105 56.8113 201.059C48.3168 203.012 39.5493 204.999 37.3281 205.474C35.1068 205.949 33.0863 206.446 32.8384 206.579C32.3308 206.851 32.2389 207.757 32.6747 208.193C32.8327 208.351 33.2108 208.48 33.5151 208.48C34.352 208.48 40.5191 207.127 57.5296 203.209C66.0241 201.253 73.7126 199.517 74.6151 199.351C76.4874 199.007 77.1782 198.386 76.6943 197.481C76.3961 196.924 75.2568 196.853 73.3333 197.272ZM22.6302 207.642C22.6328 208.169 22.6819 208.356 22.7391 208.058C22.7964 207.76 22.7942 207.329 22.7344 207.1C22.6745 206.871 22.6276 207.115 22.6302 207.642ZM69.5021 209.009C66.6706 209.659 61.4645 210.822 57.9331 211.594C54.4017 212.365 51.3575 213.125 51.1686 213.282C50.6892 213.68 50.7402 214.315 51.2919 214.815C51.7399 215.22 51.9282 215.201 55.9014 214.353C63.2362 212.789 74.6338 210.17 75.2042 209.918C75.6424 209.725 75.7422 209.517 75.6831 208.923C75.6342 208.433 75.4419 208.112 75.1292 208C74.839 207.895 72.6207 208.293 69.5021 209.009ZM94.035 218.417C94.035 223.553 94.0666 225.62 94.1054 223.011C94.1442 220.401 94.144 216.199 94.1052 213.672C94.0666 211.146 94.0348 213.281 94.035 218.417ZM42.07 213.699C39.7016 215.374 37.6873 216.382 36.7065 216.382C36.1163 216.382 35.9202 216.249 35.7339 215.723C35.3285 214.579 35.1065 214.346 34.4227 214.346C33.5625 214.346 33.2362 214.888 33.4404 215.976C33.7795 217.784 35.503 218.964 37.3411 218.646C39.5574 218.262 45.3596 214.646 45.5157 213.552C45.615 212.855 45.1673 212.308 44.5102 212.322C44.2298 212.329 43.1319 212.948 42.07 213.699ZM22.8835 218.178C22.8847 218.968 22.9295 219.262 22.9829 218.832C23.0361 218.402 23.0351 217.755 22.9805 217.395C22.9257 217.035 22.8821 217.387 22.8835 218.178ZM33.9809 223.045C33.4301 223.654 33.4591 223.776 34.5579 225.476L35.5315 226.982L34.7974 227.74C34.3937 228.156 34.0635 228.713 34.0635 228.976C34.0635 230.04 35.3321 230.399 36.0988 229.552C36.7293 228.855 36.9774 228.948 37.7505 230.172C38.6336 231.57 39.3812 231.952 40.0488 231.348C40.707 230.753 40.6692 230.562 39.5512 228.832L38.5735 227.319L39.6709 226.381C40.7863 225.428 41.0557 224.667 40.4807 224.092C39.9841 223.595 39.2047 223.776 38.2371 224.613L37.3023 225.421L36.2789 224.014C35.197 222.528 34.6559 222.3 33.9809 223.045ZM69.7416 224.208C66.7152 224.434 58.0614 225.311 55.8793 225.613C53.2082 225.983 52.7406 226.195 52.7406 227.037C52.7406 228.172 53.1403 228.223 57.7147 227.668C63.2111 227 68.8032 226.493 72.8544 226.294C74.6324 226.206 76.2755 226.038 76.506 225.919C76.9864 225.672 77.0625 224.756 76.6378 224.332C76.3645 224.058 72.6425 223.992 69.7416 224.208ZM23.1309 228.474C23.1316 229.528 23.1737 229.929 23.2243 229.366C23.275 228.803 23.2743 227.941 23.2228 227.45C23.1714 226.96 23.1299 227.42 23.1309 228.474ZM94.1313 228.414C94.0844 228.579 94.1035 232.754 94.1739 237.693L94.302 246.672L94.3535 237.394C94.3817 232.29 94.3626 228.115 94.3109 228.115C94.2591 228.115 94.1782 228.25 94.1313 228.414ZM23.458 244.757C23.5322 248.181 23.6177 251.013 23.6481 251.05C23.6785 251.087 25.6164 251.043 27.9546 250.952L32.2061 250.786L31.1592 249.937C28.2594 247.585 25.6051 243.904 23.8825 239.848L23.3234 238.531L23.458 244.757ZM28.0808 242.911C28.0878 243.231 30.4693 246.313 30.71 246.313C30.8424 246.313 30.9506 246.146 30.9506 245.942C30.9506 245.738 31.1151 245.253 31.316 244.864C31.5959 244.323 31.6098 244.158 31.3759 244.158C31.2078 244.158 30.397 243.839 29.5738 243.45C28.7508 243.06 28.0789 242.818 28.0808 242.911ZM94.0338 247.966C93.9088 248.085 93.5908 248.234 93.3274 248.297C93.0173 248.372 93.1229 248.422 93.6267 248.44C94.1713 248.46 94.405 248.36 94.405 248.109C94.405 247.692 94.3458 247.67 94.0338 247.966ZM87.6352 248.641C88.0602 248.694 88.8145 248.695 89.3114 248.643C89.808 248.591 89.4603 248.548 88.5384 248.547C87.6165 248.546 87.21 248.588 87.6352 248.641ZM81.774 248.879C82.1362 248.934 82.7286 248.934 83.0909 248.879C83.4532 248.824 83.1568 248.779 82.4324 248.779C81.7081 248.779 81.4117 248.824 81.774 248.879ZM75.9103 249.116C76.2082 249.174 76.6392 249.171 76.8681 249.112C77.097 249.052 76.8533 249.005 76.3265 249.007C75.7997 249.01 75.6124 249.059 75.9103 249.116Z" fill="#1237BF"/>
<path d="M137.024 341.959L141.19 342.969C188.556 324.285 201.156 315.238 201.534 313.049C204.564 306.99 201.619 267.433 199.767 248.412C199.767 243.363 198.42 242.521 197.747 242.731C192.571 235.662 155.582 216.22 149.143 212.18C143.992 208.949 140.517 209.319 139.422 209.908C131.141 210.615 94.8162 228.466 77.6891 237.303C79.5407 254.009 83.5469 290.022 84.7588 300.425C85.9707 310.827 92.5018 315.7 95.6158 316.837L137.024 341.959Z" fill="#F9A33F"/>
<path fill-rule="evenodd" clip-rule="evenodd" d="M138.308 209.59C130.934 211.199 108.724 220.774 89.4515 230.653C85.702 232.574 81.7254 234.498 80.6144 234.927C76.4471 236.538 75.6374 237.104 76.5287 237.787C77.0788 238.209 77.3134 240.123 79.2278 259.805C82.2404 290.781 83.9129 302.768 85.9058 307.673C87.7439 312.196 91.9824 315.93 101.648 321.538C107.95 325.194 116.269 330.379 122.993 334.841C130.964 340.131 133.546 341.546 137.929 343.027C141.51 344.236 142.013 344.217 144.999 342.75C146.11 342.204 148.325 341.227 149.922 340.578C158.94 336.918 163.109 335.099 173.277 330.393C189.398 322.932 197.961 318.48 200.048 316.475C201.256 315.314 202.383 313.241 202.994 311.055C203.524 309.156 203.556 308.568 203.547 300.834C203.542 296.321 203.403 290.64 203.239 288.209C203.076 285.779 202.771 280.212 202.562 275.838C202.196 268.164 201.714 261.073 201.164 255.26C201.019 253.732 200.803 250.677 200.683 248.471C200.429 243.781 200.512 243.957 197.417 241.459C191.223 236.459 178.685 228.581 161.915 219.151C156.777 216.262 151.065 213 149.22 211.904C147.376 210.808 145.402 209.746 144.833 209.546C143.545 209.091 140.497 209.112 138.308 209.59ZM139.043 210.822C136.773 211.275 131.41 213.084 126.693 214.989C120.561 217.465 110.67 221.838 110.566 222.119C110.514 222.259 110.257 222.587 109.996 222.848C109.627 223.218 109.424 223.262 109.081 223.05C108.724 222.828 107.44 223.35 102.328 225.792C98.8566 227.45 92.778 230.452 88.8203 232.463C84.8625 234.473 80.9497 236.342 80.1253 236.615C79.3007 236.889 78.5894 237.222 78.545 237.356C78.3811 237.847 90.0971 248.158 95.4382 252.223C96.8466 253.295 97.0837 253.589 97.0572 254.226C97.0292 254.898 97.3016 255.169 99.8297 256.977L102.633 258.982L102.804 267.347C102.898 271.947 103.08 279.177 103.209 283.412C103.337 287.648 103.566 297.646 103.717 305.631C103.868 313.616 104.071 320.547 104.169 321.033C104.302 321.689 104.479 321.917 104.853 321.917C105.341 321.917 105.357 321.761 105.32 317.246C105.262 309.987 104.327 270.292 104.069 264.12C103.927 260.721 103.956 260.124 104.257 260.24C104.453 260.315 106.078 261.412 107.868 262.678C111.224 265.051 112.15 265.441 112.004 264.419C111.947 264.026 110.938 263.161 108.65 261.544C106.85 260.272 105.343 259.127 105.3 258.999C105.257 258.871 109.287 256.435 114.254 253.584C165.974 223.902 167.091 223.25 167.091 222.752C167.091 222.349 166.955 222.273 166.387 222.356C165.999 222.413 158.244 226.73 149.154 231.949C140.064 237.169 126.161 245.15 118.258 249.686C110.355 254.223 103.731 257.874 103.54 257.8C102.956 257.576 98.1623 254.089 98.1623 253.889C98.1623 253.786 106.598 249.06 116.91 243.386C127.221 237.713 137.531 232.031 139.823 230.76C142.114 229.489 144.955 227.928 146.135 227.29C152.815 223.684 159.576 219.854 159.607 219.66C159.627 219.537 158.052 218.536 156.108 217.435C154.164 216.334 150.928 214.462 148.917 213.275C143.922 210.326 142.859 210.062 139.043 210.822ZM160.401 237.058C152.207 241.669 138.346 249.453 129.597 254.357C120.848 259.26 113.369 263.469 112.976 263.71L112.261 264.148L114.238 265.409C118.821 268.332 130.938 275.462 131.869 275.783C133.951 276.503 136.11 275.687 148.429 269.52C159.309 264.072 166.35 260.758 178.327 255.446C192.69 249.076 198.718 246.137 199.017 245.358C199.212 244.85 198.765 244.289 197.011 242.843C193.255 239.747 176.328 228.56 175.533 228.649C175.403 228.663 168.594 232.447 160.401 237.058ZM78.5445 240.363C78.7776 241.825 79.4608 248.41 81.0075 264.097C82.4437 278.663 83.8541 290.835 84.884 297.551C86.3497 307.11 87.8527 310.277 92.7338 314.092C94.8244 315.726 99.4573 318.812 99.602 318.667C99.6841 318.585 99.1611 307.94 98.6637 299.571C98.5196 297.141 98.1785 290.835 97.906 285.558C97.6336 280.281 97.2463 272.953 97.0453 269.273C96.8446 265.593 96.6012 260.844 96.5045 258.719C96.3671 255.696 96.2401 254.756 95.9202 254.397C95.6952 254.144 94.0909 252.825 92.3551 251.466C88.6844 248.592 85.0193 245.463 81.1403 241.892L78.3837 239.354L78.5445 240.363ZM197.39 248.026C194.894 249.429 189.542 251.939 180.347 256.019C167.464 261.735 161.728 264.422 150.932 269.795C139.178 275.645 137.003 276.62 134.417 277.201C134.129 277.266 134.188 279.642 134.666 287.326C135.072 293.828 135.109 294.311 136.26 307.903C136.678 312.833 137.141 319.026 137.289 321.664C138.073 335.64 138.323 338.21 139.066 339.897C139.619 341.155 140.193 341.371 142.378 341.142C145.717 340.793 157.493 336.283 168.354 331.194C173.837 328.625 178.277 326.563 180.473 325.568C184.299 323.833 194.832 318.444 196.689 317.271C199.808 315.301 201.186 313.248 201.978 309.394C202.391 307.385 202.394 296.699 201.985 289.977C201.828 287.408 201.576 282.749 201.424 279.625C201.001 270.92 200.193 258.688 199.781 254.755C199.577 252.811 199.411 250.282 199.41 249.137C199.41 247.991 199.325 247.065 199.221 247.079C199.117 247.093 198.293 247.519 197.39 248.026ZM195.791 256.312C195.698 256.404 195.623 256.869 195.623 257.344C195.623 257.914 195.444 258.353 195.1 258.632C194.577 259.055 194.577 259.058 195.051 260.945L195.525 262.834L196.491 262.915C197.022 262.959 197.562 262.89 197.69 262.761C197.959 262.493 196.979 256.957 196.574 256.459C196.288 256.107 196.042 256.06 195.791 256.312ZM192.845 257.868C192.845 258.122 193.067 259.562 193.339 261.067C193.842 263.855 194.331 264.859 194.906 264.284C195.133 264.057 195.094 263.349 194.743 261.265C194.49 259.767 194.19 258.287 194.076 257.974C193.819 257.273 192.845 257.189 192.845 257.868ZM189.442 259.165C189.246 259.481 189.952 263.535 190.323 264.228C190.71 264.952 191.467 264.77 191.422 263.964C191.391 263.405 190.992 260.997 190.681 259.489C190.56 258.908 189.734 258.692 189.442 259.165ZM191.426 259.288C191.195 259.89 191.843 263.662 192.233 263.986C193.106 264.711 193.298 263.532 192.769 260.692C192.544 259.485 192.348 259.031 192.022 258.969C191.78 258.922 191.511 259.066 191.426 259.288ZM187.742 259.741C187.683 259.915 187.869 261.249 188.157 262.706C188.565 264.777 188.776 265.373 189.122 265.439C189.793 265.566 189.919 264.864 189.581 262.874C189.128 260.207 188.839 259.426 188.308 259.426C188.056 259.426 187.801 259.568 187.742 259.741ZM186.449 260.857C186.018 261.287 186.561 264.541 187.173 265.2C187.35 265.39 187.619 265.468 187.771 265.374C188.127 265.154 188.122 264.343 187.752 262.664C187.372 260.941 186.95 260.355 186.449 260.857ZM111.797 283.133C111.797 292.823 111.721 306.385 111.63 313.272L111.462 325.793L113.416 327.011C114.491 327.681 118.458 330.265 122.231 332.753C132.114 339.269 134.227 340.454 137.994 341.599L138.564 341.772L138.039 340.881C137.087 339.268 136.75 336.247 136.039 322.926C135.898 320.288 135.667 316.766 135.525 315.099C134.475 302.777 134.215 299.63 133.889 295.279C133.687 292.571 133.405 288.818 133.263 286.938C133.122 285.059 132.997 282.616 132.987 281.51C132.977 280.404 132.891 279 132.798 278.39C132.634 277.329 132.578 277.268 131.491 276.989C130.476 276.728 123.174 272.516 114.793 267.358L111.797 265.515V283.133Z" fill="black"/>
<path d="M68.6537 382.944L71.9925 383.753C109.953 368.779 120.05 361.528 120.354 359.775C122.782 354.918 120.421 323.217 118.938 307.973C118.938 303.926 117.858 303.252 117.319 303.42C113.171 297.754 83.5264 282.174 78.3665 278.936C74.2386 276.346 71.4529 276.643 70.576 277.115C63.939 277.681 34.8276 291.988 21.1016 299.07C22.5855 312.459 25.7961 341.32 26.7674 349.657C27.7386 357.994 32.9727 361.899 35.4684 362.81L68.6537 382.944Z" fill="#F9A33F"/>
<path fill-rule="evenodd" clip-rule="evenodd" d="M69.6828 276.86C63.7732 278.15 45.9737 285.823 30.5282 293.74C27.5233 295.28 24.3363 296.822 23.446 297.166C20.1062 298.456 19.4573 298.911 20.1716 299.458C20.6125 299.796 20.8005 301.33 22.3347 317.103C24.7491 341.928 26.0895 351.535 27.6866 355.466C29.1597 359.091 32.5566 362.083 40.3031 366.577C45.3535 369.508 52.0208 373.663 57.4091 377.239C63.7973 381.478 65.8663 382.612 69.3793 383.799C72.2488 384.768 72.6523 384.753 75.0451 383.577C75.9354 383.14 77.7111 382.357 78.9909 381.837C86.218 378.903 89.559 377.446 97.7082 373.674C110.628 367.695 117.491 364.127 119.163 362.52C120.131 361.59 121.034 359.928 121.524 358.176C121.949 356.654 121.974 356.183 121.967 349.985C121.963 346.368 121.852 341.815 121.72 339.867C121.589 337.92 121.345 333.458 121.178 329.952C120.884 323.803 120.498 318.119 120.057 313.461C119.941 312.237 119.768 309.788 119.672 308.02C119.468 304.262 119.534 304.403 117.054 302.401C112.09 298.394 102.042 292.079 88.6025 284.522C84.4847 282.207 79.9063 279.593 78.4284 278.714C76.9502 277.836 75.368 276.985 74.9124 276.824C73.8804 276.46 71.4372 276.477 69.6828 276.86ZM70.2721 277.847C68.4532 278.21 64.1546 279.66 60.3748 281.187C55.4601 283.171 47.5335 286.676 47.4497 286.901C47.408 287.013 47.2026 287.276 46.9934 287.485C46.6971 287.781 46.5347 287.817 46.2599 287.647C45.9739 287.469 44.9444 287.887 40.848 289.844C38.0657 291.174 33.1942 293.579 30.0223 295.191C26.8505 296.802 23.7147 298.299 23.054 298.518C22.3931 298.738 21.8231 299.005 21.7875 299.112C21.6562 299.506 31.0456 307.769 35.3261 311.027C36.4548 311.886 36.6448 312.121 36.6236 312.632C36.6011 313.171 36.8195 313.388 38.8456 314.837L41.0925 316.444L41.2295 323.147C41.3047 326.834 41.4506 332.628 41.5536 336.023C41.6566 339.417 41.8398 347.43 41.9606 353.829C42.0816 360.229 42.2448 365.783 42.3236 366.173C42.4298 366.698 42.5712 366.881 42.8715 366.881C43.2627 366.881 43.2752 366.756 43.2459 363.138C43.1989 357.321 42.4494 325.508 42.243 320.561C42.1293 317.838 42.1526 317.359 42.3936 317.452C42.5504 317.512 43.8529 318.391 45.288 319.406C47.9774 321.308 48.7196 321.62 48.6021 320.801C48.5567 320.486 47.7479 319.793 45.9144 318.497C44.4719 317.478 43.2639 316.56 43.2297 316.458C43.1955 316.355 46.4246 314.402 50.4054 312.118C91.8555 288.33 92.7507 287.807 92.7507 287.408C92.7507 287.085 92.6414 287.024 92.1857 287.091C91.8751 287.137 85.6604 290.596 78.3754 294.779C71.0904 298.962 59.9478 305.359 53.6141 308.994C47.2805 312.629 41.9725 315.555 41.8187 315.497C41.3511 315.317 37.5093 312.523 37.5093 312.362C37.5093 312.279 44.2702 308.492 52.5337 303.945C60.7973 299.398 69.0606 294.845 70.8969 293.826C72.7333 292.808 75.0097 291.556 75.9557 291.045C81.3088 288.155 86.7276 285.086 86.7526 284.93C86.7684 284.832 85.5066 284.029 83.9485 283.147C82.3904 282.265 79.7969 280.764 78.1854 279.813C74.1821 277.45 73.3302 277.238 70.2721 277.847ZM87.3884 298.873C80.8222 302.568 69.7132 308.807 62.7018 312.737C55.6904 316.667 49.696 320.04 49.3811 320.233L48.8083 320.584L50.3929 321.595C54.0653 323.937 63.7767 329.651 64.5229 329.909C66.1913 330.486 67.9214 329.831 77.7938 324.889C86.5133 320.523 92.1564 317.867 101.755 313.61C113.266 308.505 118.097 306.149 118.337 305.525C118.493 305.118 118.134 304.669 116.729 303.51C113.719 301.029 100.153 292.063 99.5158 292.134C99.412 292.145 93.9547 295.178 87.3884 298.873ZM21.7871 301.523C21.9739 302.694 22.5214 307.971 23.761 320.543C24.912 332.217 26.0423 341.972 26.8677 347.354C28.0423 355.015 29.2469 357.553 33.1587 360.61C34.8342 361.92 38.5471 364.393 38.6631 364.277C38.7288 364.211 38.3097 355.68 37.9111 348.973C37.7956 347.025 37.5222 341.972 37.3039 337.743C37.0855 333.514 36.7751 327.64 36.6141 324.691C36.4532 321.742 36.2581 317.936 36.1806 316.233C36.0705 313.811 35.9688 313.057 35.7124 312.769C35.5321 312.567 34.2464 311.51 32.8552 310.421C29.9135 308.117 26.9762 305.61 23.8675 302.748L21.6582 300.714L21.7871 301.523ZM117.033 307.663C115.032 308.787 110.743 310.799 103.374 314.069C93.0496 318.65 88.4526 320.803 79.8003 325.109C70.3801 329.798 68.6375 330.579 66.5648 331.045C66.3339 331.097 66.3809 333.001 66.7645 339.159C67.0893 344.37 67.1193 344.757 68.042 355.651C68.3765 359.601 68.7474 364.564 68.866 366.679C69.4942 377.88 69.695 379.939 70.2901 381.291C70.7336 382.299 71.1938 382.472 72.9447 382.289C75.6206 382.009 85.0584 378.395 93.7624 374.316C98.1564 372.257 101.715 370.605 103.475 369.807C106.541 368.417 114.983 364.098 116.471 363.158C118.971 361.579 120.075 359.934 120.71 356.845C121.04 355.235 121.043 346.671 120.715 341.284C120.59 339.225 120.387 335.492 120.266 332.987C119.926 326.011 119.279 316.208 118.949 313.056C118.786 311.498 118.652 309.472 118.652 308.554C118.652 307.636 118.583 306.894 118.5 306.904C118.416 306.915 117.756 307.257 117.033 307.663ZM115.751 314.304C115.677 314.378 115.616 314.751 115.616 315.131C115.616 315.588 115.473 315.94 115.197 316.164C114.778 316.502 114.778 316.504 115.158 318.017L115.538 319.531L116.312 319.596C116.738 319.631 117.17 319.576 117.273 319.473C117.489 319.257 116.703 314.821 116.379 314.422C116.15 314.14 115.952 314.102 115.751 314.304ZM113.39 315.551C113.39 315.755 113.568 316.908 113.786 318.115C114.189 320.349 114.581 321.153 115.042 320.693C115.223 320.511 115.193 319.944 114.911 318.273C114.709 317.073 114.468 315.886 114.376 315.636C114.171 315.074 113.39 315.007 113.39 315.551ZM110.663 316.591C110.506 316.844 111.072 320.092 111.369 320.648C111.679 321.228 112.286 321.082 112.25 320.436C112.225 319.988 111.905 318.059 111.656 316.85C111.559 316.384 110.897 316.211 110.663 316.591ZM112.253 316.689C112.068 317.172 112.587 320.195 112.9 320.454C113.6 321.035 113.753 320.09 113.329 317.814C113.149 316.847 112.991 316.483 112.731 316.433C112.536 316.396 112.321 316.511 112.253 316.689ZM109.3 317.052C109.253 317.192 109.402 318.261 109.633 319.428C109.96 321.088 110.129 321.566 110.406 321.618C110.944 321.721 111.045 321.158 110.774 319.563C110.411 317.426 110.18 316.799 109.754 316.799C109.552 316.799 109.348 316.913 109.3 317.052ZM108.264 317.946C107.919 318.291 108.354 320.899 108.845 321.427C108.986 321.579 109.202 321.642 109.324 321.567C109.609 321.39 109.605 320.74 109.308 319.395C109.004 318.014 108.666 317.545 108.264 317.946ZM48.4361 335.799C48.4361 343.564 48.3758 354.434 48.3022 359.953L48.168 369.988L49.734 370.964C50.5954 371.501 53.7743 373.571 56.7986 375.565C64.7188 380.787 66.4123 381.738 69.4313 382.655L69.8882 382.794L69.4671 382.08C68.7041 380.787 68.4345 378.366 67.8645 367.69C67.7516 365.576 67.5661 362.753 67.4523 361.418C66.6108 351.542 66.4025 349.02 66.1417 345.533C65.9794 343.363 65.7536 340.355 65.6401 338.849C65.5264 337.343 65.4268 335.385 65.4185 334.498C65.4102 333.612 65.342 332.486 65.2668 331.998C65.1358 331.147 65.0905 331.099 64.2194 330.875C63.4066 330.666 57.554 327.29 50.8372 323.157L48.4361 321.679V335.799Z" fill="black"/>
<path d="M150.243 413.162L153.582 413.971C191.543 398.998 201.64 391.747 201.943 389.993C204.372 385.137 202.011 353.435 200.527 338.191C200.527 334.145 199.448 333.47 198.908 333.639C194.76 327.973 165.116 312.392 159.956 309.154C155.828 306.564 153.042 306.861 152.165 307.333C145.528 307.9 116.417 322.206 102.691 329.288C104.175 342.677 107.386 371.539 108.357 379.876C109.328 388.212 114.562 392.118 117.058 393.028L150.243 413.162Z" fill="#F9A33F"/>
<path fill-rule="evenodd" clip-rule="evenodd" d="M151.272 307.078C145.363 308.368 127.563 316.042 112.118 323.958C109.113 325.498 105.926 327.04 105.035 327.384C101.696 328.675 101.047 329.129 101.761 329.676C102.202 330.014 102.39 331.548 103.924 347.321C106.339 372.146 107.679 381.754 109.276 385.684C110.749 389.31 114.146 392.301 121.893 396.796C126.943 399.726 133.61 403.882 138.999 407.457C145.387 411.697 147.456 412.831 150.969 414.017C153.838 414.987 154.242 414.971 156.635 413.795C157.525 413.358 159.301 412.575 160.58 412.055C167.807 409.122 171.148 407.664 179.298 403.893C192.217 397.913 199.08 394.345 200.752 392.739C201.72 391.808 202.624 390.146 203.113 388.395C203.538 386.872 203.564 386.402 203.557 380.203C203.552 376.586 203.441 372.033 203.31 370.086C203.179 368.138 202.934 363.676 202.767 360.171C202.473 354.021 202.087 348.338 201.646 343.679C201.531 342.455 201.357 340.006 201.262 338.238C201.058 334.48 201.124 334.621 198.644 332.619C193.68 328.612 183.631 322.298 170.192 314.741C166.074 312.425 161.496 309.811 160.018 308.933C158.54 308.054 156.958 307.204 156.502 307.043C155.47 306.679 153.027 306.695 151.272 307.078ZM151.862 308.066C150.043 308.428 145.744 309.879 141.964 311.405C137.05 313.39 129.123 316.894 129.039 317.119C128.997 317.231 128.792 317.494 128.583 317.703C128.287 318 128.124 318.036 127.849 317.865C127.563 317.688 126.534 318.106 122.437 320.063C119.655 321.392 114.784 323.798 111.612 325.409C108.44 327.02 105.304 328.518 104.643 328.737C103.983 328.956 103.413 329.223 103.377 329.33C103.246 329.724 112.635 337.988 116.916 341.246C118.044 342.105 118.234 342.34 118.213 342.85C118.191 343.39 118.409 343.606 120.435 345.055L122.682 346.662L122.819 353.366C122.894 357.053 123.04 362.847 123.143 366.241C123.246 369.635 123.429 377.649 123.55 384.048C123.671 390.447 123.834 396.002 123.913 396.391C124.019 396.917 124.161 397.099 124.461 397.099C124.852 397.099 124.865 396.975 124.835 393.356C124.788 387.539 124.039 355.727 123.832 350.78C123.719 348.056 123.742 347.578 123.983 347.67C124.14 347.73 125.442 348.61 126.877 349.625C129.567 351.526 130.309 351.838 130.192 351.019C130.146 350.704 129.337 350.011 127.504 348.715C126.061 347.696 124.853 346.778 124.819 346.676C124.785 346.574 128.014 344.621 131.995 342.336C173.445 318.548 174.34 318.026 174.34 317.626C174.34 317.304 174.231 317.243 173.775 317.31C173.465 317.355 167.25 320.815 159.965 324.998C152.68 329.18 141.537 335.577 135.204 339.212C128.87 342.848 123.562 345.774 123.408 345.715C122.941 345.535 119.099 342.741 119.099 342.58C119.099 342.498 125.86 338.71 134.123 334.163C142.387 329.617 150.65 325.063 152.486 324.045C154.323 323.026 156.599 321.774 157.545 321.264C162.898 318.373 168.317 315.304 168.342 315.149C168.358 315.05 167.096 314.248 165.538 313.366C163.98 312.483 161.386 310.983 159.775 310.031C155.772 307.668 154.92 307.456 151.862 308.066ZM168.978 329.092C162.412 332.787 151.303 339.026 144.291 342.955C137.28 346.885 131.285 350.259 130.971 350.452L130.398 350.803L131.982 351.813C135.655 354.155 145.366 359.869 146.112 360.127C147.781 360.704 149.511 360.05 159.383 355.107C168.103 350.742 173.746 348.085 183.345 343.828C194.855 338.723 199.687 336.368 199.926 335.743C200.082 335.336 199.724 334.887 198.319 333.728C195.308 331.247 181.743 322.281 181.105 322.352C181.001 322.364 175.544 325.397 168.978 329.092ZM103.377 331.741C103.563 332.912 104.111 338.19 105.35 350.761C106.501 362.435 107.632 372.19 108.457 377.573C109.632 385.233 110.836 387.771 114.748 390.829C116.424 392.138 120.137 394.612 120.253 394.495C120.318 394.43 119.899 385.898 119.501 379.191C119.385 377.244 119.112 372.19 118.893 367.961C118.675 363.732 118.365 357.859 118.204 354.91C118.043 351.96 117.848 348.154 117.77 346.451C117.66 344.029 117.558 343.275 117.302 342.987C117.122 342.785 115.836 341.728 114.445 340.639C111.503 338.336 108.566 335.828 105.457 332.966L103.248 330.932L103.377 331.741ZM198.622 337.882C196.621 339.006 192.332 341.017 184.963 344.287C174.639 348.869 170.042 351.022 161.39 355.328C151.97 360.016 150.227 360.798 148.154 361.264C147.923 361.316 147.97 363.22 148.354 369.378C148.679 374.588 148.709 374.976 149.631 385.869C149.966 389.82 150.337 394.782 150.455 396.897C151.084 408.098 151.284 410.157 151.88 411.509C152.323 412.517 152.783 412.69 154.534 412.507C157.21 412.228 166.648 408.613 175.352 404.535C179.746 402.476 183.305 400.823 185.065 400.025C188.131 398.635 196.572 394.316 198.06 393.376C200.56 391.797 201.665 390.153 202.299 387.064C202.63 385.454 202.633 376.889 202.304 371.502C202.179 369.443 201.977 365.71 201.855 363.206C201.516 356.229 200.868 346.427 200.538 343.274C200.375 341.716 200.241 339.69 200.241 338.772C200.241 337.854 200.172 337.112 200.089 337.123C200.006 337.134 199.345 337.475 198.622 337.882ZM197.341 344.522C197.266 344.596 197.206 344.969 197.206 345.35C197.206 345.806 197.063 346.158 196.787 346.382C196.368 346.721 196.368 346.723 196.747 348.235L197.127 349.75L197.901 349.814C198.327 349.849 198.76 349.794 198.863 349.691C199.078 349.476 198.292 345.04 197.968 344.64C197.739 344.358 197.542 344.321 197.341 344.522ZM194.98 345.77C194.98 345.973 195.158 347.127 195.375 348.333C195.778 350.567 196.17 351.372 196.631 350.911C196.813 350.729 196.782 350.162 196.5 348.492C196.298 347.291 196.057 346.105 195.966 345.854C195.76 345.293 194.98 345.225 194.98 345.77ZM192.252 346.809C192.095 347.062 192.661 350.311 192.958 350.866C193.269 351.447 193.875 351.301 193.839 350.655C193.814 350.207 193.495 348.277 193.245 347.068C193.149 346.603 192.486 346.43 192.252 346.809ZM193.842 346.907C193.657 347.39 194.176 350.413 194.489 350.673C195.189 351.254 195.343 350.309 194.919 348.032C194.738 347.065 194.581 346.702 194.32 346.651C194.126 346.614 193.911 346.729 193.842 346.907ZM190.89 347.271C190.842 347.41 190.992 348.479 191.222 349.647C191.55 351.306 191.719 351.784 191.996 351.837C192.534 351.939 192.635 351.376 192.364 349.781C192 347.644 191.769 347.018 191.343 347.018C191.141 347.018 190.937 347.132 190.89 347.271ZM189.854 348.165C189.508 348.51 189.943 351.118 190.434 351.645C190.576 351.798 190.791 351.861 190.913 351.785C191.199 351.609 191.194 350.959 190.898 349.613C190.593 348.232 190.255 347.763 189.854 348.165ZM130.026 366.017C130.026 373.783 129.965 384.652 129.892 390.171L129.757 400.206L131.323 401.182C132.185 401.719 135.364 403.79 138.388 405.784C146.308 411.006 148.002 411.956 151.021 412.873L151.478 413.012L151.057 412.298C150.294 411.005 150.024 408.584 149.454 397.909C149.341 395.794 149.156 392.971 149.042 391.636C148.2 381.76 147.992 379.238 147.731 375.752C147.569 373.581 147.343 370.573 147.23 369.067C147.116 367.561 147.016 365.603 147.008 364.717C147 363.83 146.931 362.705 146.856 362.216C146.725 361.366 146.68 361.317 145.809 361.093C144.996 360.884 139.143 357.509 132.427 353.375L130.026 351.898V366.017Z" fill="black"/>
</svg>
