<svg width="31" height="31" viewBox="0 0 31 31" fill="none" xmlns="http://www.w3.org/2000/svg">
<path d="M15.3333 19.5003C17.5425 19.5003 19.3333 17.7095 19.3333 15.5003C19.3333 13.2912 17.5425 11.5003 15.3333 11.5003C13.1242 11.5003 11.3333 13.2912 11.3333 15.5003C11.3333 17.7095 13.1242 19.5003 15.3333 19.5003Z" stroke="black" stroke-width="2.87" stroke-linecap="round" stroke-linejoin="round"/>
<path d="M24.303 19.1367C24.1417 19.5023 24.0935 19.9078 24.1648 20.301C24.2361 20.6942 24.4236 21.0571 24.703 21.3428L24.7758 21.4155C25.0012 21.6406 25.18 21.908 25.302 22.2023C25.424 22.4966 25.4868 22.812 25.4868 23.1306C25.4868 23.4492 25.424 23.7647 25.302 24.059C25.18 24.3533 25.0012 24.6206 24.7758 24.8458C24.5506 25.0712 24.2832 25.25 23.9889 25.372C23.6947 25.494 23.3792 25.5568 23.0606 25.5568C22.742 25.5568 22.4266 25.494 22.1323 25.372C21.838 25.25 21.5706 25.0712 21.3455 24.8458L21.2727 24.7731C20.9871 24.4936 20.6242 24.3062 20.231 24.2349C19.8378 24.1636 19.4323 24.2117 19.0667 24.3731C18.7082 24.5267 18.4024 24.7818 18.187 25.107C17.9717 25.4322 17.8561 25.8133 17.8545 26.2034V26.4094C17.8545 27.0524 17.5991 27.669 17.1445 28.1236C16.6899 28.5782 16.0733 28.8337 15.4303 28.8337C14.7874 28.8337 14.1707 28.5782 13.7161 28.1236C13.2615 27.669 13.0061 27.0524 13.0061 26.4094V26.3003C12.9967 25.8991 12.8668 25.51 12.6333 25.1836C12.3999 24.8572 12.0736 24.6085 11.697 24.47C11.3314 24.3087 10.9258 24.2605 10.5326 24.3318C10.1394 24.4031 9.77658 24.5906 9.49091 24.87L9.41818 24.9428C9.19304 25.1682 8.92567 25.347 8.63137 25.469C8.33707 25.591 8.02161 25.6537 7.70303 25.6537C7.38445 25.6537 7.06899 25.591 6.77469 25.469C6.48039 25.347 6.21303 25.1682 5.98788 24.9428C5.76248 24.7176 5.58367 24.4502 5.46167 24.1559C5.33968 23.8616 5.27688 23.5462 5.27688 23.2276C5.27688 22.909 5.33968 22.5936 5.46167 22.2993C5.58367 22.005 5.76248 21.7376 5.98788 21.5124L6.06061 21.4397C6.34004 21.154 6.5275 20.7912 6.59879 20.398C6.67009 20.0048 6.62196 19.5993 6.46061 19.2337C6.30695 18.8752 6.05183 18.5694 5.72662 18.354C5.40142 18.1387 5.02035 18.0231 4.6303 18.0215H4.42424C3.78129 18.0215 3.16468 17.7661 2.71004 17.3115C2.25541 16.8569 2 16.2402 2 15.5973C2 14.9543 2.25541 14.3377 2.71004 13.8831C3.16468 13.4285 3.78129 13.1731 4.42424 13.1731H4.53333C4.93454 13.1637 5.32364 13.0338 5.65006 12.8003C5.97648 12.5669 6.22511 12.2406 6.36364 11.864C6.52499 11.4984 6.57312 11.0928 6.50182 10.6996C6.43053 10.3064 6.24308 9.94357 5.96364 9.6579L5.89091 9.58517C5.66551 9.36003 5.4867 9.09266 5.3647 8.79836C5.24271 8.50406 5.17991 8.18861 5.17991 7.87002C5.17991 7.55144 5.24271 7.23598 5.3647 6.94168C5.4867 6.64738 5.66551 6.38002 5.89091 6.15487C6.11606 5.92947 6.38342 5.75066 6.67772 5.62867C6.97202 5.50667 7.28748 5.44387 7.60606 5.44387C7.92464 5.44387 8.2401 5.50667 8.5344 5.62867C8.8287 5.75066 9.09607 5.92947 9.32121 6.15487L9.39394 6.2276C9.67961 6.50704 10.0424 6.69449 10.4356 6.76579C10.8289 6.83708 11.2344 6.78895 11.6 6.6276H11.697C12.0555 6.47395 12.3612 6.21882 12.5766 5.89362C12.792 5.56842 12.9075 5.18734 12.9091 4.7973V4.59123C12.9091 3.94829 13.1645 3.33167 13.6191 2.87704C14.0738 2.4224 14.6904 2.16699 15.3333 2.16699C15.9763 2.16699 16.5929 2.4224 17.0475 2.87704C17.5022 3.33167 17.7576 3.94829 17.7576 4.59123V4.70033C17.7591 5.09037 17.8747 5.47145 18.0901 5.79665C18.3054 6.12185 18.6112 6.37698 18.9697 6.53063C19.3353 6.69198 19.7408 6.74011 20.134 6.66882C20.5273 6.59752 20.8901 6.41007 21.1758 6.13063L21.2485 6.0579C21.4736 5.8325 21.741 5.65369 22.0353 5.5317C22.3296 5.4097 22.6451 5.3469 22.9636 5.3469C23.2822 5.3469 23.5977 5.4097 23.892 5.5317C24.1863 5.65369 24.4536 5.8325 24.6788 6.0579C24.9042 6.28305 25.083 6.55041 25.205 6.84471C25.327 7.13901 25.3898 7.45447 25.3898 7.77305C25.3898 8.09164 25.327 8.40709 25.205 8.70139C25.083 8.99569 24.9042 9.26306 24.6788 9.4882L24.6061 9.56093C24.3266 9.8466 24.1392 10.2094 24.0679 10.6026C23.9966 10.9958 24.0447 11.4014 24.2061 11.767V11.864C24.3597 12.2225 24.6148 12.5282 24.94 12.7436C25.2652 12.959 25.6463 13.0745 26.0364 13.0761H26.2424C26.8854 13.0761 27.502 13.3315 27.9566 13.7861C28.4113 14.2408 28.6667 14.8574 28.6667 15.5003C28.6667 16.1433 28.4113 16.7599 27.9566 17.2145C27.502 17.6692 26.8854 17.9246 26.2424 17.9246H26.1333C25.7433 17.9261 25.3622 18.0417 25.037 18.2571C24.7118 18.4724 24.4567 18.7782 24.303 19.1367Z" stroke="black" stroke-width="2.87" stroke-linecap="round" stroke-linejoin="round"/>
</svg>
