<svg width="29" height="24" viewBox="0 0 29 24" fill="none" xmlns="http://www.w3.org/2000/svg">
<path fill-rule="evenodd" clip-rule="evenodd" d="M6.45122 20.6951C7.45813 20.6951 8.27439 19.8789 8.27439 18.872C8.27439 17.865 7.45813 17.0488 6.45122 17.0488C5.44431 17.0488 4.62805 17.865 4.62805 18.872C4.62805 19.8789 5.44431 20.6951 6.45122 20.6951ZM6.45122 23.5C9.00722 23.5 11.0793 21.428 11.0793 18.872C11.0793 16.316 9.00722 14.2439 6.45122 14.2439C3.89522 14.2439 1.82317 16.316 1.82317 18.872C1.82317 21.428 3.89522 23.5 6.45122 23.5Z" fill="#1237BF"/>
<path fill-rule="evenodd" clip-rule="evenodd" d="M18.7927 20.6951C19.7996 20.6951 20.6159 19.8789 20.6159 18.872C20.6159 17.865 19.7996 17.0488 18.7927 17.0488C17.7858 17.0488 16.9695 17.865 16.9695 18.872C16.9695 19.8789 17.7858 20.6951 18.7927 20.6951ZM18.7927 23.5C21.3487 23.5 23.4207 21.428 23.4207 18.872C23.4207 16.316 21.3487 14.2439 18.7927 14.2439C16.2367 14.2439 14.1646 16.316 14.1646 18.872C14.1646 21.428 16.2367 23.5 18.7927 23.5Z" fill="#1237BF"/>
<path d="M20.1951 5.82927C18.646 5.82927 17.3902 7.08506 17.3902 8.63415V14.4602C17.8326 14.3197 18.3038 14.2439 18.7927 14.2439C19.2816 14.2439 19.7528 14.3197 20.1951 14.4602V8.63415H23.192L25.1609 14.348C25.4747 15.2586 24.7982 16.2073 23.835 16.2073H22.5771C23.1086 16.9607 23.4207 17.8799 23.4207 18.872C23.4207 18.9189 23.42 18.9656 23.4187 19.0122H23.835C26.7246 19.0122 28.7542 16.1661 27.8128 13.4342L25.8438 7.72033C25.4539 6.58875 24.3889 5.82927 23.192 5.82927H20.1951Z" fill="#1237BF"/>
<path fill-rule="evenodd" clip-rule="evenodd" d="M18.7927 20.6951C19.7996 20.6951 20.6159 19.8789 20.6159 18.872C20.6159 17.865 19.7996 17.0488 18.7927 17.0488C17.7858 17.0488 16.9695 17.865 16.9695 18.872C16.9695 19.8789 17.7858 20.6951 18.7927 20.6951ZM18.7927 23.5C21.3487 23.5 23.4207 21.428 23.4207 18.872C23.4207 16.316 21.3487 14.2439 18.7927 14.2439C16.2367 14.2439 14.1646 16.316 14.1646 18.872C14.1646 21.428 16.2367 23.5 18.7927 23.5Z" fill="#1237BF"/>
<path d="M4.20732 0.5C1.88368 0.5 0 2.38368 0 4.70732V14.8049C0 16.2587 0.737424 17.5404 1.85864 18.2961C2.14213 16.0119 4.09021 14.2439 6.45122 14.2439C9.00722 14.2439 11.0793 16.316 11.0793 18.872C11.0793 18.9189 11.0786 18.9656 11.0772 19.0122H14.1667C14.1653 18.9656 14.1646 18.9189 14.1646 18.872C14.1646 16.316 16.2367 14.2439 18.7927 14.2439C19.2816 14.2439 19.7528 14.3197 20.1951 14.4602V4.70732C20.1951 2.38368 18.3114 0.5 15.9878 0.5H4.20732Z" fill="#1237BF"/>
</svg>
