<svg width="600" height="600" viewBox="0 0 600 600" fill="none" xmlns="http://www.w3.org/2000/svg">
<g clip-path="url(#clip0_2921_9881)">
<rect width="600" height="600" fill="white"/>
<path d="M122.135 198.666V202.338C122.135 218.782 117.116 234.834 107.749 248.35L84.9091 281.306C75.7219 294.563 77.4088 312.508 88.9055 323.82V323.82C102.629 337.323 124.931 336.334 137.406 321.67L165.199 288.999C187.515 262.766 225.122 255.685 255.45 272.005L265.688 277.514C284.548 287.663 299.027 304.381 306.378 324.498L307.965 328.842C318.484 357.63 341.986 379.755 371.355 388.519L433.942 407.196C449.591 411.865 466.458 410.071 480.774 402.215L503.657 389.656C519.084 381.191 525.26 362.183 517.756 346.266L515.058 340.544C509.834 329.463 497.494 323.633 485.617 326.633L479.482 328.183C466.414 331.484 453.73 321.605 453.73 308.126V308.126" stroke="black" stroke-width="7.88357" stroke-linejoin="round" stroke-dasharray="19.16 19.16"/>
<path d="M321.08 184.432C325.988 186.535 326.067 189.041 325.493 190.03C343.755 190.585 349.094 184.656 347.893 178.286C346.932 173.189 333.732 168.262 327.253 166.435C319.391 152.399 311.302 148.767 304.106 147.1C296.911 145.433 268.181 150.794 259.865 157.566C253.213 162.984 252.126 169.441 252.413 171.992C257.08 168.519 261.803 171.501 263.581 173.426C283.489 166.008 314.947 181.804 321.08 184.432Z" fill="white"/>
<path d="M316.594 246.166L324.74 186.927C304.845 173.835 278.684 171.363 268.09 171.763L254.455 214.554C254.644 220.651 258.532 235.389 272.577 245.559C286.621 255.729 307.773 250.201 316.594 246.166Z" fill="white"/>
<path d="M188.048 376.267C200.647 379.55 221.854 376.465 230.882 374.512C232.378 383.262 228.823 392.883 226.858 396.6L195.01 399.373L188.048 376.267Z" fill="white"/>
<path d="M253.693 200.975L263.698 175.412C260.022 168.908 257.175 170.509 251.191 173.316C245.207 176.123 246.312 189.754 247.106 193.742C247.741 196.933 251.762 199.893 253.693 200.975Z" fill="white"/>
<path d="M358.263 373.788L227.127 396.22C232.056 386.46 231.601 378.067 230.758 375.091C205.684 380.717 187.303 376.468 181.246 373.641C185.401 356.88 188.201 314.605 194.962 294.836C200.37 279.02 232.731 247.842 248.236 234.23C250.472 230.579 266.566 232.054 313.053 267.168C359.54 302.283 362.563 352.88 358.263 373.788Z" fill="#1237BF"/>
<path fill-rule="evenodd" clip-rule="evenodd" d="M294.919 146.101C309.016 144.932 316.412 148.675 325.922 161.792L328.915 165.921L331.609 166.868C340.469 169.983 345.862 172.999 348.102 176.091C348.898 177.19 349.118 177.688 349.331 178.88C349.562 180.164 349.523 180.561 348.987 182.353C348.102 185.311 346.729 186.761 342.702 188.988L340.778 190.052L336.12 190.841C331.545 191.617 326.82 191.963 325.74 191.603C325.388 191.486 325.309 191.569 325.281 192.085C325.142 194.649 324.17 202.637 323.343 207.997C322.78 211.645 322.432 214.617 322.54 214.855C322.644 215.085 322.69 217.121 322.642 219.38C322.593 221.638 322.539 225.494 322.521 227.949C322.428 240.696 320.557 254.18 317.926 261.075C317.112 263.208 316.482 264.459 315.416 266.056L314.661 267.189L317.789 269.774C329.126 279.142 339.563 291.565 345.872 303.2C347.407 306.031 347.5 306.32 347.1 307.022C346.781 307.581 346.721 307.604 346.137 307.39C345.63 307.205 345.25 306.668 344.092 304.508C341.772 300.177 336.853 292.864 333.537 288.815C328.198 282.296 323.198 277.169 317.548 272.418C316.176 271.264 314.64 269.965 314.135 269.531L313.218 268.742L311.728 269.793C310.288 270.808 310.156 270.857 307.748 271.269C305.487 271.656 305.131 271.661 303.892 271.319C302.093 270.824 300.851 270.124 299.625 268.916C299.073 268.372 298.582 267.889 298.533 267.844C298.484 267.798 298.102 268.235 297.682 268.815C296.168 270.906 293.588 271.963 290.382 271.804C286.426 271.608 283.443 269.918 280.871 266.418L279.398 264.412L278.752 265.832C277.946 267.603 277.226 268.467 275.627 269.581C274.458 270.395 274.234 270.472 272.336 270.712C270.509 270.943 270.111 270.913 268.483 270.428C262.199 268.556 256.872 261.55 253.32 250.486C252.922 249.249 252.281 246.08 251.483 241.417L250.257 234.25L249.654 234.634C248.387 235.441 243.265 239.495 240.45 241.918C232.336 248.905 223.942 257.697 211.031 272.732C200.859 284.579 197.375 290.367 194.136 300.805C191.188 310.303 189.909 317.641 187.143 340.94C185.272 356.696 184.282 362.942 182.621 369.466C182.148 371.324 181.732 372.96 181.697 373.099C181.616 373.427 183.347 373.866 188.439 374.812C197.207 376.44 204.568 377.055 212.226 376.799C216.167 376.667 225.051 375.161 227.931 374.135C231.977 372.695 233.369 371.969 234.205 370.863C234.798 370.078 235.124 368.402 235.095 366.285C235.061 363.761 231.557 343.243 230.083 336.938C224.924 314.873 220.792 303.096 215.147 294.373C213.103 291.212 211.157 289.209 208.842 287.878C206.956 286.794 206.525 286.238 207.024 285.534C207.437 284.95 208.203 285.073 209.914 285.995C212.11 287.179 213.94 288.904 215.921 291.658C222.134 300.294 226.856 313.425 232.418 337.542C233.885 343.9 237.184 363.189 237.244 365.757C237.31 368.589 237.015 370.396 236.286 371.616C235.582 372.795 234.438 373.75 233.531 373.916C232.467 374.111 232.194 374.733 232.066 377.247C231.932 379.883 231.22 384.547 230.468 387.718C229.66 391.122 228.313 395.812 228.002 396.3C227.492 397.103 226.266 396.982 226.118 396.114C226.084 395.915 226.468 394.289 226.972 392.502C228.624 386.645 229.786 380.454 229.988 376.433L230.021 375.782L228.896 376.121C218.45 379.275 207.133 379.829 193.492 377.853C191.122 377.51 189.141 377.29 189.089 377.363C188.919 377.603 192.677 389.937 194.559 395.312C195.658 398.451 195.752 399.015 195.243 399.41C194.661 399.862 194.034 399.694 193.639 398.979C192.956 397.743 189.378 386.617 187.268 379.168L186.581 376.743L184.262 376.214C182.986 375.923 181.598 375.572 181.178 375.435C180.411 375.184 179.593 374.334 179.48 373.67C179.446 373.473 179.861 371.567 180.402 369.433C182.017 363.061 183.099 356.506 184.571 344.166C186.337 329.357 186.82 325.586 187.625 320.324C189.493 308.101 191.646 299.873 194.915 292.464C198.555 284.213 202.006 279.545 216.868 262.76C228.32 249.827 235.765 242.584 244.897 235.491C246.628 234.146 248.515 232.743 249.09 232.374C250.069 231.745 250.133 231.645 250.101 230.785C249.78 222.055 249.867 216.224 250.401 210.804C250.849 206.259 251.458 203.057 252.673 198.857C254.222 193.502 255.588 190.305 260.769 179.906C261.831 177.773 262.664 175.825 262.619 175.577C262.359 174.15 259.924 171.937 258.248 171.605C255.172 170.997 251.041 173.811 249.091 177.843C247.313 181.522 246.73 185.728 247.411 189.973C247.657 191.511 248.03 193.044 248.323 193.718C248.966 195.204 250.339 197.239 251.173 197.944C252.23 198.838 252.125 199.755 250.941 199.958C249.804 200.152 247.489 197.406 246.328 194.484C245.453 192.285 244.784 187.315 245.015 184.734C245.452 179.853 247.13 175.769 249.806 173.073C250.877 171.993 250.973 171.816 250.788 171.249C250.618 170.728 250.88 169.953 252.327 166.688C255.481 159.568 258.021 156.734 263.721 153.975C267.359 152.213 273.297 150.259 279.97 148.628C283.513 147.761 291.809 146.36 294.919 146.101ZM276.095 151.827C268.631 153.996 264.166 155.863 261.006 158.134C258.273 160.097 256.565 162.449 254.586 166.97C253.814 168.734 253.226 170.208 253.279 170.246C253.333 170.284 253.749 170.159 254.203 169.969C254.657 169.778 255.636 169.516 256.378 169.386C257.872 169.124 258.457 168.945 265.436 166.61C274.366 163.623 275.093 163.439 280.504 162.792C295.557 160.992 311.349 161.472 322.195 164.058C323.803 164.442 325.189 164.743 325.275 164.729C325.563 164.679 320.957 158.714 319.201 156.862C312.138 149.411 306.63 147.485 294.621 148.269C292.439 148.411 278.9 151.011 276.095 151.827ZM282.575 164.834C282.852 164.84 283.291 164.765 283.55 164.667C283.809 164.57 283.583 164.565 283.047 164.657C282.511 164.748 282.299 164.828 282.575 164.834ZM288.147 164.503C297.698 164.142 305.745 164.459 313.676 165.508C325.53 167.075 336.753 170.614 343.398 174.879C344.951 175.875 345.066 175.923 344.023 175.141C340.701 172.648 334.388 169.893 326.503 167.496C318.948 165.2 312.283 164.21 302.654 163.952C296.485 163.788 287.944 164.035 285.463 164.45C284.79 164.563 285.958 164.586 288.147 164.503ZM263.541 169.951C261.428 170.712 261.483 170.629 262.451 171.572C263.011 172.116 263.412 172.343 263.611 172.227C264.916 171.47 265.711 171.283 268.777 171.015C280.083 170.025 288.749 171.043 301.283 174.831C315.503 179.131 327.296 185.433 327.205 188.686C327.183 189.477 327.115 189.469 331.603 189.183C338.638 188.735 343.157 186.935 345.766 183.541C346.569 182.497 346.681 182.211 346.563 181.518C345.782 176.955 333.209 171.166 318.04 168.387C306.819 166.331 291.821 165.956 278.052 167.387C275.222 167.682 264.665 169.547 263.541 169.951ZM271.327 173.567C271.319 173.844 271.309 174.723 271.304 175.521C271.291 177.604 270.479 182.623 269.617 185.944C269.209 187.515 268.104 191.079 267.161 193.863C265.28 199.418 264.661 201.55 264.173 204.159C262.899 210.961 264.563 216.646 268.68 219.56C269.41 220.077 270.46 220.641 271.015 220.814C273.416 221.563 277.043 221.174 282.976 219.532C290.552 217.434 295.782 217.459 300.808 219.615C301.601 219.956 304.136 221.582 306.441 223.23C308.933 225.012 311.011 226.332 311.568 226.489C315.308 227.541 317.925 223.995 319.86 215.253C321.089 209.698 322.671 198.314 323.065 192.19C323.185 190.331 323.313 188.403 323.351 187.906C323.418 187.015 323.403 186.992 322.231 186.225C314.5 181.164 300.184 176 287.641 173.747C284.171 173.124 279.171 172.736 275.524 172.807C271.69 172.882 271.344 172.945 271.327 173.567ZM293.02 181.277C293.725 181.881 293.334 182.54 291.564 183.731C290.579 184.395 289.433 185.408 288.835 186.143C287.807 187.408 287.113 187.774 286.529 187.361C285.898 186.915 286.055 186.202 287.072 184.894C288.247 183.383 290.968 181.297 291.992 181.122C292.38 181.055 292.843 181.125 293.02 181.277ZM317.724 187.921C318.956 188.875 320.985 192.275 321.251 193.83C321.411 194.769 321.203 195.298 320.637 195.389C319.987 195.493 319.706 195.181 318.841 193.397C318.361 192.406 317.504 190.968 316.938 190.201C315.963 188.88 315.921 188.775 316.16 188.225C316.477 187.498 317.038 187.389 317.724 187.921ZM291.603 192.684C293.692 194.572 292.937 201.446 290.59 201.917C288.658 202.304 287.631 199.685 288.153 195.7C288.402 193.797 289.217 192.519 290.299 192.334C290.869 192.236 291.209 192.328 291.603 192.684ZM315.569 197.926C316.911 198.623 317.289 203.286 316.179 205.461C315.696 206.41 314.822 206.665 314.073 206.076C312.936 205.181 312.841 200.012 313.934 198.468C314.466 197.716 314.893 197.575 315.569 197.926ZM308.727 200.012C308.945 200.199 309.307 201.325 309.717 203.088C310.455 206.262 311.111 208.434 312.239 211.429C313.49 214.754 313.536 215.51 312.587 217.165C312.025 218.148 310.227 220.303 309.513 220.85C308.716 221.462 307.883 221.236 307.734 220.368C307.648 219.863 307.822 219.531 308.617 218.684C309.161 218.104 309.958 217.131 310.388 216.522C311.156 215.433 311.164 215.395 310.858 214.235C310.687 213.587 310.143 211.922 309.649 210.535C307.84 205.451 306.821 200.953 307.318 200.25C307.68 199.739 308.288 199.636 308.727 200.012ZM278.55 233.584C277.203 234.631 281.026 239.061 285.578 241.73C287.296 242.738 287.748 242.852 288.422 242.452C288.751 242.257 288.7 241.275 288.343 240.926C288.235 240.82 287.372 240.265 286.426 239.693C284.329 238.425 281.919 236.309 280.718 234.681C279.581 233.139 279.303 232.998 278.55 233.584ZM204.19 285.127C204.683 285.475 204.662 286.079 204.141 286.564C203.686 286.987 203.624 286.996 203.161 286.702C202.31 286.161 202.468 285.154 203.431 284.989C203.681 284.946 204.023 285.008 204.19 285.127ZM318.729 275.521C319.667 276.185 319.467 277.847 318.428 278.024C317.572 278.171 316.765 276.451 317.321 275.666C317.699 275.132 318.118 275.089 318.729 275.521ZM317.381 280.114C317.917 280.494 317.984 281.061 317.627 282.206C317.193 283.597 317.161 285.785 317.53 288.766C318.031 292.803 318.025 293.236 317.463 293.618C317.065 293.888 316.883 293.887 316.445 293.613C315.932 293.291 315.895 293.155 315.483 290.008C314.983 286.196 314.986 283.811 315.491 281.852C315.949 280.075 316.548 279.524 317.381 280.114ZM326.805 325.945C327.42 326.251 327.921 328.197 329.048 334.648C329.993 340.061 330.47 344.239 330.826 350.245C331.261 357.59 331.227 367.3 330.763 368.105C330.514 368.535 329.726 368.697 329.311 368.403C328.887 368.103 328.8 367.379 328.908 365.019C329.137 359.989 328.881 351.733 328.292 345.105C327.911 340.832 326.422 331.469 325.631 328.373C325.208 326.721 325.209 326.621 325.636 326.199C326.179 325.661 326.218 325.652 326.805 325.945Z" fill="black"/>
<path d="M368.636 507.941C379.007 498.449 381.673 487.068 381.709 482.564C380.611 482.161 377.271 481.289 372.701 481.025C368.131 480.762 368.087 476.668 368.636 474.654C365.999 449.43 353.402 441.073 347.433 440.048C341.904 440.963 330.031 447.518 326.779 466.414C323.528 485.31 332.016 499.262 336.667 503.876C343.002 509.186 358.265 517.433 368.636 507.941Z" fill="#F9A33F"/>
<path d="M412.031 482.564L454.107 477.73C448.614 489.045 436.969 492.671 426.972 492.671C418.974 492.671 413.679 485.933 412.031 482.564Z" fill="#F9A33F"/>
<path d="M231.97 465.425C232.849 467.183 238.049 468.062 240.539 468.282C240.539 473.042 239.067 483.662 233.179 488.057C227.29 492.451 216.663 489.888 212.085 488.057C198.111 490.605 190.882 484.211 189.015 480.696C184.005 482.893 178.358 481.611 176.161 480.696C173.598 481.868 166.537 483.508 158.803 480.696C149.136 477.18 147.707 465.425 147.488 453.341C147.312 443.673 153.127 435.763 156.057 433.017H184.071C191.014 433.017 217.286 435.653 229.553 436.972C229.224 444.552 230.872 463.228 231.97 465.425Z" fill="#F9A33F"/>
<path d="M229.224 436.642L289.866 442.025C290.416 446.346 291.404 456.592 290.965 463.008C290.416 471.028 287.889 471.467 283.495 472.895C279.979 474.038 272.069 473.005 268.554 472.346C258.007 470.991 236.057 467.82 232.629 465.974C229.202 464.129 228.931 445.65 229.224 436.642Z" fill="#F9A33F"/>
<path d="M428.839 480.256C461.885 477.971 474.248 472.566 476.299 470.149C477.288 468.94 479.002 464.348 477.947 455.647C476.94 447.34 475.118 446.517 474.223 447.192C474.445 446.435 474.623 442.237 474.102 429.281C473.333 410.165 469.707 397.971 465.533 392.038C462.193 387.292 460.113 377.244 459.49 372.813C463.006 380.019 467.767 380.723 469.707 380.173C477.727 371.055 468.169 357.103 465.533 353.038C463.423 349.786 460.626 350.291 459.49 350.95C455.623 340.931 449.53 340.111 446.966 340.953L440.375 336.339C433.783 334.23 375.447 329.528 347.104 327.44C339.67 327.88 323.308 328.956 317.331 329.747L317.21 329.764C309.826 330.74 306.662 331.159 304.368 348.204C302.061 365.342 299.974 453.01 299.864 458.504C299.776 462.898 301.219 464.802 301.951 465.205L326.779 466.853C334.162 443.563 344.943 439.498 349.411 440.377C368.856 447.188 368.307 474.323 368.636 477.07C368.966 479.816 369.185 479.377 380.281 481.464C391.377 483.552 401.484 483.552 428.839 480.256Z" fill="#F9A33F"/>
<path d="M465.862 414.23C465.862 415.636 469.817 416.207 471.795 416.317C476.079 415.438 473.772 410.824 470.806 410.495C467.84 410.165 465.862 412.472 465.862 414.23Z" fill="#F9A33F"/>
<path d="M391.157 422.25C392.827 423.656 398.591 422.689 401.265 422.03C403.901 413.351 398.298 415.328 394.124 415.438C389.949 415.548 389.07 420.492 391.157 422.25Z" fill="#F9A33F"/>
<path d="M364.132 417.086C364.483 420.162 368.526 420.565 370.504 420.382H370.833C376.986 416.976 373.36 414.12 370.833 413.131C368.307 412.142 363.692 413.241 364.132 417.086Z" fill="#F9A33F"/>
<path d="M406.098 317.333L405 332.494L350.29 327.44C344.723 327.587 330.778 328.077 319.529 328.868C308.279 329.659 306.126 335.497 306.455 338.316C302.5 349.039 300.853 410.604 300.523 440.047C298.875 440.633 295.008 441.805 292.723 441.805C290.438 441.805 272.582 440.633 263.94 440.047L197.474 433.675C184.987 433.748 157.485 433.389 147.378 431.368C137.271 429.346 136.062 423.787 136.722 421.261C135.66 397.97 133.667 348.226 134.195 335.57C134.722 322.914 143.643 319.018 148.037 318.651C175.019 311.796 233.911 303.93 259.985 300.854C267.272 300.305 284.461 299.118 294.92 298.767C307.993 298.327 392.476 310.302 399.727 311.401C405.527 312.279 406.391 315.722 406.098 317.333Z" fill="#F9A33F"/>
<path fill-rule="evenodd" clip-rule="evenodd" d="M301.183 298.038C307.199 298.339 328.796 300.821 344.798 303.051C360.823 305.284 371.262 306.754 373.691 307.119C377.13 307.635 386.693 308.949 390.499 309.429C395.385 310.045 401.274 311.087 402.531 311.557C404.132 312.156 405.524 313.449 405.993 314.771C406.512 316.236 406.656 321.009 406.331 325.914C406.182 328.148 405.99 330.24 405.904 330.563C405.685 331.379 405.108 331.713 404.67 331.274C404.374 330.979 404.363 330.654 404.584 328.751C404.723 327.55 404.849 324.195 404.864 321.294C404.89 316.194 404.874 315.987 404.381 314.986C403.383 312.96 401.205 312.372 388.742 310.762C383.867 310.133 364.307 307.397 363.474 307.228C362.935 307.119 358.418 306.492 345.457 304.727C318.093 301.001 306.978 299.872 297.684 299.872C293.131 299.872 292.895 299.944 291.489 301.789C287.865 306.54 285.298 325.382 283.668 359.196C283.285 367.135 283.287 398.755 283.671 405.996C284.429 420.3 285.316 430.703 286.013 433.461C286.451 435.197 286.673 435.704 287.347 436.505C288.899 438.35 292.197 438.951 297.558 438.365L299.206 438.185L299.57 428.298C299.77 422.86 300.14 413.269 300.391 406.985C300.643 400.701 300.952 392.791 301.077 389.408C302.118 361.227 303.149 347.338 304.72 340.336C306.119 334.096 307.653 331.813 311.528 330.199C314.84 328.821 318.566 328.036 324.803 327.402C330.215 326.852 349.995 326.854 358.31 327.405C367.187 327.994 367.708 328.043 384.292 329.862C390.806 330.577 400.696 331.392 409.615 331.95C433.028 333.414 440.637 334.937 445.71 339.174C446.597 339.915 446.872 340.032 447.486 339.933C448.328 339.796 450.75 340.139 452.391 340.628C454.717 341.321 456.907 343.747 459.057 348.01L460.12 350.118L461.199 349.897C462.862 349.556 463.829 350.13 465.846 352.652C470.66 358.674 473.469 364.491 474.043 369.622C474.262 371.585 474.245 372.213 473.923 374.066C473.437 376.864 472.352 379.164 471.085 380.082C467.908 382.383 464.177 380.745 461.071 375.684C460.444 374.662 459.931 373.881 459.931 373.948C459.931 374.191 461.672 380.006 462.342 382C463.7 386.043 464.439 387.737 467.238 393.232C471.304 401.213 472.032 403.278 472.369 407.773L472.524 409.842L473.477 410.683C475.289 412.283 475.566 415.065 474.055 416.492L473.295 417.209L473.545 418.689C473.682 419.503 473.888 421.454 474.001 423.025C474.115 424.596 474.317 426.771 474.45 427.859C474.582 428.946 474.641 430.954 474.579 432.321C474.518 433.688 474.555 437.294 474.663 440.335L474.859 445.864L475.964 446.859C476.606 447.437 477.254 448.283 477.511 448.88C478.523 451.227 478.887 457.481 478.377 463.716C477.817 470.548 477.18 471.739 473.172 473.439C469.426 475.028 462.952 476.825 457.218 477.867L454.395 478.381L453.672 479.816C449.959 487.19 439.81 492.937 429.719 493.38C425.136 493.582 421.112 492.552 418.045 490.393C416.126 489.043 413.352 486.141 412.448 484.538L411.749 483.3L410.627 483.424C410.01 483.492 404.748 483.612 398.934 483.69C388.963 483.825 386.182 483.738 383.521 483.206C382.918 483.085 382.817 483.134 382.73 483.587C382.674 483.873 382.418 485.244 382.16 486.634C380.115 497.651 372.887 507.762 364.724 511.022C361.498 512.31 359.449 512.649 354.905 512.644C351.452 512.641 350.587 512.57 349.16 512.176C344.059 510.766 339.541 507.673 335.256 502.658C329.833 496.31 326.833 489.96 325.79 482.617C325.393 479.83 325.386 473.018 325.776 470.155C325.932 469.007 325.993 467.991 325.911 467.898C325.829 467.805 324.038 467.724 321.931 467.717C319.825 467.709 316.075 467.516 313.597 467.286C311.12 467.057 307.455 466.78 305.454 466.671C299.757 466.362 299.469 466.067 299.128 460.194L298.986 457.741L295.489 457.567C292.725 457.43 291.953 457.453 291.812 457.677C291.713 457.833 291.63 458.771 291.629 459.762C291.624 462.173 291.071 466.265 290.542 467.803C289.356 471.249 286.961 472.795 281.315 473.757C278.769 474.191 277.423 474.202 276.198 473.802C275.68 473.633 274.762 473.43 274.157 473.35C273.553 473.271 271.18 472.92 268.884 472.57C266.588 472.22 261.101 471.528 256.69 471.033C249.384 470.213 243.699 469.477 242.133 469.148C241.582 469.032 241.529 469.078 241.529 469.669C241.529 471.005 240.829 474.255 239.976 476.877C237.785 483.61 235.33 487.128 231.568 488.925C229.357 489.982 227.077 490.398 223.512 490.396C219.513 490.393 213.292 489.471 212.599 488.778C212.326 488.505 212.076 488.506 210.702 488.79C208.14 489.319 202.77 489.246 200.331 488.648C196.68 487.754 190.921 484.328 189.527 482.221C188.977 481.39 188.955 481.381 188.341 481.698C187.437 482.166 185.235 482.615 183.083 482.771C180.614 482.951 178.099 482.613 176.725 481.916C175.642 481.368 175.615 481.365 174.248 481.707C172.369 482.175 165.96 482.353 162.066 482.044C159.134 481.811 158.857 481.748 157.227 480.943C155.101 479.893 153.612 478.581 152.167 476.483C150.731 474.399 150.119 473.163 149.138 470.363C147.493 465.669 146.652 459.542 146.935 454.322L147.084 451.563L145.415 451.303C142.966 450.923 141.373 449.96 140.547 448.363C139.172 445.704 138.873 437.927 139.91 431.835L140.274 429.703L139.247 428.799C136.361 426.259 135.847 423.89 135.298 410.611C134.864 400.114 134.345 389.161 134.195 387.32C133.712 381.389 132.993 360.018 132.99 351.49C132.981 327.711 134.714 322.624 143.983 319.203C149.76 317.07 168.75 313.271 197.805 308.433C227.411 303.504 253.977 300.202 273.608 299.01C279.922 298.627 281.91 298.533 288.549 298.306C297.877 297.986 299.464 297.953 301.183 298.038ZM275.696 300.415C257.261 301.548 234.45 304.183 210.988 307.889C208.269 308.319 204.808 308.864 203.298 309.1C199.847 309.64 188.62 311.533 184.402 312.285C182.649 312.598 180.079 313.05 178.689 313.291C176.271 313.71 173.121 314.303 164.187 316.019C155.565 317.676 149.109 319.171 145.511 320.345C138.965 322.482 136.705 325.137 135.536 332.061C134.77 336.601 134.637 339.606 134.646 352.165C134.654 363.511 134.792 368.652 135.407 380.619C136.075 393.6 136.295 398.035 136.495 402.591C136.618 405.37 136.82 409.968 136.946 412.808C137.324 421.378 137.698 424.003 138.813 425.906C139.922 427.799 142.02 429.055 145.511 429.916C150.381 431.118 156.619 431.604 178.359 432.476C205.023 433.545 222.115 434.82 248.999 437.743C258.247 438.748 264.277 439.367 270.642 439.965C274.771 440.352 288.67 440.641 290.682 440.381L291.955 440.217L290.193 439.745C286.097 438.647 284.757 436.778 284.035 431.154C282.054 415.72 281.167 384.243 282.07 361.393C282.703 345.35 283.736 331.405 285.043 321.24C286.452 310.284 288.086 303.88 290.234 300.89L291.017 299.8L285.993 299.946C283.229 300.026 278.596 300.237 275.696 300.415ZM347.654 328.684C356.576 329.588 360.524 330.233 361.644 330.966C362.277 331.382 364.125 334.701 366.894 340.399C371.767 350.426 375.392 359.84 377.728 368.534C381.617 383.011 384.885 405.676 386.44 428.957C386.812 434.535 387.273 452.72 387.069 453.825C386.937 454.546 386.551 454.847 386.02 454.644C385.773 454.549 385.689 453.134 385.574 447.125C385.353 435.571 384.729 424.742 383.679 414.236C381.692 394.341 378.596 376.553 375.115 365.033C372.931 357.806 368.894 347.848 364.909 339.861C362.097 334.224 361.012 332.362 360.405 332.132C356.241 330.548 337.529 329.206 326.643 329.71C315.773 330.213 310.874 331.32 308.99 333.699C306.129 337.312 304.704 346.105 303.61 366.886C303.205 374.581 303.019 379.102 302.172 401.932C302.051 405.194 301.853 409.94 301.732 412.478C301.529 416.718 301.082 428.554 300.733 438.883L300.59 443.096L301.656 443.228C304.579 443.591 304.913 443.676 304.989 444.074C305.149 444.912 304.68 445.084 302.597 444.949L300.634 444.822V445.585V446.347L306.228 446.64C310.588 446.868 311.892 446.875 312.14 446.668C312.315 446.523 312.87 445.099 313.372 443.503C314.491 439.947 316.415 436.011 318.381 433.257C322.836 427.013 330.701 421.334 339.572 417.954C342.939 416.672 342.58 417.767 342.497 409.023L342.427 401.492H341.47H340.513L340.403 403.752C340.321 405.433 340.209 406.066 339.964 406.221C339.064 406.789 338.809 406.151 338.898 403.549C338.945 402.176 338.89 401.287 338.755 401.251C338.634 401.219 336.36 401.031 333.702 400.835C319.548 399.787 310.63 398.253 307.487 396.326C307.069 396.07 306.581 395.485 306.339 394.951C305.657 393.45 305.723 391.177 306.884 376.224C307.335 370.415 307.63 364.25 307.777 357.548C307.983 348.164 308.405 344.994 309.858 341.888C311.39 338.613 314.909 336.683 321.337 335.591C324.119 335.118 331.963 335.112 337.547 335.578C346.992 336.366 353.026 337.014 355.142 337.468C357.239 337.918 358.103 339.142 360.395 344.914C361.64 348.049 362.492 350.828 365.75 362.382C369.391 375.292 370.294 378.768 371.143 383.146C372.306 389.14 372.853 397.14 372.219 398.892C371.925 399.708 371.637 399.835 368.851 400.384C364.265 401.289 362.358 401.43 353.202 401.54L344.138 401.649L344.098 403.768C344.076 404.933 344.051 408.424 344.043 411.525C344.025 418.334 344.316 417.752 340.1 419.419C333.05 422.207 327.724 425.549 323.251 429.991C319.173 434.042 316.407 438.723 314.704 444.454C313.441 448.707 313.737 448.576 306.23 448.191C303.26 448.039 300.77 447.973 300.698 448.045C300.233 448.511 300.573 462.276 301.086 463.733C301.225 464.128 301.541 464.559 301.788 464.691C302.034 464.823 303.73 465.016 305.555 465.119C307.38 465.223 311.216 465.527 314.08 465.795C319.829 466.334 320.745 466.273 321.215 465.321C321.364 465.019 321.747 463.536 322.066 462.025C323.615 454.687 326.481 448.788 330.566 444.53C332.684 442.322 334.418 441.027 336.687 439.956C347.756 434.735 360.06 442.563 365.999 458.605C366.443 459.806 367.193 462.301 367.665 464.151C368.495 467.403 368.591 468.108 369.174 475.216C369.432 478.372 369.612 478.868 370.657 479.305C372.245 479.968 379.733 481.371 379.733 481.005C379.733 480.971 379.428 480.492 379.056 479.94C377.767 478.031 377.452 476.753 377.453 473.451C377.455 468.537 378.405 463.622 379.855 461.029C381.345 458.366 383.072 457.188 386.638 456.407L388.522 455.994V454.96C388.522 454.391 388.364 451.571 388.172 448.692C387.793 443.034 387.857 432.945 388.284 430.977C388.882 428.22 389.803 427.502 392.208 427.915C394.394 428.291 397.455 429.224 399.01 429.989C400.598 430.769 402.19 432.36 402.794 433.77C404 436.583 404.615 441.7 404.637 449.117L404.654 454.774H406.449H408.245L408.353 446.919C408.476 438.001 408.702 436.061 409.893 433.681C410.711 432.046 411.981 431.03 413.732 430.611C414.348 430.463 418.598 430.279 424.071 430.163C432.916 429.975 437.985 429.667 444.111 428.946C450.475 428.196 452.687 428.291 454.904 429.412C458.046 430.999 459.377 435.52 459.644 445.512L459.776 450.423L461.007 450.275C463.417 449.986 463.165 450.624 463.197 444.74C463.249 435.02 463.9 429.736 465.38 427.01C466.459 425.023 469.158 423.361 471.313 423.357L472.478 423.354L472.322 421.44C472.237 420.387 472.057 419.028 471.922 418.419L471.677 417.312L469.746 417.165C466.557 416.921 464.875 415.765 464.875 413.816C464.875 411.894 467.225 409.888 469.841 409.578L470.974 409.444L470.827 407.665C470.501 403.731 469.781 401.701 466.301 394.901C461.589 385.694 461.175 384.483 454.681 360.954C451.381 348.999 448.978 344.039 444.709 340.372C443.461 339.3 440.428 337.738 438.205 337.021C433.663 335.558 424.916 334.456 411.043 333.598C398.824 332.843 390.906 332.156 378.085 330.739C366.868 329.5 353.087 328.49 347.434 328.493L345.786 328.494L347.654 328.684ZM369.427 331.801C369.959 332.082 370.514 332.556 370.659 332.854C370.899 333.346 371.29 333.474 374.816 334.223C380.952 335.526 383.07 336.566 384.867 339.159C385.534 340.121 385 339.985 390.17 340.511C391.378 340.633 398.398 340.829 405.77 340.945C414.39 341.08 420.545 341.277 423.018 341.498C433.177 342.402 439.047 343.329 441.159 344.362C442.532 345.034 443.993 346.418 445.192 348.184C447.282 351.262 450.414 358.424 452.89 365.788C454.85 371.615 460.596 391.334 460.841 393.073C461.083 394.788 460.77 395.837 459.832 396.451C457.787 397.792 452.823 398.755 444.66 399.395C433.506 400.27 419.536 400.799 411.144 400.663C403.528 400.54 401.517 400.249 398.711 398.863C395.841 397.445 394.527 395.718 391.364 389.203C383.32 372.635 376.445 354.169 375.541 346.703C375.176 343.69 375.484 342.278 376.777 341.031L377.728 340.114L377.028 339.866C376.643 339.729 375.31 339.558 374.067 339.486C371.867 339.358 371.791 339.369 371.211 339.91C370.044 340.998 368.931 341.274 368.554 340.569C368.306 340.107 368.617 339.421 369.075 339.421C369.748 339.421 369.575 339 368.719 338.553C367.999 338.178 367.84 338.151 367.944 338.422C368.151 338.963 367.864 339.421 367.319 339.421C367.043 339.421 366.755 339.26 366.679 339.064C366.521 338.652 366.902 338.103 367.346 338.103C367.749 338.103 367.729 337.785 367.304 337.432C366.414 336.693 366.033 334.857 366.608 334.072C366.76 333.863 367.28 333.556 367.761 333.388C368.769 333.038 368.531 332.874 366.881 332.781C365.714 332.716 365.346 332.277 365.899 331.611C366.327 331.096 368.287 331.201 369.427 331.801ZM365.635 333.023C366.063 333.294 365.862 334.238 365.356 334.334C364.773 334.446 364.302 333.774 364.589 333.239C364.825 332.798 365.168 332.727 365.635 333.023ZM367.954 335.12C367.781 335.572 368.202 336.242 369.079 336.912C369.884 337.525 370.456 337.633 375.243 338.071C378.768 338.394 380.229 339.34 383.287 343.276C384.858 345.3 385.219 345.56 385.876 345.144C386.143 344.975 386.005 344.555 385.059 342.652C383.26 339.032 381.619 337.534 378.525 336.687C377.799 336.489 375.674 335.992 373.801 335.583C370.056 334.766 368.148 334.614 367.954 335.12ZM448.416 341.585C448.136 342.038 449.671 343.606 451.028 344.253C452.735 345.068 454.167 346.576 455.887 349.373C456.572 350.486 457.162 351.432 457.2 351.475C457.238 351.518 457.565 351.343 457.926 351.086L458.584 350.618L458.132 349.579C457.299 347.664 455.487 344.875 454.317 343.705C453.117 342.504 452.006 341.984 449.876 341.626C449.303 341.529 448.767 341.439 448.683 341.425C448.6 341.41 448.48 341.483 448.416 341.585ZM452.053 348.114C452.438 348.952 453.169 350.82 453.677 352.264L454.6 354.89L454.985 354.132C455.197 353.715 455.518 353.204 455.699 352.998C455.995 352.66 455.966 352.515 455.417 351.57C453.825 348.827 451.575 345.923 451.415 346.404C451.38 346.506 451.668 347.276 452.053 348.114ZM385.877 346.947C383.377 348.207 383.805 350.937 388.299 362.382C392.01 371.83 392.944 373.733 393.941 373.875C394.618 373.972 397.761 372.857 398.384 372.299C399.394 371.396 399.708 370.269 399.746 367.422C399.776 365.205 399.692 364.464 399.201 362.637C397.17 355.076 392.708 347.801 389.497 346.816C387.959 346.344 387.003 346.378 385.877 346.947ZM459.387 352.147C458.659 352.506 457.668 353.206 457.184 353.703L456.306 354.605L456.328 356.626C456.351 358.703 456.779 360.469 458.652 366.227C461.071 373.665 463.981 378.271 466.923 379.322C468.015 379.712 468.451 379.692 469.523 379.206C471.658 378.236 472.989 373.817 472.458 369.454C472.167 367.06 471.462 364.84 470.142 362.156C468.406 358.629 464.702 353.296 462.983 351.849C462.105 351.111 461.364 351.172 459.387 352.147ZM394.589 356.874C394.807 357.444 394.501 357.915 393.961 357.838C393.598 357.787 393.466 357.621 393.466 357.219C393.466 356.816 393.598 356.651 393.961 356.599C394.258 356.557 394.509 356.667 394.589 356.874ZM466.443 359.306C466.617 359.759 466.381 360.295 466.007 360.295C465.567 360.295 465.132 359.702 465.283 359.309C465.447 358.879 466.279 358.877 466.443 359.306ZM395.886 359.866C396.04 360.35 395.672 360.954 395.223 360.954C394.775 360.954 394.407 360.35 394.561 359.866C394.652 359.579 394.893 359.416 395.223 359.416C395.554 359.416 395.795 359.579 395.886 359.866ZM467.903 361.888C468.04 362.271 467.665 362.931 467.311 362.931C466.874 362.931 466.495 362.379 466.652 361.97C466.813 361.551 467.76 361.488 467.903 361.888ZM396.776 363.024C397.218 363.348 397.079 363.964 396.515 364.18C396.091 364.343 395.523 363.704 395.695 363.256C395.865 362.813 396.345 362.71 396.776 363.024ZM469.074 365.003C469.293 365.573 468.986 366.045 468.446 365.968C468.083 365.916 467.951 365.751 467.951 365.348C467.951 364.945 468.083 364.78 468.446 364.729C468.743 364.686 468.994 364.796 469.074 365.003ZM397.965 366.878C398.123 367.173 398.129 367.9 397.984 369.18C397.698 371.695 397.341 372.301 396.472 371.749C396.082 371.502 396.476 366.913 396.911 366.637C397.38 366.34 397.719 366.418 397.965 366.878ZM470.074 368.241C470.509 368.676 470.531 368.86 470.406 371.037C470.206 374.5 469.479 376.822 468.552 376.954C467.797 377.062 467.731 376.488 468.283 374.629C468.616 373.506 468.818 372.131 468.891 370.479C469.009 367.79 469.222 367.388 470.074 368.241ZM323.375 404.035C326.604 404.475 328.037 405.291 328.629 407.027C329.484 409.538 328.75 410.654 325.705 411.472C322.221 412.408 319.354 412.31 317.098 411.177C315.921 410.586 315.249 409.651 314.93 408.163C314.491 406.117 315.233 404.764 317.083 404.238C318.262 403.904 321.615 403.795 323.375 404.035ZM340.058 408.978C340.318 409.238 340.347 409.427 340.175 409.747C339.916 410.23 339.513 410.292 339.129 409.907C338.744 409.523 338.806 409.12 339.289 408.861C339.609 408.69 339.798 408.718 340.058 408.978ZM468.879 411.397C467.823 411.757 466.303 413.179 466.303 413.807C466.303 413.994 466.535 414.378 466.818 414.661C467.283 415.126 467.604 415.192 470.13 415.338C473.332 415.523 473.454 415.474 473.423 414.019C473.399 412.889 472.926 412.076 471.949 411.48C471.097 410.961 470.228 410.937 468.879 411.397ZM370.944 412.221C373.709 412.863 375.119 414.346 375.118 416.612C375.118 418.661 373.578 420.203 370.937 420.799C368.741 421.295 367.531 421.252 366.195 420.629C363.919 419.57 362.681 416.802 363.551 414.72C363.943 413.781 365.237 412.668 366.269 412.382C367.663 411.995 369.672 411.926 370.944 412.221ZM340.246 412.505C340.506 412.764 340.423 413.616 340.114 413.873C339.687 414.227 338.82 413.564 338.907 412.951C338.975 412.476 339.907 412.165 340.246 412.505ZM472.69 413.815C473.158 414.379 472.669 414.895 471.665 414.895C470.998 414.895 470.795 414.803 470.731 414.47C470.568 413.624 472.105 413.11 472.69 413.815ZM366.564 413.942C366.254 414.059 365.779 414.362 365.509 414.615C364.027 416.005 365.34 419.08 367.609 419.534C368.407 419.694 371.27 419.241 372.078 418.828C374.102 417.794 374.063 415.281 372.007 414.217C370.612 413.496 368.08 413.368 366.564 413.942ZM469.908 414.043C470.123 414.604 469.483 415.178 468.99 414.867C468.781 414.735 468.61 414.441 468.61 414.212C468.61 413.647 469.702 413.505 469.908 414.043ZM399.178 413.893C402.397 414.68 404.035 417.449 403.022 420.394C402.445 422.071 401.718 422.983 400.485 423.58C399.616 424 399.134 424.067 397.074 424.048C392.755 424.009 391.002 423.468 389.9 421.833C389.312 420.96 389.229 419.356 389.714 418.197C390.944 415.252 395.767 413.059 399.178 413.893ZM394.56 415.904C392.887 416.53 391.256 418.088 391.037 419.268C390.603 421.604 392.198 422.475 396.908 422.475C398.287 422.475 399.355 422.362 399.827 422.164C401.16 421.607 401.751 420.154 401.486 418.085C401.361 417.109 401.206 416.793 400.612 416.297C399.223 415.138 396.995 414.993 394.56 415.904ZM369.641 417.33C370.11 417.895 369.62 418.411 368.616 418.411C367.949 418.411 367.747 418.319 367.682 417.986C367.519 417.139 369.056 416.625 369.641 417.33ZM399.361 420.425C399.643 420.706 399.505 421.363 399.123 421.558C398.413 421.921 397.256 422.045 396.95 421.79C396.464 421.387 396.599 420.727 397.215 420.492C397.86 420.247 399.144 420.207 399.361 420.425ZM394.808 420.812C395.027 421.382 394.721 421.853 394.181 421.777C393.818 421.725 393.685 421.56 393.685 421.157C393.685 420.754 393.818 420.589 394.181 420.538C394.478 420.495 394.729 420.605 394.808 420.812ZM351.868 426.526C359.341 427.844 365.451 432.7 370.819 441.591C373.162 445.47 376.12 452.219 376.872 455.399C377.117 456.433 377.107 456.616 376.789 456.933C376.167 457.556 375.786 456.998 374.793 454.004C372.399 446.79 368.321 439.637 363.92 434.931C361.058 431.873 357.034 429.405 353.225 428.374C350.869 427.736 345.4 427.674 343.259 428.262C341.462 428.756 338.132 430.352 336.834 431.343C335.335 432.486 335.034 432.612 334.584 432.283C333.995 431.852 334.319 431.269 335.736 430.215C337.5 428.902 340.63 427.389 342.71 426.845C344.954 426.257 349.455 426.101 351.868 426.526ZM468.852 429.262C467.82 430.402 467.187 433.72 466.729 440.383C466.479 444.017 466.585 448.773 466.924 449.112C467.017 449.204 467.964 449.058 469.03 448.786L470.968 448.293L470.932 442.746C470.857 430.88 470.351 427.605 468.852 429.262ZM165.608 435.274C168.248 437.927 169.849 440.91 171.209 445.711C173.892 455.177 172.986 467.274 169.042 474.659L167.986 476.636L171.635 476.58C174.238 476.539 175.436 476.602 175.815 476.799C176.5 477.156 176.599 477.486 176.154 477.931C175.841 478.244 175.335 478.271 172.025 478.149C168.623 478.024 168.218 477.968 167.904 477.575C167.565 477.151 167.535 477.165 166.696 478.118C166.223 478.656 165.465 479.383 165.011 479.734C164.558 480.085 164.187 480.459 164.187 480.565C164.187 480.673 166.043 480.707 168.417 480.642C174.387 480.479 176.2 479.924 178.588 477.529C180.159 475.953 181.39 473.702 182.578 470.237L183.397 467.848L183.295 464.772C183.105 459.039 183.25 455.058 183.763 451.918C184.434 447.814 184.521 445.383 184.083 443.041C183.464 439.738 182.058 436.374 180.645 434.816L179.98 434.084L174.556 433.88C171.572 433.768 168.736 433.645 168.252 433.607C167.769 433.569 166.57 433.521 165.589 433.5L163.805 433.461L165.608 435.274ZM157.047 434.526C155.455 435.281 153.373 437.411 152.244 439.44C147.517 447.939 147.153 462.232 151.418 471.927C152.969 475.455 155.128 478.118 157.395 479.3C159.093 480.186 161.173 480.179 162.816 479.283C163.977 478.649 165.811 476.947 166.628 475.745C168.266 473.333 169.857 469.008 170.591 464.969C171.239 461.41 171.292 454.09 170.696 450.49C169.671 444.285 167.378 439.059 164.459 436.276C161.893 433.828 159.641 433.296 157.047 434.526ZM436.531 434.446C433.026 434.623 427.638 434.747 424.556 434.719C419.118 434.671 418.921 434.685 417.854 435.176C414.852 436.56 414.045 439.004 414.326 445.876C414.562 451.681 414.758 454.499 414.937 454.677C415.128 454.867 420.712 454.519 427.193 453.913C429.791 453.67 434.784 453.22 438.288 452.913C446.186 452.221 453.014 451.46 453.387 451.229C453.775 450.991 453.899 444.604 453.566 442.098C452.92 437.247 451.4 435.212 447.951 434.581C445.134 434.066 444.22 434.055 436.531 434.446ZM182.462 434.285C182.503 434.376 183.003 435.39 183.573 436.538C184.207 437.813 184.859 439.607 185.253 441.152L185.895 443.678L186.481 442.377C187.272 440.619 188.81 438.277 190.029 436.973L191.032 435.901L190.636 435.231C190.341 434.732 190.069 434.554 189.573 434.535C188.606 434.499 183.265 434.202 182.791 434.158C182.569 434.137 182.421 434.195 182.462 434.285ZM393.14 435.266C391.935 437.247 391.73 442.008 392.493 450.341C392.744 453.079 392.966 455.329 392.987 455.341C393.009 455.352 393.817 455.286 394.784 455.194C395.751 455.101 397.3 455.018 398.226 455.01C400.688 454.987 400.607 455.065 400.606 452.718C400.604 450.063 400.23 445.112 399.817 442.287C399.408 439.495 398.848 437.647 398.072 436.527C397.364 435.505 395.604 434.56 394.408 434.56C393.699 434.56 393.502 434.67 393.14 435.266ZM194.179 435.671C192.714 436.354 190.189 438.904 189.079 440.822C186.155 445.873 184.778 451.852 184.778 459.498C184.778 469.173 187.185 476.939 191.525 481.263C193.329 483.061 194.712 483.788 196.621 483.943C204.603 484.591 210.931 469.606 209.125 454.334C207.975 444.608 204.039 437.14 199.122 435.353C197.775 434.863 195.612 435.003 194.179 435.671ZM203.874 436.824C207.25 440.409 209.552 446.03 210.594 453.236C210.958 455.754 210.947 463.365 210.574 465.98C209.02 476.904 204.066 484.679 198.134 485.502L196.816 485.685L197.853 486.167C200.102 487.211 202.082 487.566 205.715 487.574C208.464 487.58 209.49 487.492 211.038 487.113C216.899 485.68 220.401 481.995 222.714 474.823C226.26 463.83 225.748 451.448 221.332 441.407C220.617 439.781 218.809 436.644 218.464 436.431C218.362 436.368 215.575 436.121 212.271 435.883C208.967 435.644 205.819 435.415 205.275 435.372C204.731 435.33 203.854 435.279 203.325 435.258L202.363 435.219L203.874 436.824ZM329.701 435.576C329.932 435.807 329.889 436.491 329.635 436.649C329.193 436.922 328.51 436.518 328.58 436.024C328.647 435.554 329.384 435.259 329.701 435.576ZM220.656 436.61C220.656 436.65 221.197 437.719 221.859 438.987C224.849 444.712 226.289 450.713 226.517 458.4C226.706 464.751 225.963 469.976 224.049 475.75C222.284 481.077 219.716 484.659 216.186 486.718C215.381 487.187 214.723 487.64 214.723 487.726C214.723 487.936 218.254 488.543 221.153 488.831C223.807 489.095 226.988 488.865 229.005 488.263C233.457 486.936 235.895 483.988 238.323 476.999C239.233 474.378 240.043 470.656 239.947 469.538L239.881 468.771L237.581 468.256C232.478 467.115 231.368 466.428 230.672 463.981C230.452 463.207 230.203 462.334 230.119 462.04C230.022 461.699 229.707 461.418 229.246 461.263C227.942 460.824 227.865 459.608 229.142 459.608C229.613 459.608 229.662 459.517 229.643 458.674C229.632 458.161 229.509 456.653 229.369 455.324L229.115 452.907L228.353 452.66C227.934 452.525 227.495 452.261 227.377 452.075C227.068 451.584 227.599 451.039 228.386 451.039H229.031L228.879 448.348C228.796 446.867 228.686 445.607 228.635 445.546C228.584 445.486 227.831 445.237 226.961 444.993C225.677 444.633 225.367 444.46 225.311 444.074C225.202 443.313 225.882 443.099 227.257 443.461C227.905 443.632 228.455 443.751 228.48 443.725C228.504 443.7 228.558 442.22 228.6 440.437C228.673 437.322 228.658 437.196 228.236 437.178C227.994 437.169 226.511 437.033 224.94 436.877C221.85 436.571 220.656 436.496 220.656 436.61ZM179.458 437.796C180.579 437.964 180.929 438.441 180.353 439.017C180.097 439.273 179.342 439.31 176.233 439.223C171.97 439.103 171.373 438.979 171.478 438.24C171.547 437.752 171.59 437.746 175.173 437.721C177.167 437.708 179.095 437.741 179.458 437.796ZM429.39 438.112C431.021 438.214 436.448 438.273 441.45 438.242C449.87 438.19 450.561 438.214 450.784 438.566C450.969 438.858 450.943 439.028 450.674 439.297C450.366 439.606 449.181 439.651 440.681 439.685C431.902 439.72 421.859 439.513 420.68 439.274C420.106 439.157 419.844 438.567 420.185 438.158C420.472 437.812 424.33 437.792 429.39 438.112ZM218.111 438.145C218.328 438.304 218.469 438.625 218.425 438.859C218.348 439.257 218.098 439.288 214.419 439.344C211.712 439.386 210.402 439.326 210.193 439.152C209.801 438.827 209.81 438.626 210.234 438.201C210.52 437.916 211.197 437.856 214.147 437.856C216.75 437.856 217.822 437.934 218.111 438.145ZM236.65 438.845C236.424 439.654 236.639 441.491 237.054 442.302C237.412 443 238.265 443.285 238.996 442.952C240.014 442.488 241.09 440.533 241.09 439.146C241.09 438.474 240.89 438.376 239.222 438.221C237.245 438.038 236.848 438.134 236.65 438.845ZM230.174 439.087C229.967 439.627 230.516 450.66 230.762 450.906C230.936 451.08 239.71 452.128 247.701 452.928L249.149 453.073L249.288 448.925C249.365 446.644 249.538 443.899 249.673 442.825C249.959 440.553 249.927 440.501 248.212 440.496L247.095 440.493L247.195 442.223C247.361 445.088 246.368 447.171 244.344 448.204C242.753 449.015 240.662 448.668 240.03 447.487C239.879 447.204 239.317 446.792 238.781 446.57C236.632 445.681 235.2 443.406 234.988 440.545C234.875 439.021 234.887 439.031 232.96 438.886C230.606 438.709 230.311 438.73 230.174 439.087ZM327.09 439.312C327.247 439.721 326.869 440.273 326.432 440.273C326.077 440.273 325.702 439.613 325.84 439.229C325.983 438.83 326.929 438.893 327.09 439.312ZM341.021 440.152C337.835 440.828 335.286 442.202 332.643 444.667C328.607 448.433 325.669 453.87 323.914 460.822C323.564 462.207 323.211 463.989 323.13 464.78L322.983 466.219L324.683 466.155L326.384 466.09L327 463.673C328.609 457.364 331.068 452.342 334.901 447.536C337.61 444.138 340.601 441.585 343.155 440.49C343.696 440.259 344.138 440.016 344.138 439.951C344.138 439.733 342.501 439.839 341.021 440.152ZM242.321 440.987C241.898 442.431 240.902 443.652 239.61 444.309L238.613 444.815L239.526 445.181C240.732 445.663 242.025 445.655 242.457 445.162C243.499 443.973 243.804 442.07 243.188 440.595C243.013 440.176 242.822 439.833 242.764 439.833C242.706 439.833 242.507 440.352 242.321 440.987ZM159.697 440.452C162.793 442.4 164.903 449.614 164.915 458.29C164.925 465.567 163.663 470.562 161.254 472.773C160.84 473.153 160.347 473.331 159.52 473.397C158.509 473.479 158.255 473.41 157.486 472.846C155.696 471.533 154.132 467.884 153.155 462.746C152.737 460.544 152.663 459.403 152.658 455.104C152.653 450.672 152.714 449.759 153.152 447.681C153.924 444.03 155.014 441.69 156.442 440.622C157.261 440.009 158.861 439.926 159.697 440.452ZM344.642 441.589C341.088 442.838 337.359 446.337 333.752 451.808C331.099 455.832 329.105 460.843 328.026 466.2C327.152 470.539 326.938 473.069 327.055 477.701C327.212 483.913 328.038 487.576 330.381 492.456C333.651 499.269 339.466 505.874 344.468 508.457C346.078 509.289 346.367 509.365 347.902 509.364C349.426 509.363 349.745 509.28 351.417 508.449C358.91 504.725 364.186 494.969 366.542 480.482C366.788 478.971 366.989 477.197 366.989 476.54C366.989 475.882 367.108 474.771 367.252 474.07C367.46 473.066 367.456 472.315 367.235 470.541C366.195 462.175 363.419 454.782 359.162 449.035C356.396 445.3 351.855 441.617 349.961 441.569C349.478 441.557 348.835 441.468 348.533 441.371C347.539 441.053 345.906 441.144 344.642 441.589ZM255.554 442.729C255.075 444.645 254.712 448.326 254.712 451.265V453.611L256.305 453.746C259.418 454.008 268.029 454.367 269.543 454.296C270.93 454.232 271.077 454.182 271.035 453.786C271.009 453.544 270.919 450.994 270.835 448.119C270.75 445.244 270.617 442.852 270.539 442.804C270.38 442.706 262.296 441.701 259.216 441.397C255.868 441.066 255.98 441.025 255.554 442.729ZM449.86 442.162C450.332 442.308 450.553 442.889 450.268 443.233C450.116 443.417 448.69 443.549 445.728 443.655C443.353 443.739 439.274 443.953 436.663 444.13C434.052 444.308 429.225 444.516 425.936 444.595C420.312 444.728 419.946 444.713 419.803 444.342C419.72 444.126 419.753 443.789 419.875 443.594C420.067 443.29 420.877 443.218 425.568 443.093C428.576 443.013 433.51 442.786 436.531 442.589C442.495 442.199 449.276 441.982 449.86 442.162ZM272.47 443.239C272.286 443.641 272.273 445.17 272.419 448.934C272.529 451.764 272.669 454.129 272.73 454.19C272.791 454.251 273.678 454.058 274.7 453.762C275.723 453.465 277.489 453.106 278.625 452.962L280.69 452.702L280.533 449.838C280.338 446.275 280.074 443.589 279.903 443.418C279.831 443.347 278.312 443.167 276.526 443.018C274.74 442.87 273.153 442.735 272.999 442.719C272.846 442.703 272.607 442.937 272.47 443.239ZM285.255 443.733C285.256 443.945 285.403 445.898 285.581 448.073C285.76 450.248 285.908 452.183 285.91 452.372C285.912 452.644 286.364 452.769 288.047 452.966C289.22 453.104 290.212 453.185 290.25 453.146C290.345 453.052 289.895 445.203 289.736 444.173L289.609 443.349H287.431C285.503 443.349 285.254 443.393 285.255 443.733ZM197.754 443.814C199.005 444.433 200.255 445.932 201.305 448.073C204.697 454.992 204.804 467.643 201.525 474.138C200.783 475.61 199.359 477.272 198.431 477.752C197.735 478.112 196.115 478.163 195.294 477.851C194.414 477.516 192.82 475.928 191.986 474.555C191.04 472.997 189.818 469.393 189.304 466.639C188.696 463.384 188.758 455.67 189.418 452.622C190.951 445.533 194.23 442.069 197.754 443.814ZM307.805 444.338C307.999 444.843 307.727 445.326 307.247 445.326C306.801 445.326 306.433 444.621 306.675 444.23C306.884 443.891 307.662 443.966 307.805 444.338ZM310.741 444.668C311.057 445.258 310.659 445.817 309.991 445.721C309.315 445.625 309.333 444.366 310.012 444.269C310.322 444.225 310.579 444.366 310.741 444.668ZM178.382 444.881C180.691 445.089 182.693 445.331 182.831 445.416C183.214 445.653 183.132 446.385 182.699 446.604C182.323 446.794 176.351 446.394 174.318 446.043C173.132 445.837 172.652 445.24 173.293 444.764C173.528 444.59 173.824 444.459 173.952 444.474C174.08 444.489 176.074 444.672 178.382 444.881ZM217.249 445.476C219.908 445.897 222.206 446.344 222.358 446.47C222.728 446.777 222.705 447.19 222.298 447.528C222.024 447.755 221.103 447.673 217.299 447.084C212.206 446.296 211.704 446.17 211.496 445.627C211.37 445.3 211.942 444.627 212.293 444.689C212.361 444.701 214.591 445.055 217.249 445.476ZM158.775 446.847C158.085 447.267 156.736 449.593 157.018 449.875C157.095 449.952 157.523 450.052 157.97 450.098C159.176 450.222 160.143 450.76 161.088 451.834C162.193 453.089 162.537 454.36 162.538 457.191C162.54 460.722 161.696 462.36 159.545 463.001C158.603 463.281 158.586 463.303 158.663 464.138C158.793 465.557 159.587 467.354 160.48 468.252C160.942 468.717 161.446 469.056 161.6 469.007C161.754 468.957 162.054 468.399 162.267 467.766C163.763 463.312 163.798 454.16 162.34 448.686C161.804 446.674 160.316 445.907 158.775 446.847ZM448.798 447.231C449.091 447.523 448.935 448.172 448.52 448.395C448.286 448.52 447.306 448.622 446.343 448.622C445.379 448.622 441.739 448.818 438.253 449.057C422.789 450.118 420.677 450.196 420.373 449.714C420.121 449.317 420.12 449.248 420.358 448.871C420.499 448.649 421.542 448.522 424.365 448.382C427.813 448.212 432.402 447.92 441.406 447.299C445.002 447.051 448.586 447.018 448.798 447.231ZM474.872 448.406C474.872 448.528 474.986 448.811 475.126 449.035C475.266 449.26 475.316 449.61 475.238 449.815C474.904 450.686 469.327 452.74 463.556 454.117C459.086 455.184 456.725 455.441 449.274 455.67C445.407 455.789 438.585 456.084 434.114 456.326C429.642 456.568 423.117 456.861 419.612 456.978C399.455 457.65 389.455 458.273 385.885 459.079C384.485 459.395 383.708 459.716 383.914 459.893C383.971 459.942 385.797 460.206 387.973 460.479C395.154 461.379 400.724 461.332 415.547 460.249C424.072 459.626 434.119 458.806 438.537 458.372C440.608 458.169 442.462 458.065 442.657 458.14C443.13 458.321 443.111 459.102 442.628 459.354C441.512 459.938 413.171 462.155 400.167 462.676L394.784 462.891L394.191 463.547C393.866 463.908 393.371 464.874 393.093 465.696C392.618 467.097 392.587 467.526 392.587 472.682C392.587 478.16 392.585 478.175 392.107 478.243C391.798 478.287 391.54 478.147 391.38 477.848C391.011 477.158 390.817 469.274 391.126 467.502C391.439 465.705 391.044 464.13 389.991 462.984C389.302 462.233 389.24 462.214 386.105 461.792C381.387 461.157 381.71 461.144 381.121 462.006C380.435 463.007 380.022 464.461 379.522 467.628C378.225 475.844 379.165 479.503 383.008 481.203C384.822 482.005 386.688 482.123 397.53 482.119C408.675 482.115 410.5 482.012 419.173 480.902C432.285 479.223 434.661 478.94 439.277 478.507C455.615 476.975 464.337 475.297 471.992 472.213C474.242 471.306 475.152 470.76 475.633 470.027C476.209 469.147 476.597 466.849 476.871 462.684C477.315 455.942 476.837 450.163 475.72 448.742C475.268 448.168 474.872 448.01 474.872 448.406ZM197.256 450.006C196.773 450.489 196.378 451.228 196.07 452.226C195.358 454.53 195.371 454.567 197.173 455.296C200.213 456.527 201.321 458.291 201.32 461.9C201.319 464.223 200.933 465.021 199.453 465.758C198.606 466.179 198.008 466.305 196.849 466.307L195.344 466.31L195.489 467.628C195.687 469.426 196.251 471.883 196.648 472.682C197.145 473.68 198.049 474.549 198.591 474.549C199.546 474.549 200.32 473.479 201.053 471.143C201.978 468.199 202.195 466.869 202.347 463.234C202.546 458.463 201.817 452.953 200.883 452.172C200.644 451.972 200.217 451.363 199.934 450.819C199.48 449.948 198.728 449.294 198.167 449.285C198.065 449.283 197.654 449.607 197.256 450.006ZM178.469 451.746C180.342 451.983 181.998 452.28 182.15 452.404C182.529 452.717 182.494 453.443 182.093 453.597C181.739 453.733 174.413 452.896 174.063 452.68C173.949 452.609 173.855 452.32 173.855 452.038C173.855 451.547 174.261 451.227 174.807 451.287C174.948 451.302 176.596 451.509 178.469 451.746ZM218.676 452.285C221.152 452.585 223.303 452.934 223.455 453.061C223.827 453.369 223.804 453.782 223.396 454.12C223.123 454.347 222.11 454.286 217.958 453.792C215.152 453.458 212.727 453.082 212.57 452.955C212.413 452.829 212.315 452.519 212.351 452.267C212.442 451.626 213.254 451.628 218.676 452.285ZM158.591 452.768C158.935 453.454 159.22 454.575 159.385 455.899C159.605 457.655 159.59 458.219 159.284 459.705C159.087 460.665 158.974 461.499 159.033 461.558C159.228 461.752 160.335 460.792 160.671 460.138C161.09 459.321 161.117 455.235 160.711 454.075C160.412 453.22 158.915 451.698 158.373 451.698C158.123 451.698 158.17 451.931 158.591 452.768ZM474.448 452.266C474.652 452.512 474.671 452.721 474.516 452.98C474.113 453.648 464.553 456.652 461.434 457.091C460.529 457.218 460.38 457.18 460.155 456.76C459.803 456.103 460.164 455.724 461.317 455.541C463.079 455.261 466.562 454.316 470.237 453.121C472.271 452.459 473.986 451.918 474.047 451.918C474.109 451.918 474.289 452.075 474.448 452.266ZM346.996 452.55C351.365 453.982 354.489 459.064 355.929 467.079C356.458 470.02 356.458 477.262 355.93 480.664C354.768 488.148 351.481 494.97 347.832 497.468C346.264 498.542 345.033 498.938 343.267 498.938C342.063 498.938 341.546 498.815 340.455 498.27C337.742 496.914 335.316 493.444 333.857 488.831C332.943 485.941 332.5 483.138 332.345 479.273C331.868 467.353 336.045 456.237 342.173 453.118C343.444 452.47 345.88 452.184 346.996 452.55ZM155.922 453.376C155.119 455.296 155.453 459.701 156.496 460.973C156.906 461.473 156.91 461.473 157.242 461.036C158.103 459.904 158.235 456.237 157.49 454.126C156.871 452.373 156.429 452.161 155.922 453.376ZM454.401 457.356C454.69 457.919 454.476 458.29 453.863 458.29C453.232 458.29 452.955 457.764 453.342 457.298C453.705 456.861 454.158 456.885 454.401 457.356ZM449.259 457.536C449.519 457.796 449.548 457.985 449.376 458.305C449.117 458.789 448.714 458.85 448.33 458.466C447.945 458.081 448.007 457.678 448.49 457.419C448.81 457.248 448.999 457.277 449.259 457.536ZM231.202 458.041C231.202 459.034 231.766 462.45 232.114 463.563C232.492 464.776 233.333 465.502 234.929 465.996C236.917 466.612 242.095 467.626 246.033 468.17C247.846 468.421 249.601 468.671 249.933 468.726C250.643 468.843 250.643 468.843 250.224 466.639C250.052 465.733 249.795 463.755 249.653 462.245C249.511 460.734 249.331 459.434 249.252 459.355C249.174 459.276 246.582 458.946 243.492 458.622C240.403 458.299 236.596 457.857 235.033 457.641C230.917 457.072 231.202 457.043 231.202 458.041ZM218.239 457.864C223.683 458.625 223.668 458.621 223.841 459.167C224.034 459.774 223.808 460.048 223.114 460.047C222.178 460.045 213.259 458.801 212.989 458.634C212.599 458.393 212.708 457.666 213.171 457.419C213.404 457.294 213.627 457.201 213.665 457.213C213.703 457.224 215.761 457.518 218.239 457.864ZM195.892 458.455C195.665 459.523 195.667 462.558 195.895 463.634C196.307 465.581 197.293 462.801 197.081 460.292C196.872 457.807 196.237 456.827 195.892 458.455ZM198.484 458.784C198.74 460.107 198.723 461.818 198.442 463.128C198.31 463.747 198.253 464.304 198.316 464.367C198.542 464.594 199.348 464.183 199.6 463.713C200.135 462.713 199.772 459.435 199.006 458.345C198.476 457.59 198.284 457.752 198.484 458.784ZM347.082 458.937C345.49 459.85 343.415 462.207 342.376 464.285C341.414 466.207 341.257 467.001 341.886 466.757C342.866 466.376 345.238 466.36 346.201 466.728C348.855 467.742 350.723 471.469 350.724 475.758C350.725 478.636 349.954 480.784 348.387 482.268C347.384 483.218 346.964 483.306 343.095 483.372C341.098 483.406 340.183 483.5 340.183 483.671C340.183 484.342 341.108 488.931 341.496 490.188C342.744 494.229 345.158 495.465 348.473 493.76C349.732 493.113 350.115 492.78 350.684 491.838C352.18 489.362 353.518 485.417 354.277 481.251C354.92 477.716 354.981 470.472 354.395 467.298C353.486 462.382 352.286 459.377 350.953 458.687C349.795 458.086 348.409 458.176 347.082 458.937ZM286.132 464.675C286.132 469.548 286.19 470.806 286.407 470.676C288.56 469.393 289.356 467.639 289.854 463.077C290.167 460.219 290.153 458.793 289.813 458.655C289.661 458.594 288.771 458.536 287.835 458.527L286.132 458.51V464.675ZM276.684 459.631C275.174 459.888 273.779 460.181 273.586 460.283C273.269 460.449 273.263 460.681 273.527 462.62C274.194 467.514 275.057 470.681 276.019 471.758C276.626 472.437 276.71 472.462 278.369 472.462C279.316 472.462 280.251 472.395 280.447 472.314C280.748 472.19 280.829 471.566 280.964 468.32C281.053 466.204 281.053 463.227 280.965 461.706L280.806 458.939L280.118 459.051C279.74 459.113 278.195 459.374 276.684 459.631ZM255.04 460.432C255.093 460.765 255.25 461.926 255.388 463.014C255.695 465.437 256.423 469.099 256.64 469.309C256.728 469.394 258.233 469.627 259.986 469.826C261.738 470.026 265.495 470.527 268.335 470.94C271.175 471.353 273.611 471.691 273.75 471.692C273.91 471.693 273.778 470.999 273.383 469.77C273.043 468.713 272.55 466.414 272.287 464.662C272.024 462.909 271.74 461.402 271.656 461.313C271.571 461.223 269.232 460.951 266.458 460.709C263.684 460.466 260.524 460.182 259.436 460.077C258.349 459.973 256.893 459.874 256.201 459.858C254.946 459.828 254.943 459.829 255.04 460.432ZM177.785 463.462C181.017 463.755 181.704 463.992 181.427 464.716C181.352 464.909 181.176 465.112 181.034 465.166C180.892 465.22 179.244 465.133 177.371 464.974C175.498 464.814 173.894 464.679 173.808 464.673C173.722 464.667 173.549 464.471 173.424 464.237C173.158 463.742 173.644 463.107 174.255 463.15C174.458 463.164 176.047 463.305 177.785 463.462ZM218.526 465.195C221.042 465.63 222.785 466.038 222.983 466.236C223.517 466.77 223.138 467.299 222.225 467.294C221.01 467.289 212.505 465.827 212.26 465.582C212.142 465.464 212.08 465.184 212.123 464.96C212.244 464.324 213.836 464.383 218.526 465.195ZM340.28 469.155C338.804 471.409 338.532 477.894 339.806 480.482C340.453 481.796 340.914 481.853 341.507 480.692C342.877 478.005 342.98 471.962 341.697 469.448C341.206 468.485 340.777 468.396 340.28 469.155ZM233.356 470.03C235.448 470.547 237.275 471.086 237.416 471.227C237.735 471.546 237.379 472.206 236.829 472.315C236.12 472.454 228.761 470.568 228.625 470.212C228.468 469.804 228.827 469.18 229.248 469.128C229.416 469.107 231.265 469.513 233.356 470.03ZM183.736 471.748C182.417 475.372 180.055 478.901 178.223 479.983C177.875 480.188 177.59 480.43 177.59 480.52C177.59 480.886 179.592 481.213 181.765 481.202C184.278 481.19 186.552 480.851 187.538 480.341L188.165 480.016L187.707 479.239C187.214 478.404 185.486 474.275 185.1 473.011C184.971 472.588 184.758 471.822 184.625 471.308C184.493 470.795 184.351 470.374 184.31 470.374C184.269 470.374 184.011 470.993 183.736 471.748ZM216.973 472.108C219.48 472.433 221.64 472.809 221.773 472.942C222.168 473.337 221.908 473.993 221.323 474.076C220.687 474.166 212.999 473.282 211.812 472.983C210.954 472.766 210.727 472.261 211.252 471.737C211.584 471.405 211.521 471.4 216.973 472.108ZM176.756 472.114C179.388 472.245 179.893 472.42 179.748 473.153C179.673 473.532 179.411 473.558 175.966 473.527C172.883 473.498 172.206 473.434 171.91 473.138C171.639 472.866 171.612 472.694 171.794 472.403C172.07 471.963 172.839 471.918 176.756 472.114ZM341.368 472.919C341.535 473.353 341.497 475.76 341.311 476.613C341.235 476.963 340.993 477.358 340.774 477.492C340.448 477.691 340.293 477.635 339.923 477.186C339.521 476.698 339.485 476.443 339.602 474.907C339.675 473.956 339.847 473.041 339.986 472.875C340.327 472.463 341.204 472.491 341.368 472.919ZM231.642 476.869C233.636 477.289 235.431 477.684 235.631 477.747C236.16 477.913 236.324 478.53 235.941 478.913C235.647 479.207 235.14 479.152 231.327 478.411C228.954 477.95 226.933 477.447 226.797 477.283C226.365 476.763 226.644 476.201 227.359 476.151C227.72 476.126 229.648 476.449 231.642 476.869ZM444.161 479.573L438.609 480.157L437.189 482.427C435.304 485.441 434.504 486.498 432.976 487.998C431.673 489.277 428.738 491.115 427.601 491.365C426.415 491.625 426.974 491.907 428.676 491.906C433.494 491.902 439.596 490.118 444.094 487.399C447.452 485.369 450.471 482.429 451.908 479.789L452.523 478.66L451.118 478.825C450.346 478.916 447.215 479.253 444.161 479.573ZM213.625 479.196C215.377 479.299 217.022 479.432 217.281 479.491C217.898 479.633 218.122 480.252 217.706 480.669C217.418 480.957 216.789 480.964 212.59 480.728C207.111 480.421 206.911 480.393 206.724 479.906C206.336 478.897 207.147 478.813 213.625 479.196ZM393.056 479.493C393.251 479.999 392.978 480.482 392.499 480.482C392.053 480.482 391.685 479.776 391.926 479.385C392.135 479.047 392.914 479.121 393.056 479.493ZM367.886 481.91C367.223 486.335 365.525 492.175 363.701 496.301C360.747 502.982 356.67 507.715 351.949 509.942L350.202 510.766L351.07 510.95C352.769 511.308 358.374 511.129 360.637 510.644C363.024 510.133 365.679 509.053 367.572 507.823C369.568 506.525 373.286 502.658 374.954 500.144C378.154 495.319 380.062 490.289 381.142 483.825C381.29 482.94 380.965 482.778 378.607 482.564C376.52 482.374 371.093 481.216 369.955 480.718C369.472 480.506 368.936 480.163 368.763 479.954C368.34 479.441 368.213 479.725 367.886 481.91ZM429.61 481.129C426.89 481.479 422.194 482.081 419.173 482.466C416.152 482.851 413.641 483.203 413.593 483.248C413.241 483.576 416.82 487.614 418.663 488.969C420.383 490.233 422.935 490.779 425.224 490.373C428.228 489.839 431.478 487.732 433.646 484.911C434.546 483.74 436.421 480.819 436.421 480.588C436.421 480.355 434.321 480.522 429.61 481.129ZM447.572 481.282C447.723 481.346 447.846 481.639 447.846 481.935C447.846 482.231 447.723 482.518 447.572 482.573C447.141 482.73 440.334 483.089 440.026 482.97C439.617 482.813 439.455 482.224 439.731 481.893C439.864 481.733 440.384 481.552 440.888 481.491C442.373 481.31 447.273 481.158 447.572 481.282ZM228.986 483.466C232.098 483.994 232.74 484.216 232.74 484.766C232.74 485.548 232.17 485.581 228.641 485.004C225.013 484.412 224.293 484.113 224.747 483.389C225.081 482.855 225.417 482.861 228.986 483.466ZM208.195 484.418C210.726 484.555 211.179 484.768 210.728 485.611C210.508 486.021 210.322 486.033 206.294 485.886C203.047 485.768 202.015 485.659 201.763 485.41C201.516 485.165 201.495 484.996 201.677 484.707C201.948 484.275 203.934 484.187 208.195 484.418ZM375.119 485.358C377.113 485.446 378.956 485.571 379.215 485.635C379.828 485.787 380.056 486.405 379.648 486.813C379.176 487.285 371.32 486.884 370.797 486.361C370.38 485.944 370.525 485.413 371.09 485.287C371.312 485.238 373.125 485.27 375.119 485.358ZM442.079 485.462C442.488 485.626 442.41 486.59 441.969 486.813C441.452 487.075 436.519 487.597 436.097 487.435C435.63 487.256 435.667 486.253 436.146 486.107C436.358 486.043 437.421 485.888 438.508 485.763C439.596 485.638 440.782 485.495 441.145 485.444C441.507 485.393 441.927 485.401 442.079 485.462ZM435.525 489.324C436.141 489.644 436.271 489.919 436.003 490.341C435.727 490.777 432.264 490.701 431.812 490.249C431.564 490.001 431.542 489.829 431.724 489.541C432.027 489.058 434.717 488.904 435.525 489.324ZM373.581 491.92C375.333 492.267 376.996 492.654 377.276 492.78C377.953 493.085 377.859 493.964 377.139 494.066C376.74 494.123 372.04 493.292 369.266 492.675C368.74 492.558 368.477 492.075 368.667 491.577C368.846 491.112 369.848 491.182 373.581 491.92ZM370.285 498.293C372.158 498.646 373.814 498.982 373.965 499.04C374.368 499.193 374.301 500.186 373.877 500.349C373.497 500.494 366.377 499.283 365.491 498.922C365.132 498.776 365.003 498.569 365.052 498.222C365.153 497.51 366.205 497.525 370.285 498.293ZM365.055 503.119C366.832 503.458 368.479 503.797 368.715 503.872C369.302 504.058 369.493 504.658 369.094 505.057C368.802 505.349 368.375 505.316 365.296 504.765C361.8 504.14 360.837 503.807 360.837 503.225C360.837 502.96 361.529 502.398 361.756 502.478C361.795 502.491 363.279 502.78 365.055 503.119ZM360.377 507.957C362.751 508.34 363.242 508.553 363.251 509.202C363.258 509.798 362.463 509.864 359.958 509.475C358.568 509.26 357.259 509.015 357.047 508.931C356.335 508.649 356.74 507.477 357.53 507.53C357.718 507.543 358.999 507.735 360.377 507.957Z" fill="black"/>
<path fill-rule="evenodd" clip-rule="evenodd" d="M121.663 188.135C121.663 188.135 159.821 166.06 159.821 125.604C159.821 104.53 142.737 87.4463 121.663 87.4463C100.589 87.4463 83.5052 104.53 83.5052 125.604C83.5052 163.024 121.663 188.135 121.663 188.135ZM121.663 140.621C130.501 140.621 137.665 133.457 137.665 124.62C137.665 115.782 130.501 108.618 121.663 108.618C112.826 108.618 105.661 115.782 105.661 124.62C105.661 133.457 112.826 140.621 121.663 140.621Z" fill="#1237BF"/>
<path fill-rule="evenodd" clip-rule="evenodd" d="M454.107 298.748C454.107 298.748 492.265 276.674 492.265 236.218C492.265 215.144 475.181 198.06 454.107 198.06C433.033 198.06 415.949 215.144 415.949 236.218C415.949 273.637 454.107 298.748 454.107 298.748ZM454.107 251.235C462.945 251.235 470.109 244.07 470.109 235.233C470.109 226.395 462.945 219.231 454.107 219.231C445.27 219.231 438.105 226.395 438.105 235.233C438.105 244.07 445.27 251.235 454.107 251.235Z" fill="#F9A33F"/>
</g>
<defs>
<clipPath id="clip0_2921_9881">
<rect width="600" height="600" fill="white"/>
</clipPath>
</defs>
</svg>
